<svg xmlns="http://www.w3.org/2000/svg" xml:space="preserve" id="Layer_1" x="0" y="0" style="enable-background:new 0 0 3486.4 414" version="1.1" viewBox="0 0 3486.4 414"><style>.st0{enable-background:new}.st1{fill:#4e1300}</style><g class="st0"><path d="M0 261.5c.8-.4 11-1.2 11-13.4v-223C11 12.6.8 11.8 0 11.4V2.8h81.4c34.6 0 58.2 54.7 58.2 133.7 0 83.8-23.6 133.7-58.2 133.7H0v-8.7zm54.3-29.1h18.1c7.1 0 14.2-11.8 17.7-26 4.7-18.1 8.7-45.6 8.7-75.5 0-42.1-10.6-90.5-26-90.5H54.3v192z" class="st1"/></g><g class="st0"><path d="M172.3 248.2V24.8c0-12.2-10.2-13-11-13.4V2.8H269l9.4 42.5-7.1 3.5c-2-2.8-7.5-8.3-15.3-8.3h-40.5v68.8h27.1c12.2 0 13-9.4 13.4-10.2h8.7v58.2H256c-.4-.8-1.2-10.2-13.4-10.2h-27.1v85.3H256c7.9 0 13.4-5.5 15.3-8.7l7.1 4.3-9.4 42.1H161.2v-8.7c1.2-.3 11.1-1 11.1-13.2z" class="st1"/></g><g class="st0"><path d="M420 2.8h56.2v8.7c-.8.4-11 1.2-11 13.4v223.4c0 12.2 10.2 13 11 13.4v8.7h-61v-8.7c.8-.4 10.6-1.2 10.6-13.4V105.4L392 209.6h-7.9l-33.8-104.2v142.8c0 12.2 9.8 13 10.6 13.4v8.7h-61v-8.7c.8-.4 11-1.2 11-13.4V24.8c0-12.2-10.2-13-11-13.4V2.8h56.2L388 110.6 420 2.8z" class="st1"/></g><g class="st0"><path d="M514.8 248.2V24.8c0-12.2-10.2-13-11-13.4V2.8h107.8l9.4 42.5-7.1 3.5c-2-2.8-7.5-8.3-15.3-8.3h-40.5v68.8h27.1c12.2 0 13-9.4 13.4-10.2h8.7v58.2h-8.7c-.4-.8-1.2-10.2-13.4-10.2h-27.1v85.3h40.5c7.9 0 13.4-5.5 15.3-8.7l7.1 4.3-9.4 42.1H503.8v-8.7c1.2-.3 11-1 11-13.2z" class="st1"/></g><g class="st0"><path d="M740.1 101.1V24c0-9.8-7.5-12.6-11-13.4V2.8H792v7.9c-3.1.8-11 3.5-11 13.4v226.1c0 9.8 7.9 12.6 11 13.4v6.7h-62.9v-6.7c3.1-.8 11-3.5 11-13.4v-57l-45.6-96.4v153.4c0 9.8 7.9 12.6 11 13.4v6.7h-62.9v-6.7c3.1-.8 11-3.5 11-13.4V22.8c0-9.8-7.9-12.6-11-13.4V2.8h52.7l44.8 98.3z" class="st1"/></g><g class="st0"><path d="M843.6 270.2v-8.7c.8-.4 10.6-1.2 10.6-16.1V41.3H831c-11.4 0-16.1 7.1-21.6 14.9l-7.5-4.7L817.6 0h8.3l1.2 2.8H925l1.2-2.8h8.3l15.7 51.5-7.5 4.7c-5.5-7.9-10.2-14.9-21.6-14.9h-23.6v204.1c0 14.9 10.2 15.7 11 16.1v8.7h-64.9z" class="st1"/></g><g class="st0"><path d="m1124.8 50.7-7.5 3.9c-8.7-8.3-18.1-13-26.7-13-30.3 0-42.1 44.4-42.1 92.4 0 49.6 12.6 96.7 45.6 96.7 9.4 0 18.1-5.5 23.2-9.8l7.5 2.4-9.4 46.8h-37.8c-44 0-72.4-68-72.4-135.7 0-66.5 27.5-132.1 81-132.1 18.1 0 24.4 5.9 29.1 10.2l9.5 38.2z" class="st1"/></g><g class="st0"><path d="M1206.6 1.6c45.6 0 68 28.3 68 135.7 0 109.3-24 134.1-68 134.1-44.4 0-68-24.4-68-134.1-.1-107.4 22.4-135.7 68-135.7zm24.8 133.7c0-35.8-3.1-100.7-24.8-100.7-22 0-24.8 70.8-24.8 100.7 0 37.4 3.5 98.7 24.8 98.7 20.4 0 24.8-55.1 24.8-98.7z" class="st1"/></g><g class="st0"><path d="M1391.8 101.1V24c0-9.8-7.5-12.6-11-13.4V2.8h62.9v7.9c-3.1.8-11 3.5-11 13.4v226.1c0 9.8 7.9 12.6 11 13.4v6.7h-62.9v-6.7c3.1-.8 11-3.5 11-13.4v-57l-45.6-96.4v153.4c0 9.8 7.9 12.6 11 13.4v6.7h-62.9v-6.7c3.1-.8 11-3.5 11-13.4V22.8c0-9.8-7.9-12.6-11-13.4V2.8h52.7l44.8 98.3z" class="st1"/></g><g class="st0"><path d="M1471.3 261.5c.8-.4 11-1.2 11-13.4v-223c0-12.6-10.2-13.4-11-13.8V2.8h81.4c34.6 0 58.2 54.7 58.2 133.7 0 83.8-23.6 133.7-58.2 133.7h-81.4v-8.7zm54.2-29.1h18.1c7.1 0 14.2-11.8 17.7-26 4.7-18.1 8.7-45.6 8.7-75.5 0-42.1-10.6-90.5-26-90.5h-18.5v192z" class="st1"/></g><g class="st0"><path d="M1643.5 248.2V24.8c0-12.2-10.2-13-11-13.4V2.8h107.8l9.4 42.5-7.1 3.5c-2-2.8-7.5-8.3-15.3-8.3h-40.5v68.8h27.1c12.2 0 13-9.4 13.4-10.2h8.7v58.2h-8.7c-.4-.8-1.2-10.2-13.4-10.2h-27.1v85.3h40.5c7.9 0 13.4-5.5 15.3-8.7l7.1 4.3-9.4 42.1h-107.8v-8.7c1.2-.3 11-1 11-13.2z" class="st1"/></g><g class="st0"><path d="M1868.9 101.1V24c0-9.8-7.5-12.6-11-13.4V2.8h62.9v7.9c-3.1.8-11 3.5-11 13.4v226.1c0 9.8 7.9 12.6 11 13.4v6.7h-62.9v-6.7c3.1-.8 11-3.5 11-13.4v-57l-45.6-96.4v153.4c0 9.8 7.9 12.6 11 13.4v6.7h-62.9v-6.7c3.1-.8 11-3.5 11-13.4V22.8c0-9.8-7.9-12.6-11-13.4V2.8h52.7l44.8 98.3z" class="st1"/></g><g class="st0"><path d="m2038.8 8.7 6.3 34.6-7.5 3.1c-5.5-5.9-14.9-8.7-24.4-8.7-13.8 0-29.1 6.3-29.1 23.2 0 38.9 72.8 81.8 72.8 141.2 0 37.4-27.9 68-65.7 68h-41.3l-9.4-44 7.9-3.5c7.9 7.5 20.1 11.4 31.1 11.4 15.3 0 30.3-7.9 30.3-26 0-46.4-69.2-85.7-69.2-140 0-13 7.5-66.5 70.8-66.5 16.3.1 25.4 5.6 27.4 7.2z" class="st1"/></g><g class="st0"><path d="M2087.5 248.2V24.8c0-12.2-10.2-13-11-13.4V2.8h107.8l9.4 42.5-7.1 3.5c-2-2.8-7.5-8.3-15.3-8.3h-40.5v68.8h27.1c12.2 0 13-9.4 13.4-10.2h8.7v58.2h-8.7c-.4-.8-1.2-10.2-13.4-10.2h-27.1v85.3h40.5c7.9 0 13.4-5.5 15.3-8.7l7.1 4.3-9.4 42.1h-107.8v-8.7c1.2-.3 11-1 11-13.2z" class="st1"/></g><g class="st0"><path d="M2215.3 261.5c.8-.4 11-1.2 11-13.4v-223c0-12.6-10.2-13.4-11-13.8V2.8h81.4c34.6 0 58.2 54.7 58.2 133.7 0 83.8-23.6 133.7-58.2 133.7h-81.4v-8.7zm54.3-29.1h18.1c7.1 0 14.2-11.8 17.7-26 4.7-18.1 8.7-45.6 8.7-75.5 0-42.1-10.6-90.5-26-90.5h-18.5v192z" class="st1"/></g><g class="st0"><path d="M2503.2 178.2h-13.4v70c0 12.2 9 13 9.8 13.4v8.7h-64.1v-8.7c.8-.4 11-1.2 11-13.4v-223c0-12.6-10.2-13.4-11-13.8V2.8h60.6c47.6 0 71.2 44 71.2 89.3 0 27.1-7.9 57.4-26.7 72l16.1 84.9c2.4 11.4 9.4 12.2 10.2 12.6v8.7h-46.4l-17.3-92.1zm-13.4-37.8h7.5c20.5 0 30.7-24.4 30.7-49.6s-10.2-50.3-30.7-50.3h-7.5v99.9z" class="st1"/></g><g class="st0"><path d="M2601.9 248.2V24.8c0-12.2-10.2-13-11-13.4V2.8h107.8l9.4 42.5-7.1 3.5c-2-2.8-7.5-8.3-15.3-8.3h-40.5v68.8h27.1c12.2 0 13-9.4 13.4-10.2h8.7v58.2h-8.7c-.4-.8-1.2-10.2-13.4-10.2h-27.1v85.3h40.5c7.9 0 13.4-5.5 15.3-8.7l7.1 4.3-9.4 42.1h-107.8v-8.7c1.2-.3 11-1 11-13.2z" class="st1"/></g><g class="st0"><path d="M2808.8 162c0-12.2-9.4-13-10.2-13.4V140h60.6v8.7c-.8.4-11 1.2-11 13.4v78.7c0 4.7 2 6.7 3.5 9v1.6c-11.8 18.9-35.8 20.1-48.8 20.1-20.1 0-79-1.2-79-144.7 0-79 31.9-125.8 72-125.8 11.4 0 25.2 3.1 35.8 11.8l6.7 38.1-7.9 4.7c-11-10.6-20.5-15.3-28.3-15.3-24.4 0-35 42.9-35 90.1 0 48.8 16.9 98.7 38.1 98.7h3.5V162z" class="st1"/></g><g class="st0"><path d="M2882.3 236.4v-1.6c3.1-4.3 3.9-9.8 3.9-16.5V24.8c0-12.2-10.2-13-11-13.4V2.8h64.5v8.7c-.8.4-10.2 1.2-10.2 13.4v193.5c0 9.8 10.6 18.1 22.8 18.1s22.8-8.3 22.8-18.1V24.8c0-12.2-9.4-13-10.2-13.4V2.8h64.5v8.7c-.8.4-11 1.2-11 13.4v193.5c0 6.7.8 12.2 3.9 16.5v1.6c-13.4 20.1-43.3 35-70 35-26.7-.1-56.6-15.1-70-35.1z" class="st1"/></g><g class="st0"><path d="m3163.9 220.6 7.9 5.1-9.4 44.4H3053v-8.7c.8-.4 11-1.2 11-13.4V24.8c0-12.2-10.2-13-11-13.4V2.8h66.1v8.7c-.8.4-11 1.2-11 13.4V231h42.1c7.4-.1 13.7-10.4 13.7-10.4z" class="st1"/></g><g class="st0"><path d="M3285.8 223c-7.1 3.5-15.7 5.1-26 5.1-10.6 0-20.8-2-28.7-5.1l-2.4 13.8c-.8 5.5-1.6 10.6-1.6 11.8 0 11.8 9.4 12.6 10.2 13v8.7h-59.8v-8.7c.8-.4 9.4-1.2 12.2-17.7l20.8-118.4 17.7-101.1c0-11.8-9.8-12.6-10.6-13V2.8h70.4l19.7 122.7 19.3 118.4c2.8 16.5 11 17.3 11.8 17.7v8.7h-59.4v-8.7c.8-.4 10.6-1.2 10.6-11.8 0-1.6-.4-3.5-.8-5.9l-3.4-20.9zm-25.9-161.3-22 123.9c5.1 2.4 14.2 4.3 22 4.3s16.1-2 20.1-4.3l-20.1-123.9z" class="st1"/></g><g class="st0"><path d="M3422.3 178.2h-13.4v70c0 12.2 9 13 9.8 13.4v8.7h-64.1v-8.7c.8-.4 11-1.2 11-13.4v-223c0-12.6-10.2-13.4-11-13.8V2.8h60.6c47.6 0 71.2 44 71.2 89.3 0 27.1-7.9 57.4-26.7 72l16.1 84.9c2.4 11.4 9.4 12.2 10.2 12.6v8.7h-46.4l-17.3-92.1zm-13.4-37.8h7.5c20.5 0 30.7-24.4 30.7-49.6s-10.2-50.3-30.7-50.3h-7.5v99.9z" class="st1"/></g><path d="M2439.3 393.9 1742 414h-1.6l-697.3-20.1v-2.4l697.3-20.1h1.6l697.3 20.1v2.4z" class="st0" style="fill:#a02b20"/></svg>