<svg xmlns="http://www.w3.org/2000/svg" xml:space="preserve" baseProfile="tiny" version="1.2" viewBox="0 0 359.3 59.7"><path d="M0 39.9c.1-.1 1.7-.2 1.7-2v-34C1.7 2 .1 1.9 0 1.8V.4h12.4c5.3 0 8.9 8.3 8.9 20.4 0 12.8-3.6 20.4-8.9 20.4H0v-1.3zm8.3-4.7H11c1.1 0 2.2-1.6 2.7-3.7.7-2.8 1.1-7 1.1-11.5 0-6.4-1.4-13.6-3.8-13.6H8.3v28.8zM26.3 37.9V3.8c0-1.9-1.6-2-1.7-2V.4H41L42.5 7l-1.1.5c-.3-.4-1.1-1.3-2.3-1.3h-6.2v10.3H37c1.9 0 2-1.4 2-1.6h1.3V24H39c-.1-.1-.2-1.6-2-1.6h-4.1v12.7h6.2c1.2 0 2-.8 2.3-1.3l1.1.7-1.5 6.7H24.6v-1.3c.2-.1 1.7-.2 1.7-2zM64.1.4h8.6v1.3c-.1.1-1.7.2-1.7 2v34.1c0 1.9 1.6 2 1.7 2v1.3h-9.3v-1.3c.1-.1 1.6-.2 1.6-2V16.1L59.8 32h-1.2l-5.2-15.9v21.8c0 1.9 1.5 2 1.6 2v1.3h-9.3v-1.3c.1-.1 1.7-.2 1.7-2V3.8c0-1.9-1.6-2-1.7-2V.4h8.6l4.9 16.4L64.1.4zM78.5 37.9V3.8c0-1.9-1.6-2-1.7-2V.4h16.4L94.7 7l-1.1.5c-.3-.4-1.1-1.3-2.3-1.3h-6.2v10.3h4.1c1.9 0 2-1.4 2-1.6h1.3V24h-1.3c-.1-.1-.2-1.6-2-1.6h-4.1v12.7h6.2c1.2 0 2-.8 2.3-1.3l1.1.7-1.4 6.7H76.9v-1.3c.1-.1 1.6-.2 1.6-2zM112.7 15.4V3.7c0-1.5-1.1-1.9-1.7-2V.4h9.8v1.2c-.5.1-1.7.5-1.7 2v34.5c0 1.5 1.2 1.9 1.7 2v1H111v-1c.5-.1 1.7-.5 1.7-2v-8.7l-6.5-14.7v23.4c0 1.5 1.2 1.9 1.7 2v1H98v-1c.5-.1 1.7-.5 1.7-2V3.5c0-1.5-1.2-1.9-1.7-2v-1h8.3l6.4 14.9zM128.7 41.2v-1.3c.1-.1 1.6-.2 1.6-2.5V6.2h-3.5c-1.7 0-2.5 1.1-3.3 2.3l-1.1-.7 2.4-7.7h1.3l.2.4h15l.2-.4h1.3l2.4 7.7-1.1.7c-.8-1.2-1.6-2.3-3.3-2.3H137l.1 31.3c0 2.3 1.5 2.4 1.6 2.5v1.3h-10zM171.7 7.7l-1.1.6c-1.3-1.3-2.8-2-4.1-2-4.6 0-6.4 6.8-6.4 14.1 0 7.6 1.9 14.8 7 14.8 1.4 0 2.8-.8 3.5-1.5l1.1.4-1.4 7.1h-5.8c-6.7 0-11-10.4-11-20.7 0-10.1 4.2-20.2 12.4-20.2 2.8 0 3.7.9 4.4 1.6l1.4 5.8zM184.1.2c7 0 10.4 4.3 10.4 20.7 0 16.7-3.7 20.5-10.4 20.5-6.8 0-10.4-3.7-10.4-20.5.1-16.3 3.5-20.7 10.4-20.7zm3.8 20.4c0-5.5-.5-15.4-3.8-15.4-3.4 0-3.8 10.8-3.8 15.4 0 5.7.5 15.1 3.8 15.1 3.2 0 3.8-8.4 3.8-15.1zM212.2 15.4V3.7c0-1.5-1.1-1.9-1.7-2V.4h9.8v1.2c-.5.1-1.7.5-1.7 2v34.5c0 1.5 1.2 1.9 1.7 2v1h-9.8v-1c.5-.1 1.7-.5 1.7-2v-8.7l-6.5-14.7v23.4c0 1.5 1.2 1.9 1.7 2v1h-9.8v-1c.5-.1 1.7-.5 1.7-2V3.5c0-1.5-1.2-1.9-1.7-2v-1h8.3l6.3 14.9zM224.5 39.9c.1-.1 1.7-.2 1.7-2v-34c0-1.9-1.6-2-1.7-2.1V.4h12.4c5.3 0 8.9 8.3 8.9 20.4 0 12.8-3.6 20.4-8.9 20.4h-12.4v-1.3zm8.3-4.7h2.8c1.1 0 2.2-1.6 2.7-3.7.7-2.8 1.1-7 1.1-11.5 0-6.4-1.4-13.6-3.8-13.6h-2.8v28.8zM250.8 37.9V3.8c0-1.9-1.6-2-1.7-2V.4h16.4L267 7l-1.1.5c-.3-.4-1.1-1.3-2.3-1.3h-6.2v10.3h4.1c1.9 0 2-1.4 2-1.6h1.3V24h-1.3c-.1-.1-.2-1.6-2-1.6h-4.1v12.7h6.2c1.2 0 2-.8 2.3-1.3l1.1.7-1.4 6.7h-16.4v-1.3c.1-.1 1.6-.2 1.6-2zM284.9 15.4V3.7c0-1.5-1.1-1.9-1.7-2V.4h9.8v1.2c-.5.1-1.7.5-1.7 2v34.5c0 1.5 1.2 1.9 1.7 2v1h-9.8v-1c.5-.1 1.7-.5 1.7-2v-8.7l-6.5-14.7v23.4c0 1.5 1.2 1.9 1.7 2v1h-9.8v-1c.5-.1 1.7-.5 1.7-2V3.5c0-1.5-1.2-1.9-1.7-2v-1h8.3l6.3 14.9zM311.1 1.3l1 5.3-1.1.5c-.8-.9-2.3-1.3-3.7-1.3-2.1 0-4.4 1-4.4 3.5 0 5.9 11.1 12.5 11.1 21.5 0 5.7-4.3 10.4-10 10.4h-6.3l-1.4-6.7 1.2-.5c1.2 1.1 3.1 1.7 4.7 1.7 2.3 0 4.6-1.2 4.6-4 0-7.1-10.6-13.1-10.6-21.4 0-2 1.1-10.1 10.8-10.1 2.4 0 3.8.9 4.1 1.1zM318.5 37.9V3.8c0-1.9-1.6-2-1.7-2V.4h16.4l1.4 6.6-1.1.5c-.3-.4-1.1-1.3-2.3-1.3H325v10.3h4.1c1.9 0 2-1.4 2-1.6h1.3V24h-1.3c-.1-.1-.2-1.6-2-1.6H325v12.7h6.2c1.2 0 2-.8 2.3-1.3l1.1.7-1.4 6.7h-16.4v-1.3c.2-.1 1.7-.2 1.7-2zM338 39.9c.1-.1 1.7-.2 1.7-2v-34c0-1.9-1.6-2-1.7-2.1V.4h12.4c5.3 0 8.9 8.3 8.9 20.4 0 12.8-3.6 20.4-8.9 20.4H338v-1.3zm8.3-4.7h2.8c1.1 0 2.2-1.6 2.7-3.7.7-2.8 1.1-7 1.1-11.5 0-6.4-1.4-13.6-3.8-13.6h-2.8v28.8z"/><path fill="#E52E2E" d="m285.7 56.6-106.4 3.1h-.2L72.7 56.6v-.4l106.4-3.1h.2l106.4 3.1v.4z"/></svg>