<svg xmlns="http://www.w3.org/2000/svg" xml:space="preserve" id="Layer_1" x="0" y="0" style="enable-background:new 0 0 4680 2520" version="1.1" viewBox="0 0 4680 2520"><style>.st0{enable-background:new}</style><path d="M4566.4 2340.8c0 86-27.2 136.4-66.4 136.4-38.4 0-66.4-51.2-66.4-136.4 0-86 27.6-138 66-138 39.2 0 66.8 52.4 66.8 138zm-95.6 2c0 50 11.6 97.6 29.2 97.6 8 0 14.4-10 18.8-24 6.4-18 10.4-44 10.4-73.6 0-52.8-11.2-99.6-29.6-99.6-8.4 0-14.4 10-18.8 24.4-6.4 18.4-10 45.2-10 75.2zM4092.4 2435l9.2-5.6c8 7.6 16.8 11.6 25.2 11.6 19.6-.4 36.4-22.8 36.4-64v-5.6l-3.6 4.4c-2 2.4-11.2 11.2-26.8 11.2-34.8 0-56-46.8-56-92.4 0-46.8 21.2-92 63.2-92 44.4 0 63.2 58 63.2 138 0 113.2-43.6 136.8-74.4 136.8-13.6 0-24.8-4.4-30-8.4l-6.4-34zm44.4-81.6c17.2 0 26.4-21.6 26.4-59.6 0-28-13.2-55.2-26-55.2-16.8 0-25.2 23.2-25.2 56 0 34.8 8 58.8 24.8 58.8zM3816 2335c17.2 17.2 27.2 41.6 27.2 66 0 44.4-26.4 76-63.2 76-36.4 0-63.2-32.8-63.2-78.8 0-25.6 10.4-50 27.2-63.2l2-1.6c-8-8-24.4-24.4-24.4-60 0-40.8 24.8-70.4 58.4-70.4 35.6 0 60 27.2 60 68.4 0 36.8-19.2 56-25.2 62l1.2 1.6zm-36 19.2c-14 0-22.4 19.6-22.4 44 0 24 8.4 44.4 22.4 44.4 14.4 0 22.4-19.6 22.4-45.2 0-23.2-8.8-43.2-22.4-43.2zm0-116.8c-12.4 0-21.2 17.2-21.2 36 0 23.6 9.2 42 21.2 42 14 0 21.2-18 21.2-42 0-19.2-8.4-36-21.2-36zM3367.4 2204h105.2c.4.4 0 0 9.2 13.2-18.4 37.2-55.2 117.2-55.2 238.4 0 10.8 12.4 12.8 16.4 13.6v6.8h-56.8v-13.2c0-22 1.6-64.8 11.6-110 14.8-66.8 39.2-108.8 39.6-109.6l2.4-3.2h-59.2c-7.2 0-10.8 4.8-14 8.8-3.6-1.2-5.2-2-8.4-3.2 7.6-34.8 7.6-34.4 9.2-41.6zM3107.6 2245.4s-9.2 6.8-9.2 5.2c-8-7.6-16.8-11.6-25.2-11.6-10.8.4-36.4 7.2-36.4 69.6 2.4-3.6 15.6-15.6 30.4-15.6 34.8 0 56 46.8 56 92.4 0 46.8-21.2 92-63.2 92-44.4 0-63.2-58-63.2-138 0-113.2 43.6-136.8 74.4-136.8 13.6 0 24.8 4.4 30 8.4l6.4 34.4zm-44.4 79.6c-17.2 0-26.4 21.6-26.4 59.6 0 28 13.2 55.2 26 55.2 16.8 0 25.2-23.2 25.2-56 0-34.8-8-58.8-24.8-58.8zM2674.8 2309.2c5.2-7.2 17.2-15.6 31.6-15.6 24.8 0 60 23.2 60 85.6 0 72.8-46.4 97.6-85.6 97.6-16.8 0-33.6-7.6-40.8-14.8l-6.4-34.4 9.2-5.6c12.8 14 24.8 20.4 37.6 20.4 26 0 48.8-17.6 48.8-65.2 0-34-16.4-47.2-34.4-47.2-15.2 0-28.4 11.2-31.6 14l-25.6-7.2 25.6-133.6 84.8.4 7.6 44-10 4.4c-3.6-4.8-8.8-10.4-16.4-10.4h-41.6l-12.8 67.6zM2410.4 2476h-68v-8c4-.8 15.2-3.2 15.2-14.8V2422h-70.8l-17.2-25.6v-.8l62-191.6h73.6v6.8c-3.2.8-11.2 3.6-11.2 13.6V2388h16.4v34H2394v31.2c0 11.2 12.4 14 16.4 14.8v8zm-100-88h47.2v-139.2h-7.6l-41.6 135.6 2 3.6zM1917 2427.8l9.2-5.6c10.8 12 23.6 18.8 37.2 18.8 25.2 0 40-21.6 40-44 0-24-16.4-48.4-50.8-49.2v-32.4c40.8-.8 44-34 44-42 0-17.2-12-34.4-31.2-34.4-13.6 0-26.4 6.8-37.2 18.8l-9.2-5.6 6.4-34.4c3.6-3.6 19.6-14.8 44.8-14.8 42 0 66.4 37.2 66.4 72.4 0 21.6-9.2 43.2-28.8 54.4l-4.4 2 4.4 1.6c21.2 9.2 35.2 37.2 35.2 66.4 0 38-22.4 77.2-75.2 77.2-26.4 0-41.2-12-44.4-14.8l-6.4-34.4zM1612.8 2239.6c-13.6 0-28 6.8-39.2 18.8l-9.6-5.6 6.4-34c4-3.6 20.4-15.2 46.8-15.2 32.8 0 66.4 18 66.4 60.4 0 22.8-18.8 58.4-37.6 92.8-16.4 30.4-34 69.2-36.4 83.6h47.2c8 0 13.6-7.6 16-11.2l8.8 6.4-9.6 40.8h-107.2s-6.8-8-8.4-10c16-86 86.8-153.2 86.8-195.6 0-21.2-14-31.2-30.4-31.2zM1308.2 2476h-73.6v-8c4-.8 16.4-3.2 16.4-14.8v-187.6h-2c-.4 0-.4 0-1.2.4-15.2 7.6-26.4 12.8-36 13.6v-28.4c35.2-14 41.6-20.8 58-47.2h22v249.2c0 11.6 12.4 14 16.4 14.8v8zM887.8 2270c0 38-19.6 68-43.2 68-24.8 0-46.4-30.8-46.4-68.4 0-37.6 21.2-65.6 46-65.6 24 0 43.6 27.6 43.6 66zM823 2476l122.4-272h31.2l-122 272H823zm34.8-222c0-12.8-5.2-22-13.6-22-9.6 0-14.8 10.4-14.8 21.6v35.6c0 11.2 5.6 20.8 14.8 20.8 8.8 0 13.6-9.2 13.6-22v-34zm144 154c0 38-20 68-44.8 68-24 0-44.8-30.8-44.8-68.4 0-37.6 20.4-65.6 44.4-65.6 24.8 0 45.2 27.6 45.2 66zm-31.2-16c0-12.8-5.2-22-14-22-9.2 0-14.4 10.4-14.4 21.6v35.6c0 11.2 5.2 20.8 14.4 20.8s14-9.2 14-22v-34zM554 2450.8v21.2l-4.4 4H528l-4-4v-16.8h-25.6l-8-37.2 6-2.8c3.2 2.8 12.4 10.4 27.6 10.4.4 0 25.6-.4 25.6-23.2 0-12.8-7.6-31.6-31.2-60.8-14.4-17.6-28-36.8-28-59.6 0-12 6.4-40 32.4-51.6l1.2-.8V2208l4-4h21.6l4.4 3.6v18c11.2 1.2 16.8 3.6 20 5.6l5.2 28.8-5.6 2.8c-4.4-5.6-11.6-8-19.2-8-12.8 0-26.8 8-26.8 22.8.8 31.6 62 69.2 62 119.6 0 32.4-22.8 53.6-33.6 53.6h-2zM176.4 2253.6l28.4 92.8c2.4-4.8 2.4-4.4 2.4-4.8 1.6-3.6 9.6-20.8 25.2-20.8 16.4 0 22.8 16.4 22.8 29.6 0 8.4-3.2 13.2-5.2 13.2s-6-5.6-12-5.6c-13.6 0-21.2 28-21.2 28l17.2 56.4c2.8 8.8 8.4 11.2 11.2 12.4v7.2h-45.6l-6-19.2-2.4 3.2c-1.2 1.6-12.4 16-34 16-49.6 0-52.4-64.4-52.4-70.4 0-51.2 39.6-85.2 44-88.8l1.6-1.6-25.2-83.2h87.2l10.4 42-4.8 2.8c-6-8.8-8.8-9.2-13.6-9.2h-28zm3.6 144.8-18.8-60.8-2.4 2.4c-3.2 2.8-22.8 20.8-22.8 49.6 0 .4.8 37.2 19.6 37.2 14.4 0 21.2-15.6 24.4-28.4zM4480 1844l72.4 272H4520l-72.4-272h32.4zM4154.4 1844v272h-28.8v-272h28.8zM3760 2116h-32.4l72.4-272h32.4l-72.4 272zM3422.8 1860h-33.2l-1.2-1.2v-13.6l1.6-1.2h61.6v272h-62l-1.2-1.2v-13.6l1.2-1.2h33.2v-240zM3090.4 2100l1.2 1.2v13.6l-1.2 1.2h-62v-272h61.6l1.6 1.2v13.6l-1.2 1.2h-33.2v240h33.2zM2668.6 1844c17.6 0 48.4 1.6 48.4 46.8v65.6c0 11.6 9.6 17.6 14.4 19.2v8.8c-4.8 1.6-14.4 7.6-14.4 19.2v65.6c0 45.2-30.8 46.8-48.4 46.8v-10.8c6.8-2 20.4-6 20.4-22.4v-70c0-20 12.4-30.4 13.2-30.8l1.2-.4v-3.2l-1.2-.4c-4.4-3.2-13.2-13.6-13.2-30.8v-70c0-16-13.2-20-20.4-22.4V1844zM2371.4 2116c-17.6 0-48.4-1.6-48.4-46.8v-65.6c0-11.6-9.6-17.6-14.4-19.2v-8.8c4.8-1.6 14.4-7.6 14.4-19.2v-65.6c0-45.2 30.8-46.8 48.4-46.8v10.8c-6.8 2-20.4 6-20.4 22.4v70c0 20-12.4 30.4-13.2 30.8l-1.2.4v3.2l1.2.4c4.4 3.2 13.2 13.6 13.2 30.8v70c0 16 13.2 20 20.4 22.4v10.8zM1944.2 1851.6l-.8-3.6 3.6-3.2 4 .8c40 26.4 65.6 83.6 65.6 134.4 0 50.8-25.6 108-65.6 134.4l-4 .8-3.6-3.2.8-3.6c15.6-20.4 46-64 46-128.4s-30.4-108-46-128.4zM1656.6 2112l-3.6 3.2-4-.8c-40-26.4-65.6-83.6-65.6-134.4 0-50.8 25.6-108 65.6-134.4l4-.8 3.6 3.2-.8 3.6c-15.6 20.4-46 64-46 128.4s30.4 108 46 128.4l.8 3.6zM1256.4 1948.6c-8.4 0-17.2 9.2-22.4 15.2l-9.2-5.6 4-19.6c4.4-4.4 13.6-12.8 29.6-12.8 19.6 0 33.6 11.6 33.6 32.8v51.6c0 2.4 0 14.4 11.2 14.4 13.2 0 30.4-18.4 30.4-49.6 0-50-34-74.4-70-74.4-37.6 0-77.2 26.8-77.2 79.6 0 39.2 24.4 79.2 68.8 79.2h62v22.8h-61.6c-60 0-92-51.6-92-102 0-67.6 50.8-102.4 100-102.4 47.2 0 92.8 31.2 92.8 95.2 0 47.2-27.6 74.4-54.8 74.4-16.8 0-26.8-10-32-15.2-7.2 2.4-13.6 4-20 4-23.2 0-27.2-23.2-27.2-31.2 0-22.8 17.6-31.6 30.8-38 7.6-3.6 9.6-4.4 12.4-7.6v-1.6c0-4.4-2.8-9.2-9.2-9.2zm5.2 38.4c-.8 0-1.6.4-2 .4-5.6 2.8-14.4 8.8-14.4 16 0 6 6.4 10 10.4 10s8-4 10-6V1987h-4zM891.8 1884.4c-17.6 0-28.8 13.2-34.4 20l-6-3.2 5.6-35.2c14-6.8 26.4-9.2 37.6-9.2 35.2 0 54 29.6 54 57.2 0 36.8-48 68.8-48 101.2 0 10 7.2 12.8 10.4 13.6v6.8h-40V2022c0-43.2 48-75.2 48-111.6 0-17.2-12.8-26-27.2-26zm-.8 184.8c9.2 0 17.2 8 17.2 17.2s-8 16.8-17.2 16.8-17.2-7.6-17.2-16.8c0-9.2 8-17.2 17.2-17.2zM557.2 1861.4c-2.8 61.2-5.2 122.4-7.6 184l-3.2 3.2H534l-3.2-3.2c-2.8-61.2-5.2-122.8-8-184l2.8-4.8H554l3.2 4.8zm-17.2 208c9.2 0 17.2 8 17.2 17.2s-8 16.8-17.2 16.8-17.2-7.6-17.2-16.8 8-17.2 17.2-17.2zM263.2 1923.8l-5.6 24-4 4H234l-12 56.4h18.8l4 4-5.6 24-4 4h-20.4l-15.2 70.8-4.8 4.4h-24l-3.2-3.6 15.2-71.6h-32.4l-15.2 70.8-4.8 4.4h-24l-3.2-3.6 15.2-71.6H100l-3.2-3.6 6.4-24.4 3.2-4h18.8l12-56.4h-18.4l-4-4 5.6-24 4-4h20l15.2-70.8 4.8-4.4h24l3.2 3.6-15.2 71.6h32.4c15.2-72.8 15.2-70 15.2-70.8l4.8-4.4h24l3.2 3.6-15.2 71.6h18.4l4 4zm-61.2 28h-32.8l-12 56.4H190l12-56.4zM4479.2 1792l14.4-61.2 5.2-1.2 18.4 6.8 3.2 4.4-28.4 56-4.8 3.2-6.8-2.4-1.2-5.6zm41.6-173.6c0 10-8.4 18.4-18.4 18.4-9.6 0-17.6-8-17.6-17.6 0-10 8.4-18.4 18.4-18.4 9.6 0 17.6 8 17.6 17.6zM4158 1618.4c0 10-8.4 18.4-18.4 18.4-9.6 0-17.6-8-17.6-17.6 0-10 8.4-18.4 18.4-18.4 9.6 0 17.6 8 17.6 17.6zm0 110.4c0 10-8.4 18.4-18.4 18.4-9.6 0-17.6-8-17.6-17.6 0-10 8.4-18.4 18.4-18.4 9.6 0 17.6 8 17.6 17.6zM3751.8 1549.2l-7.6-62.4 4.8-2.8h19.2l4.8 2.8-7.6 62.4-3.2 5.2h-7.2l-3.2-5.2zm42.8 0-7.6-62.4 4.8-2.8h19.2l4.8 2.8-7.6 62.4-3.2 5.2h-7.2l-3.2-5.2zM3413.2 1549.2l-7.6-62.4 4.8-2.8h19.2l4.8 2.8-7.6 62.4-3.2 5.2h-7.2l-3.2-5.2zM3085.2 1518.4l-2 2h-10.4l-5.2-2.4-32.8-32.4 2.4-1.6h22.8l6.4 3.2 18.8 31.2zM2654.8 1645.6h-16.4c1.2-38.8 24-51.2 36-51.2 21.6 0 38 31.2 52 31.2 13.2 0 17.6-25.2 18.8-31.2h16.4v1.2c0 39.2-23.2 50-35.2 50-23.6 0-38.4-31.2-52.4-31.2-10.8 0-14.8 16-19.2 31.2zM2306.2 1560.8v-8l26.4-21.6-31.2 1.6-5.2-5.6 2.8-16.4 6.8-2.8 26.8 12.4-4.8-30 4.8-6.4h15.2l4.8 6.4-4.8 30.4 25.2-12.8 6.8 2.8 4 16.4-6.4 5.6-28-1.6 25.2 21.6-.4 8-10.8 9.2-9.2-2.8-14-26.8-12.4 26-6.8 3.6-14.8-9.2zM1955.2 1565.6l-5.2 5.2h-14l-1.2-4 32.4-80.8 3.2-2h19.2l3.2 2 32.4 80.8-1.2 4h-14l-5.2-5.2-22.4-55.6h-4.8l-22.4 55.6zM1560.6 1566h118c1.2 0 3.2 0 3.2 3.2v25.2c0 2-1.6 3.6-3.2 3.6h-117.2c-2 0-3.2-.8-3.2-3.6v-25.2c0-2.8 1.2-3.2 2.4-3.2zm-2.4 79.6c0-2.8.8-3.6 3.2-3.6h117.2c2 0 3.2 0 3.2 4v24c0 3.6-.4 4-3.2 4h-116.4c-3.6 0-4-1.2-4-4.8v-23.6zM1296 1632l-3.6 4h-64.8l-3.6-4v-24l3.6-4h64.8l3.6 4v24zM885.8 1556.8l3.2-3.2h22l3.2 3.2v47.2h44.4l3.2 3.2v25.6l-3.2 3.2h-44.4v47.2l-3.2 3.2h-22l-3.2-3.2V1636h-44.4l-3.2-3.2v-25.6l3.2-3.2h44.4v-47.2zM483.8 1582l-5.2-6v-26l4.4-3.2 115.6 52 2.8 3.6v35.2l-2.8 3.6-115.6 52-4.4-3.2v-26l5.2-6 77.2-34.8v-6.4l-77.2-34.8zM236.2 1658l5.2 6v26l-4.4 3.2-115.6-52-2.8-3.6v-35.2l2.8-3.6 115.6-52 4.4 3.2v26l-5.2 6-77.2 34.8v6.4l77.2 34.8zM4456 1194.4l10.4-36.4h72.4l8 18.8-49.2 151.6h30.8c5.2 0 8.4-4.8 10.4-7.6l8 4.4-11.2 36.8H4464l-10.8-16.4 50-154h-25.6c-6.8 0-10.4 2.4-13.6 7.6l-8-4.8zM4112.8 1354.4c.8-.4 8.4-1.2 8.4-9.2V1296l-32.4-120.4c-1.6-6-7.2-8.8-9.6-9.6v-8h47.6v8c-2.4.8-7.6 3.2-7.6 8.8 0 .4 6.8 30.4 6.8 30.4l14 56 14-56s6.8-30 6.8-30.4c0-5.6-5.2-8-7.6-8.8v-8h47.6v8c-2.4.8-8 3.6-9.6 9.6l-32.4 120.4v49.2c0 8 7.6 8.8 8.4 9.2v7.6h-54.4v-7.6zM3786 1158.2h50v8c-.8.4-6.4 1.2-9.6 9.2l-28.8 77.2 34.4 92c3.2 8.8 9.2 9.2 10 9.6v8h-51.6v-8c.8-.4 7.6-1.2 4.8-9.6l-15.2-48-16.4 51.2c-2 5.6 5.2 6 6 6.4v8H3718v-8c2.4-.8 7.6-3.6 10-9.6l33.6-92-28-77.2c-3.2-8.4-8.8-8.8-9.6-9.2v-8l50.8-.4v8.4c-.8.4-4.8.8-4.8 6 0 1.2.4 2.8.8 4.8l9.2 34.4 9.2-33.6c.4-2 .8-4 .8-5.2 0-5.6-3.2-6-4-6.4v-8zM3404 1362h-24.8l-33.2-187.2c-1.2-7.6-7.2-8.4-8.4-8.8v-8h51.6v8c-.8.4-8 1.2-8 7.2 0 .4 4.8 23.2 8.4 47.6l10.8 74 16.4-73.2h6.4l16.4 73.2 11.2-74.8c6.8-45.2 8-45.6 8-46.8 0-6-7.2-6.8-8-7.2v-8h51.6v8c-.8.4-7.2 1.2-8.4 8.8l-33.2 187.2H3436l-16-59.6-16 59.6zM3071.6 1216.8c3.2-24.4 5.6-44.8 5.6-45.2 0-4.4-7.6-5.2-8.4-5.6v-8h54v8c-.8.4-8.8 1.2-10 8.8l-33.2 187.2h-39.2l-33.2-187.2c-1.2-7.6-9.2-8.4-10-8.8v-8h54v8c-.8.4-8.4 1.2-8.4 5.6 0 .4 2.4 20.4 5.6 44.8 5.2 39.2 11.6 89.6 11.6 89.6s6.4-50 11.6-89.2zM2757.2 1334.2c-2.4 4-22.8 28.8-57.2 28.8-34.4 0-54.8-24.8-57.2-28.8v-1.2c1.6-2.4 3.2-4.8 3.2-12.4v-146.4c0-8-7.6-8.8-8.4-9.2v-8h52.8v8c-.8.4-8.4 1.2-8.4 8.8v146.8c0 8 11.6 11.2 18 11.2 6 0 18-3.6 18-11.2v-146.4c0-8-7.6-8.8-8.4-9.2v-8h52.8v8c-.8.4-8.4 1.2-8.4 8.8v146.8c0 7.6 1.6 10 3.2 12.4v1.2zM2375.6 1190h-16.4v155.2c0 7.6 7.6 8.4 8.4 8.8v8h-55.2v-8c.8-.4 8.4-1.2 8.4-8.8V1190h-16.4c-7.6 0-10.4 4-16 12.4l-8.4-5.2 12-39.2h96c7.2 23.2 11.2 36 12 39.2l-8 5.2c-5.6-8.4-8.8-12.4-16.4-12.4zM1941.2 1362.6c-1.2-6-6-28-7.6-36l8-3.6c9.2 7.6 14.8 10 24.4 10 7.6-.4 20.4-4.8 20.4-18.8 0-32.8-52.8-64-52.8-104.8 0-10.4 6-52 56-52 14 0 20.4 4.8 22.8 7.2l5.2 27.2-8 3.6c-2.4-3.6-7.2-8.4-17.6-8.4-10.8 0-20.8 7.6-20.8 18.8.4 26 55.2 59.2 55.2 103.6 0 28.8-22 53.2-52 53.2h-33.2zM1610.8 1345.2c0 7.6 7.6 8.4 8.4 8.8v8h-52.8v-8c.8-.4 8.4-1.2 8.4-8.8v-170c0-6.4-6-8.4-8.4-9.2v-8h48c19.6 0 59.2 12.4 59.2 66.8 0 34-11.2 45.2-22 56l14 64.4c1.6 8 7.2 8.4 8 8.8v8h-35.2l-15.6-69.6h-12v52.8zm31.6-120c0-20.8-10.8-36-25.2-36h-6.4v72.4h6c14.4 0 25.6-15.6 25.6-36.4zM1298 1357.4c4 0 8-4.8 8-4.8l8.4 3.2c-.8 10.4-7.6 22.8-19.6 22.8-10 0-20.4-8-24.4-17.2-2.8.8-6.4 1.6-10.4 1.6-40.4 0-54.4-26.8-54.4-103.2s14.4-103.6 54.4-103.6c40.4 0 54.4 26.8 54.4 104 0 83.6-20.8 92-22 92.8 1.6 3.2 3.6 4.4 5.6 4.4zm-58-96c0 43.6 7.6 71.2 20 71.2s20-27.2 20-72-8-74-20-74-20 29.6-20 74.8zM847.2 1158H900c27.2 0 52.8 26 52.8 70 0 44.4-26.4 70.8-53.6 70.8h-7.6v46.4c0 7.6 7.6 8.4 8.4 8.8v8h-52.8v-8c.8 0 8.4-1.2 8.4-8.8v-170c0-8-7.6-9.2-8.4-9.2v-8zm44.4 30v79.6h7.6c5.6 0 22.4-14 22.4-39.6 0-28.8-16.4-40-22.4-40h-7.6zM594.4 1260.6c0 76.4-14 102.8-54.4 102.8s-54.4-26.8-54.4-103.2 14.4-103.6 54.4-103.6c40.4 0 54.4 26.8 54.4 104zm-74.4 1.2c0 43.6 7.6 71.2 20 71.2s20-27.2 20-72-8-74-20-74-20 29.6-20 74.8zM187.8 1166v-8h52.4v8c-2.4.8-8 2.8-8 8.8v170.4c0 6 5.6 8 8 8.8v8h-52.4v-8c2.4-.8 8.4-2.8 8.4-8.8v-40l-32-68.4v108.4c0 6 5.6 8 8 8.8v8h-52.4v-8c2.4-.8 8.4-2.8 8.4-8.8v-170c0-6.4-6-8.4-8.4-9.2v-8h44.4l32 68.4v-51.6c0-6-6-8-8.4-8.8zM4528 798h42.8v8c-2.4.8-8.4 2.8-8.4 9.2v170c0 6 6 8 8.4 8.8v8H4520v-8c2.4-.8 8-2.8 8-8.8v-93.6l-28 72.8-28-72.8v93.6c0 6 5.6 8 8 8.8v8h-50.8v-8c2.4-.8 8.4-2.8 8.4-8.8v-170c0-6.4-6-8.4-8.4-9.2v-8h42.8l28 80.8 28-80.8zM4138.6 966h30c4.8 0 8.8-5.6 10.8-8.8l8 5.6-8 39.2h-86.8v-8c.8-.4 8.4-1.2 8.4-8.8V814.8c0-6-6-8-8.4-8.8v-8h54v8c-2.4.8-8 2.8-8 8.8V966zM3786.4 798h53.6v8.8c-.8.4-8 .8-11.6 7.2l-34 64 42.8 107.2c2.4 6.4 9.6 7.2 10.4 7.6v9.2H3794v-9.2c.8-.4 6.8-1.2 4-8.4l-27.2-68-12.8 26v42c0 7.2 8.4 8 9.2 8.4v9.2h-54.8v-9.2c.8-.4 8.8-1.2 8.8-8.4V816c0-8-8-8.8-8.8-9.2V798h54.8v8.8c-.8.4-9.2 1.2-9.2 8.8v62.8l34.8-63.6c3.6-6.4-5.6-7.6-6.4-8V798zM3462.2 949.6c0 14.8 2.4 19.6 4.4 21.6-6.4 8-26.8 30.8-52.4 30.8H3377l-7.2-37.2 8.4-2c7.2 7.2 14.4 10.4 21.6 10.4 14 0 24.8-11.6 24.8-23.6V814.8c0-6-6-8-8.4-8.8v-8h54v8c-2.4.8-8 2.8-8 8.8v134.8zM3041.4 814.8c0-6-6-8-8.4-8.8v-8h54v8c-2.4.8-8 2.8-8 8.8v170.4c0 6 5.6 8 8 8.8v8h-54v-8c2.4-.8 8.4-2.8 8.4-8.8V814.8zM2716 881.6v-66.8c0-6-6-8-8.4-8.8v-8h52.4v8c-2.4.8-8 2.8-8 8.8v170.4c0 6 5.6 8 8 8.8v8h-52.4v-8c2.4-.8 8.4-2.8 8.4-8.8v-66.8h-31.6v66.8c0 6 5.6 8 8 8.8v8H2640v-8c2.4-.8 8.4-2.8 8.4-8.8V814.8c0-6-6-8-8.4-8.8v-8h52.4v8c-2.4.8-8 2.8-8 8.8v66.8h31.6zM2386.8 977.6c0 4 1.2 6.4 2 7.6v1.2c-9.6 14.8-28.8 16.4-39.2 16.4-20.4 0-64.4-1.6-64.4-109.6 0-19.6 4-96 60.4-96 12.8 0 20.8 4.8 28 9.6l5.6 30.4-8 4.4c-3.6-6.4-12-12.4-20.4-12.4-14.8 0-29.6 16.8-29.6 66.4 0 34 12 71.2 27.6 71.2h2v-49.6c0-6-6-8-8.4-8.8v-8h52.4v8c-2.4.8-8 2.8-8 8.8v60.4zM1933 798h85.6l8.4 36-8.4 3.6c-1.6-2.8-4.8-6.8-10.4-6.8h-30.8v46h21.6c8 0 8.8-6.4 9.2-7.2h7.6v48.8h-7.6c-.4-1.2-1.2-8-9.2-8h-21.6v74.8c0 7.6 7.6 8.4 8.4 8.8v8H1933v-8c.8-.4 8.4-1.2 8.4-8.8v-170c0-8-7.6-8.8-8.4-9.2v-8zM1667 834l-8 4c-1.6-2.4-5.2-7.2-10.8-7.2h-30.8v46h21.6c8 0 8.8-6.4 9.2-7.2h8v48.8h-8c-.4-.8-1.2-8-9.2-8h-21.6v58.8h30.8c2.4 0 7.2-1.6 10.8-8l8 4.8-7.6 36H1573v-8c2.4-.8 8.4-2.8 8.4-8.8v-170c0-6.4-6-8.4-8.4-9.2v-8h86.4l7.6 36zM1211.6 985.2v-170c0-8-7.6-8.8-8.4-9.2v-8h64.8c28.4 0 48.8 44 48.8 104 0 59.2-20 100-48.8 100h-64.8v-8c.8-.4 8.4-1.2 8.4-8.8zm36-16h14.8c9.6 0 17.6-29.6 17.6-72 0-39.2-8-66.4-17.6-66.4h-14.8v138.4zM939.6 806.2l7.6 33.6-7.2 3.6c-3.6-4.4-11.6-11.2-20.4-11.2-14.8 0-29.2 14-29.2 65.2 0 53.6 15.2 70.4 31.2 70.4 6.8 0 12.8-2.4 17.2-6.4l8.4 2.4-7.6 38.4h-30.8c-41.2 0-56-56.4-56-105.2 0-79.6 36-99.2 62.8-99.2 14 0 18.8 4 24 8.4zM483.6 994c.8-.4 8.4-1.2 8.4-8.8v-170c0-8-7.6-8.8-8.4-9.2v-8h54c34 0 48.4 29.6 48.4 56.4 0 15.6-4.8 29.6-13.6 37.2l-2 2 2 1.2c8.4 5.2 24 21.6 24 48.8 0 34.8-16 58.4-54 58.4h-58.8v-8zM528 879.6h13.6c7.6 0 12.4-12 12.4-24s-5.2-25.2-12.8-25.2H528v49.2zm16.8 90c10.4 0 17.2-13.6 17.2-26.8 0-13.2-6.8-27.2-17.2-27.2H528v54h16.8zM198.4 966.8c-4 2.4-11.2 4.4-18.4 4.4-7.2 0-13.2-1.2-18-3.6-1.2 12-1.6 14.4-1.6 16.4 0 8.8 7.6 9.6 8.4 10v8h-52.4v-8c2.4-.8 8.4-3.2 9.6-9.2 29.6-168.8 29.6-168.8 29.6-170 0-7.6-7.6-8.4-8.4-8.8v-8h54L234 984.4c1.6 8.4 8.8 9.2 9.6 9.6v8h-52.4v-8c.8-.4 10-1.2 10-10 0-2-.4-3.6-2.8-17.2zM180 847.2l-12.4 86c4.4 2.4 8 3.6 12.4 3.6 4 0 8-1.2 12.4-3.6l-12.4-86zM4446.4 449.6l13.2-45.6h89.2l9.6 21.6-68.8 210.4h44.8c7.6 0 12.4-8 14.4-10.8l7.6 4.4-14 46.4H4454l-12.4-21.6L4510 444h-40.8c-9.2 0-13.6 7.6-15.2 10.8l-7.6-5.2zM4218.4 404v8.8c-.8.4-9.6 1.2-12.8 13.6l-10.8 40.4-32.8 122v64.8c0 10 7.2 12.8 10.4 13.6v8.8h-64.8v-8.8c3.2-.8 10.4-3.6 10.4-13.6v-64.8L4085.2 466l-10.8-39.6c-3.2-12.4-12-13.2-12.8-13.6V404h60.8v8.8c-.8.4-10 1.2-10 10 0 .8 4.8 19.2 10 40.8l17.6 74.8 18.8-74.8c5.6-21.6 10-40 10-40.8 0-8.8-9.2-9.6-10-10V404h59.6zM3794.8 444.8c3.6-10.4 6.4-17.2 6.4-22 0-8.8-6-9.6-6.8-10V404h60v8.8c-.8.4-8.8 1.2-13.2 13.2l-41.6 114 41.6 113.6c4.4 12.4 12.4 13.2 13.2 13.6v8.8h-59.6v-8.8c.8-.4 6.8-1.2 6.8-9.2 0-6-4.4-16.4-10.8-34l-10.8-29.6-10.8 29.6c-6.4 17.6-10.8 28-10.8 34 0 8 6 8.8 6.8 9.2v8.8h-59.6v-8.8c.8-.4 8.8-1.2 13.2-13.6l41.6-113.6-41.6-114c-4.4-12-12.4-12.8-13.2-13.2V404h60v8.8c-.8.4-7.2 1.2-7.2 10 0 4.8 3.2 11.6 6.8 22l14.8 40.8 14.8-40.8zM3454.4 590l12.4-96c8.4-64.8 9.6-68 9.6-70 0-10-10-10.8-10.8-11.2V404h62.4v8.8c-.8.4-9.2 1.6-11.2 13.6L3481.6 676h-40l-21.6-79.2-21.6 79.2h-40l-35.2-249.6c-2-12-10.4-13.2-11.2-13.6V404h62.4v8.8c-.8.4-10.8 1.2-10.8 11.2 0 2 1.2 5.2 9.6 70l12.4 96 24-98.8h20.8l24 98.8zM3034.2 676l-44-249.2c-2-12-12.8-13.6-13.6-14V404h65.2v8.8c-.8.4-11.6 1.2-11.6 9.2 0 .8 8 40 14 80.8l14.4 97.6 17.2-97.6c7.2-40.8 14-80 14-80.8 0-8-10.8-8.8-11.6-9.2V404h65.2v8.8c-.8.4-11.6 2-13.6 14l-44 249.2h-51.6zM2628.8 641v-1.6c3.2-4.4 4-10 4-16.8V425.8c0-12.4-10.4-13.2-11.2-13.6v-8.8h65.6v8.8c-.8.4-10.4 1.2-10.4 13.6v196.8c0 10 10.8 18.4 23.2 18.4 12.4 0 23.2-8.4 23.2-18.4V425.8c0-12.4-9.6-13.2-10.4-13.6v-8.8h65.6v8.8c-.8.4-11.2 1.2-11.2 13.6v196.8c0 6.8.8 12.4 4 16.8v1.6c-13.6 20.4-44 35.6-71.2 35.6-27.2 0-57.6-15.2-71.2-35.6zM2306.8 677.4v-8.8c.8-.4 10.8-1.2 10.8-16.4V443.8H2294c-11.6 0-16.4 7.2-22 15.2l-7.6-4.8 16-51.6h8.4l1.2 2.8h100l1.2-2.8h8.4l16 51.6-7.6 4.8c-5.6-8-10.4-15.2-22-15.2h-24l.4 208.4c0 15.2 10 16 10.8 16.4v8.8h-66.4zM2020.8 410.6l6.4 35.2-7.6 3.2c-5.6-6-15.2-8.8-24.8-8.8-14 0-29.6 6.4-29.6 23.6 0 39.6 74 83.2 74 143.6 0 38-28.4 69.2-66.8 69.2h-42l-9.6-44.8 8-3.6c8 7.6 20.4 11.6 31.6 11.6 15.6 0 30.8-8 30.8-26.4 0-47.2-70.4-87.2-70.4-142.4 0-13.2 7.6-67.6 72-67.6 16.8 0 26 5.6 28 7.2zM1621.8 582.4h-13.6v71.2c0 12.4 9.2 13.2 10 13.6v8.8H1553v-8.8c.8-.4 11.2-1.2 11.2-13.6V426.8c0-12.8-10.4-13.6-11.2-14V404h61.6c48.4 0 72.4 44.8 72.4 90.8 0 27.6-8 58.4-27.2 73.2l16.4 86.4c2.4 11.6 9.6 12.4 10.4 12.8v8.8h-47.2l-17.6-93.6zm-13.6-36h7.6c20.8 0 31.2-27.2 31.2-52.8s-10.4-52-31.2-52h-7.6v104.8zM1312.4 661.9c3.6 0 7.2-2 9.2-4.8l7.6 3.6c-1.2 6.8-6.8 30.8-22.8 30.8-14.4 0-22-12.4-24.4-16.8-5.6 2.4-21.2 2.8-22 2.8-45.2 0-69.2-24.8-69.2-136.4 0-109.2 22.8-138 69.2-138 46.4 0 69.2 28.8 69.2 138 0 17.2-1.2 98.4-23.2 117.6 1.6 2.4 4 3.2 6.4 3.2zm-27.2-122.8c0-36.4-3.2-102.4-25.2-102.4-22.4 0-25.2 72-25.2 102.4 0 38 3.6 100.4 25.2 100.4 20.8 0 25.2-56 25.2-100.4zM833.8 404h66.4c32.8 0 66 33.6 66 92.4 0 59.6-33.2 94-66 94H889v63.2c0 12.4 8.4 13.2 9.2 13.6v8.8h-64.4v-8.8c.8-.4 11.2-1.2 11.2-13.6V426.8c0-12.8-10.4-13.6-11.2-14V404zm55.2 38.4v108h11.2c8.8 0 29.6-18.4 29.6-54 0-39.6-20.4-54-29.6-54H889zM540 402.8c46.4 0 69.2 28.8 69.2 138 0 111.2-24.4 136.4-69.2 136.4-45.2 0-69.2-24.8-69.2-136.4 0-109.2 22.8-138 69.2-138zm25.2 136c0-36.4-3.2-102.4-25.2-102.4-22.4 0-25.2 72-25.2 102.4 0 38 3.6 100.4 25.2 100.4 20.8 0 25.2-56 25.2-100.4zM201.6 504v-78.4c0-10-7.6-12.8-11.2-13.6v-8H256v8c-3.2.8-11.2 3.6-11.2 13.6v230c0 10 8 12.8 11.2 13.6v6.8h-65.6v-6.8c3.2-.8 11.2-3.6 11.2-13.6v-58l-43.2-98v156c0 10 8 12.8 11.2 13.6v6.8H104v-6.8c3.2-.8 11.2-3.6 11.2-13.6V424.4c0-10-8-12.8-11.2-13.6V404h55.2l42.4 100zM4532.4 44h57.2v8.8c-.8.4-11.2 1.2-11.2 13.6v227.2c0 12.4 10.4 13.2 11.2 13.6v8.8h-62v-8.8c.8-.4 10.8-1.2 10.8-13.6V148.4l-34.4 106h-8l-34.4-106v145.2c0 12.4 10 13.2 10.8 13.6v8.8h-62v-8.8c.8-.4 11.2-1.2 11.2-13.6V66.4c0-12.4-10.4-13.2-11.2-13.6V44h57.2l32.4 109.6L4532.4 44zM4192.4 261.6l8 5.2-9.6 49.2h-111.2v-8.8c.8-.4 11.2-1.2 11.2-13.6V66.4c0-12.4-10.4-13.2-11.2-13.6V44h67.2v8.8c-.8.4-11.2 1.2-11.2 13.6V272h42.8c7.6 0 14-10.4 14-10.4zM3852.2 44v8.8c-.8.4-10 1.6-14.4 10.8l-41.6 88.8 52.4 143.2c4 10.8 12.4 11.2 13.2 11.6v8.8H3801v-8.8c.8-.4 6.8-.8 6.8-6 0-.8-.4-2-.8-3.2l-35.2-96.8-18.4 38.8v53.6c0 12.4 10.4 13.2 11.2 13.6v8.8h-66.4v-8.8c.8-.4 11.2-1.2 11.2-13.6V66.4c0-12.4-10.4-13.2-11.2-13.6V44h66.4v8.8c-.8.4-11.2 1.2-11.2 13.6v91.2l44-92.8c.8-2 1.2-3.6 1.2-5.6 0-5.2-11.2-6-12-6.4V44h65.6zM3476.6 276.8v1.2c-7.2 9.2-34.4 38-64 38h-46.4l-9.2-46.4 7.2-1.6c7.6 9.2 19.2 12 28.4 12 18 0 34.4-10.4 34.4-32.4V66.8c0-12.8-9.2-13.6-10-14V44h66v8.8c-.8.4-11.2 1.2-11.2 14v180.8c0 19.2 2.8 25.6 4.8 29.2zM3093.6 316h-67.2v-8.8c.8-.4 11.2-1.2 11.2-13.6V64.4c0-12.4-10.4-13.2-11.2-13.6V44h67.2v6.8c-.8.4-11.2 1.2-11.2 13.6v229.2c0 12.4 10.4 13.2 11.2 13.6v8.8zM2724 66.4c0-12.4-9.6-13.2-10.4-13.6V44h65.6v8.8c-.8.4-11.2 1.2-11.2 13.6v227.2c0 12.4 10.4 13.2 11.2 13.6v8.8h-65.6v-8.8c.8-.4 10.4-1.2 10.4-13.6V200h-48v93.6c0 12.4 9.6 13.2 10.4 13.6v8.8h-65.6v-8.8c.8-.4 11.2-1.2 11.2-13.6V66.4c0-12.4-10.4-13.2-11.2-13.6V44h65.6v8.8c-.8.4-10.4 1.2-10.4 13.6V160h48V66.4zM2357.6 206.4c0-12.4-9.6-13.2-10.4-13.6V184h61.6v8.8c-.8.4-11.2 1.2-11.2 13.6v80c0 4.8 2 6.8 3.6 9.2v1.6c-12 19.2-36.4 20.4-49.6 20.4-20.4 0-80.4-1.2-80.4-147.2 0-80.4 32.4-128 73.2-128 11.6 0 25.6 3.2 36.4 12l6.8 38.8-8 4.8c-11.2-10.8-20.8-15.6-28.8-15.6-24.8 0-35.6 43.6-35.6 91.6 0 49.6 17.2 100.4 38.8 100.4h3.6v-68zM2039.6 88.8l-7.2 3.6c-2-2.8-7.6-8.4-15.6-8.4h-41.2v67.6h27.6c12.4 0 13.2-9.6 13.6-10.4h8.8V202h-8.8c-.4-.8-1.2-10.4-13.6-10.4h-27.6v102c0 12.4 10.4 13.2 11.2 13.6v8.8h-66.4v-8.8c.8-.4 11.2-1.2 11.2-13.6V66.4c0-12.4-10.4-13.2-11.2-13.6V44H2030l9.6 44.8zM1571.6 293.6V66.4c0-12.4-10.4-13.2-11.2-13.6V44H1670l9.6 44-7.2 3.6c-2-2.8-7.6-8.4-15.6-8.4h-41.2v68.4h27.6c12.4 0 13.2-9.6 13.6-10.4h8.8V202h-8.8c-.4-.8-1.2-10.4-13.6-10.4h-27.6V276h41.2c8 0 13.6-5.6 15.6-8.8l7.2 4.4-9.6 44.4h-109.6v-8.8c1.2-.4 11.2-1.2 11.2-13.6zM1189 307.2c.8-.4 11.2-1.2 11.2-13.6V66.8c0-12.8-10.4-13.6-11.2-14V44h82.8c35.2 0 59.2 55.6 59.2 136 0 85.2-24 136-59.2 136H1189v-8.8zm55.2-31.2h18.4c7.2 0 14.4-10.4 18-24.8 4.8-18.4 7.6-46.4 7.6-76.8 0-42.8-9.6-90.4-25.2-90.4h-18.8v192zM960.8 93l-7.6 4c-8.8-8.4-18.4-13.2-27.2-13.2-30.8 0-42.8 45.2-42.8 94 0 50.4 12.8 98.4 46.4 98.4 9.6 0 18.4-5.6 23.6-10l7.6 2.4-9.6 47.6h-38.4c-44.8 0-73.6-69.2-73.6-138 0-67.6 28-134.4 82.4-134.4 18.4 0 24.8 6 29.6 10.4l9.6 38.8zM469.2 308c3.2-.8 11.2-3.6 11.2-13.6V66c0-10.4-8-13.2-11.2-14v-8h68.4c38.8 0 60 36.8 60 72 0 44.4-26 58.4-26 58.4s39.2 11.2 39.2 70.8c0 35.6-18.4 70.8-67.6 70.8h-74v-8zm51.2-149.6h18.8c17.2 0 24-20.4 24-40.4s-6.8-39.6-24.4-39.6h-18.4v80zm53.6 81.2c0-22.8-11.6-46.8-36-46.8h-17.6v88.8h20.8c22.8 0 32.8-20.8 32.8-42zM208.4 268c-7.2 3.6-16 5.2-26.4 5.2-10.8 0-21.2-2-29.2-5.2l-2.4 14c-.8 5.6-1.6 10.8-1.6 12 0 12 9.6 12.8 10.4 13.2v8.8H98.4v-8.8c.8-.4 9.6-1.2 12.4-18L132 168.8 150 66c0-12-10-12.8-10.8-13.2V44H210l20.8 129.6 18.8 115.6c2.8 16.8 11.2 17.6 12 18v8.8H202v-8.8c.8-.4 10.8-1.2 10.8-12 0-1.6-.4-3.6-.8-6l-3.6-21.2zM182 104l-22.4 126c5.2 2.4 14.4 4.4 22.4 4.4s16.4-2 20.4-4.4L182 104z" class="st0"/></svg>