<svg xmlns="http://www.w3.org/2000/svg" xml:space="preserve" baseProfile="tiny" viewBox="0 0 3509.3 477.9"><path d="M0 303.4v-11.6c.7-.7 12.4-1.5 12.4-13.1V26.9C12.4 14.5.7 13.8 0 13.8V2.2h96c42.2 0 67.7 63.3 67.7 150.6 0 92.4-25.5 150.6-67.7 150.6H0zm65.5-48.1H88c14.5 0 24.7-48.7 24.7-108.4 0-52.4-9.5-96.8-24.7-96.8H65.5v205.2zM186.2 291.7c.7-.7 12.4-1.5 12.4-13.1V26.9c0-11.6-11.6-12.4-12.4-13.1V2.2h124.4l11.6 52.4-11.6 5.1c-.7-.7-5.8-9.5-16-9.5h-42.9v69.1h29.8c11.6 0 12.4-10.2 13.1-11.6h11.6V179h-11.6c-.7-.7-1.5-11.6-13.1-11.6h-29.8v87.3h42.9c9.5 0 15.3-9.5 16-10.2l11.6 7.3-11.6 51.7H186.2v-11.8zM491.8 2.2h64v11.6c-.7.7-12.4 1.5-12.4 13.1v252.4c0 11.6 11.6 12.4 12.4 13.1V304h-76.4v-11.6c.7-.7 12.4-1.5 12.4-13.1v-152l-32 109.1h-18.2l-32-109.1v152c0 11.6 11.6 12.4 12.4 13.1V304h-75.7v-11.6c.7-.7 12.4-1.5 12.4-13.1V26.9c0-11.6-11.6-12.4-12.4-13.1V2.2h64L451 124.4 491.8 2.2zM587.1 291.7c.7-.7 12.4-1.5 12.4-13.1V26.9c0-11.6-11.6-12.4-12.4-13.1V2.2h124.4l11.6 52.4-11.6 5.1c-.7-.7-5.8-9.5-16-9.5h-42.9v69.1h29.8c11.6 0 12.4-10.2 13.1-11.6h11.6V179h-11.6c-.7-.7-1.5-11.6-13.1-11.6h-29.8v87.3h42.9c9.5 0 15.3-9.5 16-10.2l11.6 7.3-11.6 51.7H587.1v-11.8zM810.4 2.2l45.8 112h1.5V26.9c0-11.6-11.6-13.1-12.4-13.1V2.2H921v11.6c-.7 0-11.6.7-11.6 13.1v252.4c0 11.6 11.6 12.4 12.4 13.1V304H846v-11.6c.7-.7 12.4-1.5 12.4-13.1v-62.6l-45.8-110.6h-1.5V280c0 11.6 11.6 12.4 12.4 13.1v11.6h-75.7v-11.6c.7-.7 12.4-1.5 12.4-13.1V26.9c0-11.6-11.6-12.4-12.4-13.1V2.2h62.6zM1074.5 2.9 1076 0h12.4l18.2 59.7L1095 67c-5.8-8.7-10.9-17.5-23.3-17.5H1047v229.9c0 11.6 11.6 12.4 12.4 13.1v11.6h-79.3v-11.6c.7-.7 12.4-1.5 12.4-13.1V49.5h-24.7c-12.4 0-17.5 8.7-23.3 17.5l-11.6-7.3L950.8 0h12.4l1.5 2.9h109.8zM1255.6 303.4c-59.7 0-81.5-82.9-81.5-155.7 0-118.6 52.4-146.2 90.9-146.2 22.6 0 29.8 8.7 34.2 12.4l11.6 45.1-11.6 5.8c-9.5-9.5-20.4-13.8-29.1-13.8-34.2 0-41.5 52.4-41.5 98.2 0 83.7 24 105.5 45.1 105.5 10.2 0 20.4-5.8 25.5-10.2l11.6 3.6-11.6 55.3h-43.6zM1481.8 154.2c0 119.3-21.8 151.3-76.4 151.3-55.3 0-76.4-31.3-76.4-151.3 0-119.3 21.8-152.8 76.4-152.8 54.6.1 76.4 34.2 76.4 152.8zm-104 0c0 66.2 9.5 107.7 27.6 107.7s27.6-40.7 27.6-107.7c0-64.7-9.5-109.8-27.6-109.8-18.1.7-27.6 45.1-27.6 109.8zM1572.1 2.2l45.8 112h1.5V26.9c0-11.6-11.6-13.1-12.4-13.1V2.2h75.7v11.6c-.7.7-12.4 1.5-12.4 13.1v252.4c0 11.6 11.6 12.4 12.4 13.1V304H1607v-11.6c.7-.7 12.4-1.5 12.4-13.1v-62.6l-45.8-110.6h-1.5V280c0 11.6 11.6 12.4 12.4 13.1v11.6h-75.7v-11.6c.7-.7 12.4-1.5 12.4-13.1V26.9c0-11.6-11.6-12.4-12.4-13.1V2.2h63.3zM1713.9 303.4v-11.6c.7-.7 12.4-1.5 12.4-13.1V26.9c0-12.4-11.6-13.1-12.4-13.8V2.2h96c42.2 0 67.7 63.3 67.7 150.6 0 92.4-25.5 150.6-67.7 150.6h-96zm65.5-48.1h22.6c14.5 0 24.7-48.7 24.7-108.4 0-52.4-9.5-96.8-24.7-96.8h-22.6v205.2zM1900.1 291.7c.7-.7 12.4-1.5 12.4-13.1V26.9c0-11.6-11.6-12.4-12.4-13.1V2.2h124.4l11.6 52.4-11.6 5.1c-.7-.7-5.8-9.5-16-9.5h-42.9v69.1h29.8c11.6 0 12.4-10.2 13.1-11.6h11.6V179h-11.6c-.7-.7-1.5-11.6-13.1-11.6h-29.8v87.3h42.9c9.5 0 15.3-9.5 16-10.2l11.6 7.3-11.6 51.7h-124.4v-11.8zM2124.2 2.2l45.8 112h1.5V26.9c0-11.6-11.6-13.1-12.4-13.1V2.2h75.7v11.6c-.7.7-12.4 1.5-12.4 13.1v252.4c0 11.6 11.6 12.4 12.4 13.1V304h-75.7v-11.6c.7-.7 12.4-1.5 12.4-13.1v-62.6l-45.8-110.6h-1.5V280c0 11.6 11.6 12.4 12.4 13.1v11.6h-75.7v-11.6c.7-.7 12.4-1.5 12.4-13.1V26.9c0-11.6-11.6-12.4-12.4-13.1V2.2h63.3zM2256.6 251l11.6-5.1c8 8 21.8 13.1 34.2 13.1 16.7 0 31.3-8 31.3-26.9 0-50.2-77.1-93.1-77.1-154.2 0-14.5 8.7-75.7 80.7-75.7 21.8 0 32.7 8.7 32.7 9.5l7.3 40.7-11.6 5.1c-5.1-6.5-16-10.2-26.9-10.2-14.5 0-29.8 6.5-29.8 23.3 0 42.2 80.7 88.8 80.7 155.7 0 42.9-32 77.8-74.9 77.8h-47.3l-10.9-53.1zM2413 291.7c.7-.7 12.4-1.5 12.4-13.1V26.9c0-11.6-11.6-12.4-12.4-13.1V2.2h124.4l11.6 52.4-11.6 5.1c-.7-.7-5.8-9.5-16-9.5h-42.9v69.1h29.8c11.6 0 12.4-10.2 13.1-11.6h11.6V179h-11.6c-.7-.7-1.5-11.6-13.1-11.6h-29.8v87.3h42.9c9.5 0 15.3-9.5 16-10.2l11.6 7.3-11.6 51.7H2413v-11.8zM2573.8 303.4v-11.6c.7-.7 12.4-1.5 12.4-13.1V26.9c0-12.4-11.6-13.1-12.4-13.8V2.2h96c42.2 0 67.7 63.3 67.7 150.6 0 92.4-25.5 150.6-67.7 150.6h-96zm65.4-48.1h22.6c14.5 0 24.7-48.7 24.7-108.4 0-52.4-9.5-96.8-24.7-96.8h-22.6v205.2zM2832 303.4v-11.6c.7-.7 12.4-1.5 12.4-13.1V26.9c0-12.4-11.6-13.1-12.4-13.8V2.2h77.8c48.7 0 69.8 43.6 69.8 82.9 0 25.5-8.7 48.7-24.7 58.2 8 2.2 38.6 26.2 38.6 73.5 0 51.7-22.6 85.8-77.1 85.8H2832v.8zm64-253.9V123h20.4c10.9 0 18.2-17.5 18.2-35.6 0-18.9-7.3-37.8-18.9-37.8 0-.1-19.7-.1-19.7-.1zm24.8 206.6c16 0 23.3-20.4 23.3-40 0-20.4-8-40-23.3-40H2896v80h24.8zM3166.7 154.2c0 119.3-21.8 151.3-76.4 151.3-55.3 0-76.4-31.3-76.4-151.3 0-119.3 21.8-152.8 76.4-152.8 54.5.1 76.4 34.2 76.4 152.8zm-104.1 0c0 66.2 9.5 107.7 27.6 107.7s27.6-40.7 27.6-107.7c0-64.7-9.5-109.8-27.6-109.8-18.1.7-27.6 45.1-27.6 109.8zM3302.7 250.2c8.7 0 14.5-10.9 15.3-11.6l11.6 8-11.6 56.7h-125.1v-11.6c.7-.7 12.4-1.5 12.4-13.1V26.9c0-11.6-11.6-12.4-12.4-13.1V2.2h77.8v11.6c-.7.7-12.4 1.5-12.4 13.1v223.3h44.4zM3345.6 303.4v-11.6c.7-.7 12.4-1.5 12.4-13.1V26.9c0-12.4-11.6-13.1-12.4-13.8V2.2h96c42.2 0 67.7 63.3 67.7 150.6 0 92.4-25.5 150.6-67.7 150.6h-96zm65.5-48.1h22.6c14.5 0 24.7-48.7 24.7-108.4 0-52.4-9.5-96.8-24.7-96.8h-22.6v205.2z"/><path fill="#F33" d="M797.3 452.5v-2.9l951.5-25.5h1.5l950.8 25.5v2.9L1750.3 478h-1.5l-951.5-25.5z"/></svg>