<svg xmlns="http://www.w3.org/2000/svg" xml:space="preserve" baseProfile="tiny" viewBox="0 0 3509.3 583"><path fill="#4E1300" d="M0 389.7c1.2-.6 16.4-1.8 16.4-19.9V37.5C16.4 18.8 1.2 17.6 0 17V4.1h121.3c51.6 0 86.7 81.4 86.7 199.2 0 124.8-35.2 199.2-86.7 199.2H0v-12.8zm80.9-43.4h27c10.5 0 21.1-17.6 26.4-38.7 7-27 12.9-68 12.9-112.5 0-62.7-15.8-134.8-38.7-134.8H80.9v286zM256.6 369.7V36.9c0-18.2-15.2-19.3-16.4-19.9V4.1h160.6l14.1 63.3-10.5 5.3c-2.9-4.1-11.1-12.3-22.9-12.3h-60.4v102.5h40.4c18.2 0 19.3-14.1 19.9-15.2h12.9v86.7h-12.9c-.6-1.2-1.8-15.2-19.9-15.2h-40.4v127.2h60.4c11.7 0 19.9-8.2 22.9-12.9l10.5 6.4-14.1 62.7H240.2v-12.9c1.8-.6 16.4-1.8 16.4-20zM625.8 4.1h83.8V17c-1.2.6-16.4 1.8-16.4 19.9v332.8c0 18.2 15.2 19.3 16.4 19.9v12.9h-90.8v-12.9c1.2-.6 15.8-1.8 15.8-19.9V157l-50.4 155.3h-11.7L522.1 157v212.7c0 18.2 14.6 19.3 15.8 19.9v12.9h-90.8v-12.9c1.2-.6 16.4-1.8 16.4-19.9V36.9c0-18.2-15.2-19.3-16.4-19.9V4.1h83.8l47.5 160.6L625.8 4.1zM767 369.7V36.9c0-18.2-15.2-19.3-16.4-19.9V4.1h160.6l14.1 63.3-10.5 5.3c-2.9-4.1-11.1-12.3-22.9-12.3h-60.4v102.5h40.4c18.2 0 19.3-14.1 19.9-15.2h12.9v86.7h-12.9c-.6-1.2-1.8-15.2-19.9-15.2h-40.4v127.2h60.4c11.7 0 19.9-8.2 22.9-12.9l10.5 6.4-14.1 62.7H750.6v-12.9c1.8-.6 16.4-1.8 16.4-20zM1102.8 150.6V35.7c0-14.6-11.1-18.8-16.4-19.9V4.1h93.8v11.7c-4.7 1.2-16.4 5.3-16.4 19.9v336.9c0 14.6 11.7 18.8 16.4 19.9v10h-93.8v-10c4.7-1.2 16.4-5.3 16.4-19.9v-85l-68-143.6v228.5c0 14.6 11.7 18.8 16.4 19.9v10h-93.8v-10c4.7-1.2 16.4-5.3 16.4-19.9V34c0-14.6-11.7-18.8-16.4-19.9v-10h78.5l66.9 146.5zM1256.9 402.6v-12.9c1.2-.6 15.8-1.8 15.8-24V61.5h-34.6c-17 0-24 10.5-32.2 22.3l-11.1-7L1218.2 0h12.3l1.8 4.1h145.9L1380 0h12.3l23.4 76.8-11.1 7c-8.2-11.7-15.2-22.3-32.2-22.3h-35.2v304.1c0 22.3 15.2 23.4 16.4 24v12.9h-96.7zM1676.4 75.6l-11.1 5.9c-12.9-12.3-27-19.3-39.8-19.3-45.1 0-62.7 66.2-62.7 137.7 0 73.8 18.8 144.1 68 144.1 14.1 0 27-8.2 34.6-14.6l11.1 3.5-14.1 69.7h-56.3c-65.6 0-107.8-101.4-107.8-202.2 0-99 41-196.9 120.7-196.9 27 0 36.3 8.8 43.4 15.2l14 56.9zM1798.3 2.3c68 0 101.4 42.2 101.4 202.2 0 162.9-35.7 199.8-101.4 199.8-66.2 0-101.4-36.3-101.4-199.8 0-160 33.4-202.2 101.4-202.2zm36.9 199.3c0-53.3-4.7-150-36.9-150-32.8 0-36.9 105.5-36.9 150 0 55.7 5.3 147.1 36.9 147.1 30.5 0 36.9-82.1 36.9-147.1zM2074.3 150.6V35.7c0-14.6-11.1-18.8-16.4-19.9V4.1h93.8v11.7c-4.7 1.2-16.4 5.3-16.4 19.9v336.9c0 14.6 11.7 18.8 16.4 19.9v10h-93.8v-10c4.7-1.2 16.4-5.3 16.4-19.9v-85l-68-143.6v228.5c0 14.6 11.7 18.8 16.4 19.9v10H1929v-10c4.7-1.2 16.4-5.3 16.4-19.9V34c0-14.6-11.7-18.8-16.4-19.9v-10h78.5l66.8 146.5zM2192.7 389.7c1.2-.6 16.4-1.8 16.4-19.9V37.5c0-18.8-15.2-19.9-16.4-20.5V4.1H2314c51.6 0 86.7 81.4 86.7 199.2 0 124.8-35.2 199.2-86.7 199.2h-121.3v-12.8zm80.8-43.4h27c10.5 0 21.1-17.6 26.4-38.7 7-27 12.9-68 12.9-112.5 0-62.7-15.8-134.8-38.7-134.8h-27.5v286zM2449.3 369.7V36.9c0-18.2-15.2-19.3-16.4-19.9V4.1h160.6l14.1 63.3-10.5 5.3c-2.9-4.1-11.1-12.3-22.9-12.3h-60.4v102.5h40.4c18.2 0 19.3-14.1 19.9-15.2h12.9v86.7h-12.9c-.6-1.2-1.8-15.2-19.9-15.2h-40.4v127.2h60.4c11.7 0 19.9-8.2 22.9-12.9l10.5 6.4-14.1 62.7h-160.6v-12.9c1.7-.6 16.4-1.8 16.4-20zM2785.1 150.6V35.7c0-14.6-11.1-18.8-16.4-19.9V4.1h93.8v11.7c-4.7 1.2-16.4 5.3-16.4 19.9v336.9c0 14.6 11.7 18.8 16.4 19.9v10h-93.8v-10c4.7-1.2 16.4-5.3 16.4-19.9v-85l-68-143.6v228.5c0 14.6 11.7 18.8 16.4 19.9v10h-93.8v-10c4.7-1.2 16.4-5.3 16.4-19.9V34c0-14.6-11.7-18.8-16.4-19.9v-10h78.5l66.9 146.5zM3038.2 12.9l9.4 51.6-11.1 4.7c-8.2-8.8-22.3-12.9-36.3-12.9-20.5 0-43.4 9.4-43.4 34.6 0 58 108.4 121.9 108.4 210.4 0 55.7-41.6 101.4-97.9 101.4h-61.5l-14.1-65.6 11.7-5.3c11.7 11.1 29.9 17 46.3 17 22.9 0 45.1-11.7 45.1-38.7 0-69.1-103.1-127.7-103.1-208.6 0-19.3 11.1-99 105.5-99 24.6-.2 38.1 8 41 10.4zM3110.8 369.7V36.9c0-18.2-15.2-19.3-16.4-19.9V4.1H3255l14.1 63.3-10.5 5.3c-2.9-4.1-11.1-12.3-22.9-12.3h-60.4v102.5h40.4c18.2 0 19.3-14.1 19.9-15.2h12.9v86.7h-12.9c-.6-1.2-1.8-15.2-19.9-15.2h-40.4v127.2h60.4c11.7 0 19.9-8.2 22.9-12.9l10.5 6.4-14.1 62.7h-160.6v-12.9c1.8-.6 16.4-1.8 16.4-20zM3301.3 389.7c1.2-.6 16.4-1.8 16.4-19.9V37.5c0-18.8-15.2-19.9-16.4-20.5V4.1h121.3c51.6 0 86.7 81.4 86.7 199.2 0 124.8-35.2 199.2-86.7 199.2h-121.3v-12.8zm80.8-43.4h27c10.5 0 21.1-17.6 26.4-38.7 7-27 12.9-68 12.9-112.5 0-62.7-15.8-134.8-38.7-134.8h-27.5v286z"/><path fill="#A02B20" d="m2790.4 553.2-1039 29.8h-2.3l-1039-29.8v-3.5L1749 519.8h2.3l1038.9 29.9v3.5z"/></svg>