<svg xmlns="http://www.w3.org/2000/svg" xml:space="preserve" id="Layer_1" x="0" y="0" style="enable-background:new 0 0 4680 2520" version="1.1" viewBox="0 0 4680 2520"><style>.st0{enable-background:new}</style><path d="m4544.8 2099.2-116.5-238.4h26.9l116.5 238.4h-26.9zM4131.2 2098.4v-236.8h17.6v236.8h-17.6zM3822.2 1860.8h25.3l-109.8 238.4h-25.3l109.8-238.4zM3395.4 2100c24-3.5 26.2-8.3 26.2-38.4v-163.2c0-30.1-1.6-34.6-25.9-38.4v-9.6h49v259.2h-49.3v-9.6zM3035.4 2109.6v-259.2h49v9.6c-24.3 3.8-26.2 8.3-26.2 38.4l.3 163.2c0 30.1 2.2 34.9 26.2 38.4v9.6h-49.3zM2711.5 2005.9v61.1c0 32-12.5 44.8-44.8 44.8h-.6v-8c16-2.2 23.7-8 23.7-26.6V2012c0-16.6 4.8-23 25.6-32-20.8-9-25.6-15.4-25.6-32v-65.3c0-18.6-7.7-24.3-23.7-26.6v-8h.6c32.3 0 44.8 12.8 44.8 44.8v61.1c0 14.7 9 19.8 22.4 21.8v8.3c-13.4 2-22.4 7.1-22.4 21.8zM2306.1 1975.8c13.4-1.9 22.4-7 22.4-21.8v-61c0-32 12.5-44.8 44.8-44.8h.6v8c-16 2.2-23.7 8-23.7 26.6v65.3c0 16.6-4.8 23-25.6 32 20.8 9 25.6 15.4 25.6 32v65.3c0 18.6 7.7 24.3 23.7 26.6v8h-.6c-32.3 0-44.8-12.8-44.8-44.8v-61.1c0-14.7-9-19.8-22.4-21.8v-8.5zM1941 1852.3l5.4-6.1c40.3 14.1 72.6 75.2 72.6 133.8 0 58.6-32.3 119.7-72.6 133.8l-5.4-6.1c39-28.8 51.2-78.1 51.2-127.7 0-83.2-34.3-115.2-51.2-127.7zM1659 2107.7l-5.4 6.1c-40.3-14.1-72.6-75.2-72.6-133.8 0-58.6 32.3-119.7 72.6-133.8l5.4 6.1c-17 12.5-51.2 44.5-51.2 127.7 0 49.6 12.2 98.9 51.2 127.7zM1275.5 1920.5c29.1 0 36.5 16.6 36.5 30.7 0 2.6 0 5.1-.6 7.7l-9.3 48.3c-.3 1.3-.3 3.2-.3 4.5 0 8.3 6.1 11.8 11.2 11.8 13.8 0 36.5-21.1 36.5-55.4 0-33.9-22.4-74.2-78.7-74.2-57 0-95.7 41.3-95.7 93.1 0 48.3 33.3 83.2 83.5 83.2 9.3 0 44.2-1.3 74.9-21.4l8.6 12.8c-14.7 10.2-49.3 26.2-88 26.2-63.4 0-105.3-44.2-105.3-103 0-64.6 51.2-112.6 120.6-112.6 55.4.3 101.8 32.3 101.8 91.8 0 54.4-38.4 76.8-66.6 76.8-13.8 0-25.3-5.4-27.8-15-12.8 10.6-25.9 15-37.8 15-19.5 0-33.9-11.8-33.9-27.2 0-33.9 44.5-50.6 81.9-50.9l2.2-10.2c0-4.5 0-17-19.5-17-11.5 0-22.1 4.5-23 9.9l-.6 2.9c-1.3 8.3-7.7 12.8-14.4 12.8-5.8 0-10.6-3.5-10.6-10.6 0-15.9 24.3-30 54.4-30zm-42.9 92.1c0 6.4 3.8 10.9 13.1 10.9 8.3 0 18.6-3.8 33-16l5.8-30.4c-35.5.7-51.9 22.7-51.9 35.5zM892.3 2035.2h-19.2V1977c48 0 66.9-16 66.9-46.1 0-23.7-19.8-48-48.3-48-12.5 0-22.7 5.1-26.9 13.8-3.5 7.4-6.4 19.2-17.3 19.2-9.3 0-17-7-17-16.3 0-17.6 27.5-32.6 59.5-32.6 53.1 0 79.4 35.2 79.4 70.4 0 34.6-25.9 69.1-77.1 69.1v28.7zm-9.6 21.4c9.9 0 17.9 8 17.9 18.2s-8 18.2-17.9 18.2c-9.9 0-17.9-8-17.9-18.2s8-18.2 17.9-18.2zM560.5 1894.4c0 16.6-11.8 87-11.8 131.2v9.6h-17.3v-9.6c0-44.2-11.8-114.6-11.8-130.9 0-13.1 7.7-23.7 20.8-23.7 12.7 0 20.1 10.3 20.1 23.4zm-20.2 158.1c9.9 0 17.9 8 17.9 18.2s-8 18.2-17.9 18.2-17.9-8-17.9-18.2 8-18.2 17.9-18.2zM256.8 1956.5h-33l-6.4 42.6h31.7v20.2h-33.9l-10.6 71h-19.2l9.9-71H156l-10.2 71h-19.5l9.9-71h-33V1999H139l6.1-42.6h-34.2v-19.8h36.8l9.6-66.9h19.5l-9.6 66.9h39.7l9.6-66.9h19.2l-9 66.9h30.1v19.9zm-52.8 0h-39.4l-6.4 42.6h39.7l6.1-42.6zM4481 1790.2c7.7-5.1 14.1-13.1 20.2-25.6-9.9 0-17.9-8-17.9-18.2s8-18.2 18.2-18.2 17.6 8 17.6 19.5c0 17-17 40-35.8 48.6l-2.3-6.1zm20.1-175.4c9.9 0 17.9 8.6 17.9 18.9s-8 18.2-17.9 18.2c-9.9 0-17.9-8-17.9-18.2s8-18.9 17.9-18.9zM4140 1614.8c9.9 0 17.9 8.6 17.9 18.9s-8 18.2-17.9 18.2-17.9-8-17.9-18.2 8-18.9 17.9-18.9zm0 112.7c9.9 0 17.9 8 17.9 18.2s-8 18.2-17.9 18.2-17.9-8-17.9-18.2 8-18.2 17.9-18.2zM3765.6 1508.4l-6.7 42.6h-6.1l-6.1-42.6c-1.6-10.6-1.9-13.4-1.9-15 0-8.6 4.5-15.4 11.5-15.4 6.7 0 11.8 6.7 11.8 14.1.1 3.2-1.2 8-2.5 16.3zm47 0-6.7 42.6h-6.1l-6.1-42.6c-1.6-10.6-1.9-13.4-1.9-15 0-8.6 4.8-15.4 11.8-15.4 6.7 0 11.5 6.7 11.5 14.1.1 3.2-1.2 8-2.5 16.3zM3429.3 1508.4l-7 42.6h-5.8l-6.1-42.6c-1.6-10.6-2.2-13.4-2.2-15 0-8.6 4.8-15.4 11.8-15.4 6.7 0 11.8 6.7 11.8 14.1 0 3.2-1.2 8-2.5 16.3zM3057.8 1491.7l44.5 30.4-3.2 6.7-51.2-15.7c-12.8-3.8-16.3-4.5-17.9-5.4-7.7-3.5-12.2-9.9-12.2-16 0-7 5.8-13.8 14.4-13.8 2.9 0 5.4 1 8.3 2.2 3.5 1.7 8.6 5.9 17.3 11.6zM2705.1 1633.4l-15.4-6.7c-11.8-5.4-14.7-6.4-20.8-6.4-10.9 0-13.8 3.5-27.8 27.8l-12.5-15c14.4-26.6 25-37.1 40.3-37.1 6.7 0 14.4 2.2 22.4 6.1l18.2 8.3c11.2 5.1 16.3 6.7 21.1 6.7 11.5 0 19.2-9.6 27.8-25.3l12.8 15c-5.4 10.9-19.5 34.6-40.6 34.6-6 0-13.6-2.5-25.5-8zM2359.7 1508.4l-12.8 2.6v3.5l12.5 2.2c6.4 1.3 9.6 3.8 9.6 8 0 5.1-4.2 9.6-8.3 9.6-2.2 0-4.2-1.3-7.7-5.4l-8.3-10.6-2.9 1.6 5.1 12.8c.6 1.6 1 3.8 1 5.8 0 5.1-3.5 8.3-8 8.3-4.8 0-8-3.2-8-8 0-1.6.3-3.5 1.3-6.1l4.5-12.8-2.9-1.9-8 10.6c-2.9 4.2-5.1 5.8-7.7 5.8-4.2 0-8-4.8-8-9.9 0-4.2 2.9-6.7 9.3-8l12.8-2.6v-3.5l-12.5-1.9c-6.1-1.3-9.6-4.2-9.6-8.6 0-4.8 3.8-9.3 8-9.3 2.6 0 5.1 1.6 8.3 5.4l8 10.6 2.9-1.6-5.1-12.8c-1-2.9-1.3-5.1-1.3-6.7 0-4.2 3.5-7.4 8-7.4 4.8 0 8.3 3.2 8.3 8 0 1.6-.3 3.8-1.3 6.1l-4.5 12.8 2.9 1.9 8-10.6c2.6-3.5 5.1-5.4 7.7-5.4 4.2 0 8 4.5 8 9.6 0 4.1-2.9 6.6-9.3 7.9zM2025.4 1605.7l-45.4-97.9-45.4 97.9h-23.4l57.3-127.7h23l57.3 127.7h-23.4zM1556 1582.2h128v19.2h-128v-19.2zm0 56.4h128v19.2h-128v-19.2zM1296 1629.6h-72v-19.2h72v19.2zM890.4 1556h19.2v54.4H964v19.2h-54.4v54.4h-19.2v-54.4H836v-19.2h54.4V1556zM607.5 1628.3l-135 102.7v-31.4l105-79.7-105-79.7V1509l135 102.7v16.6zM247.5 1509v31.4l-105 79.7 105 79.7v31.4l-135-102.7v-16.6l135-102.9zM825.8 2365.9c-30.4 0-51.5-29.4-51.5-70.7 0-41.6 21.4-70.7 51.8-70.7 30.1 0 51.2 28.5 51.2 70.1 0 41.5-21.1 71.3-51.5 71.3zm1.2-128.6c-18.2 0-29.8 21.8-29.8 59.2 0 36.2 10.2 56 28.5 56 17.9 0 28.5-20.2 28.5-58.2 0-37.5-9.9-57-27.2-57zm-4.1 214.4 137.6-227.2H979l-137.3 227.2h-18.8zm151.3 3.8c-30.4 0-52.2-28.8-52.2-70.1 0-41.6 22.1-72 52.5-72 30.1 0 51.2 29.8 51.2 71.4.1 41.9-21.1 70.7-51.5 70.7zm1.3-128.6c-18.2 0-29.8 22.4-29.8 59.8 0 35.8 10.2 55.4 28.5 55.4 17.9 0 28.5-20.2 28.5-57.9 0-37.5-10.2-57.3-27.2-57.3zM536.6 2439.4v-89.9c-44.5-18.6-61.4-35.5-61.4-61.8 0-34.6 29.1-65.6 61.4-65.6v-18.6h11.5v19.5c7.7 0 14.7 2.6 24 8.6l3.5-12.2h10.6l17.9 60.8-9.3 3.8c-10.6-28.5-27.8-44.8-46.7-44.8v80c46.1 20.8 67.5 44.8 67.5 75.2 0 34.9-28.5 61.1-66.6 61.1h-1v20.8h-11.5v-21.8c-13.8-2.6-27.5-9.3-40-19.8l-3.8 11.8h-10.6l-17.9-60.5 9.3-3.8c13.9 32.2 35.6 51.7 63.1 57.2zm-34.2-159.7c0 16 7.7 24 34.2 34.6v-74.9c-18.8-.1-34.2 17.5-34.2 40.3zm86.1 120.3c0-17.3-14.7-33.9-40.3-45.8v85.4c20.4.1 40.3-19.4 40.3-39.6zM261 2451.5c-27.8 0-36.8-4.8-48.3-25.6-21.8 21.8-38.7 29.8-62.7 29.8-46.1 0-79.4-29.4-79.4-70.1 0-31 19.2-53.1 57-65.9-13.8-14.4-20.5-29.4-20.5-45.4 0-28.5 21.8-49.9 51.2-49.9 26.9 0 45.8 17.6 45.8 42.2 0 22.7-16.3 43.8-41 53.1 23.4 20.2 43.8 43.5 59.8 67.5 8.6-13.4 13.8-28.5 13.8-45.4 0-16.3-4.8-23-24-26.9v-9.6H283v9.6c-23.4 4.5-27.2 8.3-31.4 31-4.5 23.7-10.9 40.6-21.1 56.3 21.1 34.6 27.5 39.7 58.9 39.7v9.6H261zm-124.8-120.9c-25.3 8.6-35.5 22.4-35.5 48 0 37.1 21.4 61.1 54.4 61.1 19.8 0 35.8-8.6 51.2-27.8-19.3-32.4-43.3-60.2-70.1-81.3zm22.7-93.5c-15.4 0-26.2 13.1-26.2 30.4 0 12.8 6.1 25.3 20.5 41.9 20.8-10.9 30.4-24.3 30.4-42.2-.1-18.2-10-30.1-24.7-30.1zM4499.7 2458.4c-44.8 0-76.2-47.7-76.2-115.8 0-69.4 33-121 77.8-121 43.8 0 75.2 49.3 75.2 118.4 0 69.8-31.7 118.4-76.8 118.4zm2.5-219.5c-29.1 0-47.4 39-47.4 104.6 0 62.7 16.6 97.6 45.1 97.6 28.8 0 45.1-35.5 45.1-102.1.1-64.9-15.2-100.1-42.8-100.1zM4215.2 2316c0 62.7-41.3 117.4-122.2 142.4-4.8-12.5-4.8-12.5-5.8-15 47-11.8 94.7-61.1 94.7-96.3-10.6 16.3-29.1 25.6-50.6 25.6-39 0-66.6-31-66.6-74.9 0-45.1 29.1-76.2 71.4-76.2 46.8 0 79.1 38.4 79.1 94.4zm-78.1 38.1c17.3 0 38.4-13.4 44.8-29.1 1.3-2.9 1.3-5.1 1.3-10.6 0-42.2-21.8-75.5-49-75.5-22.4 0-38.7 22.7-38.7 56 0 34.5 17.9 59.2 41.6 59.2zM3704.8 2392.8c0-26.9 14.7-44.8 46.1-56.3-25.3-12.5-35.8-27.5-35.8-50.9 0-38.1 27.5-64 67.8-64 38.1 0 64.6 23 64.6 55.7 0 23.4-13.4 38.7-41 47.7 35.5 15.7 48.6 32.3 48.6 59.5 0 42.9-32.6 73.9-77.8 73.9-42.1 0-72.5-27.2-72.5-65.6zm74.6 51.5c31 0 50.2-20.8 50.2-54.7 0-19.8-6.4-24.3-64-46.7-23.7 11.2-35.2 27.8-35.2 51.5 0 30.7 19.2 49.9 49 49.9zm-38.8-165.1c0 17 8 23.4 50.6 39.4 20.8-5.8 32.6-21.1 32.6-41.6 0-24-17-41.3-41-41.3-24.6 0-42.2 18.5-42.2 43.5zM3379.4 2453.9c.6-2.6 9.6-100.2 90.9-199.7h-70.4c-29.1 0-35.5 5.8-43.2 32h-10.2l9.6-60.2h134.7l2.9 21.4c-1.6 1.6-77.4 100.2-77.4 206.4h-36.9zM2984.8 2364c0-62.7 41.3-117.4 122.2-142.4 4.8 12.5 4.8 12.5 5.8 15-47 11.8-94.7 61.1-94.7 96.3 10.6-16.3 29.1-25.6 50.6-25.6 39 0 66.6 31 66.6 74.9 0 45.1-29.1 76.2-71.4 76.2-46.8 0-79.1-38.4-79.1-94.4zm78.1-38.1c-17.3 0-38.4 13.4-44.8 29.1-1.3 2.9-1.3 5.1-1.3 10.6 0 42.2 21.8 75.5 49 75.5 22.4 0 38.7-22.7 38.7-56 0-34.6-17.9-59.2-41.6-59.2zM2657.8 2418.7c0 12.2 14.7 21.1 33.9 21.1 29.4 0 51.2-22.1 51.2-55 0-34.9-24-62.7-51.2-62.7-19.2 0-31.7 12.2-39.7 25.3l-15-3.2 25.6-120h97v28.2h-87.7l-13.8 64.6c9.9-8.6 23.4-13.4 39.7-13.4 44.2 0 75.8 32 75.8 76.2 0 45.1-32.6 76.2-78.7 76.2-37.8 0-68.5-21.1-68.5-47.4 0-13.1 7.7-23.7 17.6-23.7 9 0 16.3 8.6 16.3 18.6 0 5.6-2.5 9.8-2.5 15.2zM2415.8 2391.8h-32.6v62.1H2355v-62.1h-86.7l-4.2-14.1L2355 2226h28.2v146h32.6v19.8zm-60.8-136.9-69.8 117.1h69.8v-117.1zM1935.8 2417.1c0 14.1 17.6 25.3 38.1 25.3 27.8 0 47-21.4 47-52.5 0-15.4-4.8-53.8-50.6-53.8h-14.7V2322h14.1c24.6 0 43.5-18.2 43.5-42.9 0-22.4-16.3-38.4-39-38.4-17 0-36.2 10.2-41.3 26.2h-16l.3-.6c6.1-27.2 30.1-44.8 61.8-44.8 37.4 0 65 24 65 55.4 0 23.7-17.3 44.2-38.4 50.2 27.5 7.4 49.3 29.1 49.3 59.8 0 42.6-33.6 71.4-79.4 71.4-40 0-70.4-22.4-70.4-50.6 0-13.8 7.7-24.3 17.6-24.3 8.6 0 15.7 8 15.7 18.2 0 6.5-2.6 10.1-2.6 15.5zM1546.1 2456.5v-24.3c59.8-44.2 109.4-113 109.4-147.2 0-25-17-41-42.2-41-12.5 0-33.9 3.5-47.7 25h-16c9.3-30.1 39-45.4 68.2-45.4 39.4 0 68.5 26.6 68.5 62.7 0 46.1-61.4 113-98.2 143.4h51.2c25.3 0 31.4-4.2 40.6-30.1l2.6-7.7v-.6l11.5 3.5-12.2 61.8h-135.7zM1215.8 2247.8V2235c18.6-2.6 33-4.8 46.1-10.2h11.5V2404c0 30.1 6.7 34.9 30.7 38.4v12.8h-88.3v-12.8c24.3-3.8 30.7-8.3 30.7-38.4v-132.2c.1-19.8-12.4-21.7-30.7-24zM4437.3 1249.1l-8.3-2.9 15.7-45.8H4563l7.7 13.4-102.4 138.2c8.6 4.8 22.1 7 39.4 7 33.9 0 50.2-15.4 58.9-33.9l8.3 2.9-16.3 45.8h-126.4l-7-10.6 104.3-140.8c-14.7-7-30.4-7.4-38.4-7.4-24.1.2-41.7 12-53.8 34.1zM4175.2 1373.9h-67.8v-8.3c21.4-2.6 21.8-7.7 21.8-28.2v-33.3l-41.3-69.1c-12.8-21.1-14.7-24.3-24.6-26.2v-8.3h65.9v8.3c-.3.3-14.4.3-14.4 12.5 0 4.2 1.9 10.2 6.4 17.9l24 40.3 22.4-40.3c4.8-8.3 6.4-14.4 6.4-18.9 0-11.5-11.2-11.2-11.5-11.5v-8.3h54.4v8.3c-10.6 2.2-16 8-27.5 28.8l-34.6 62.1v35.5c0 22.7 1.6 27.5 20.5 30.4v8.3zM3802.9 1365.6c.6-.3 9.3 0 9.3-8.3 0-4.5-2.6-11.5-10.6-22.4l-24.6-33.6-27.8 33.6c-8.3 10.2-11.2 17-11.2 21.4 0 9.3 10.9 9 11.2 9.3v8.3h-56v-8.3c5.1-1.3 8.6-.3 26.2-21.8l47-57-37.1-50.9c-19.2-26.6-24-26.6-27.8-27.2v-8.3h64v8.3c-.3.3-10.9 0-10.9 9 0 4.5 3.5 11.2 11.2 21.8l18.6 25.6 21.1-25.6c9-10.9 12.2-17.3 12.2-21.8-.3-8.6-12.2-8.6-12.5-9v-8.3h55.7v8.3c-4.2.6-8.3.6-31.4 28.8l-34.6 41.9 49 66.6c13.4 18.6 18.9 18.9 23 19.5v8.3h-64v-8.2zM3543.8 1208.8c-11.2 2.2-17 7-24.6 29.4l-46.4 135.7h-22.1l-31-92.8-33 92.8h-20.8l-46.7-135.7c-7.7-22.4-12.8-27.2-23-29.4v-8.3h64v8.3c-.6.3-14.4 0-14.4 15.7 0 3.8.6 9 2.9 15l33.3 96.3 28.8-81.3-5.4-16.3c-7.7-23-13.1-27.2-21.4-29.4v-8.3h62.7v8.3c-.6.3-15.4 0-15.4 16.3 0 3.8 1 8.6 2.9 14.4l33.3 99.2 33.6-98.2c2.2-6.7 3.2-11.8 3.2-16 0-15.7-12.8-15.4-13.4-15.7v-8.3h53.1v8.3zM3065.8 1343.2l38.4-102.4c2.6-6.7 3.5-11.8 3.5-16 0-16-15-15.7-15.7-16v-8.3h53.8v8.3c-8.6 2.2-14.7 7-23 29.4l-50.9 135.7h-24.3l-50.9-135.7c-9-24-13.4-27.5-22.4-29.4v-8.3h64v8.3c-.6.3-15 0-15 15.7 0 3.8 1 9 3.2 15l39.3 103.7zM2619 1199.8h63.4v8.3c-16 2.9-17.9 6.1-17.9 29.8v65.3c0 47.4 8 59.2 38.1 59.2 31.4 0 39.4-12.8 39.4-59.8V1238c0-23.7-1.9-26.9-17.9-29.8v-8.3h57v8.3c-16 3.2-17.9 6.4-17.9 30.4v84.8c0 36.2-19.8 53.8-61.8 53.8-42.2 0-63.7-17.9-63.7-53.4v-85.1c0-23.4-2.2-27.2-18.6-30.4v-8.5zM2308.5 1373.9v-8.3c16.6-2.9 17.9-7.4 17.9-29.8v-106.9c0-10.9-4.5-11.2-17-11.2-17 0-29.4 1.9-34.9 14.7l-8.3-2.9 15.7-34.2h5.1c3.8 5.1 4.5 5.1 14.1 5.1h78.1c9.6 0 10.2 0 14.1-5.1h5.1l15.7 34.2-8.3 2.9c-5.4-12.8-17.9-14.7-34.9-14.7-12.5 0-17 .3-17 11.2v106.9c0 22.4 1.3 26.9 17.9 29.8v8.3h-63.3zM2020.5 1199.8l14.1 46.7-8.3 2.6c-14.4-25-33.9-33.3-51.2-33.3-18.2 0-33 9.6-33 19.8s9.3 19.5 29.8 25l25 7.7c39.4 11.2 55.4 33 55.4 53.1 0 36.8-35.5 56.3-70.1 56.3-16.6 0-32-4.8-41.3-14.7l-6.1 10.9h-8.6l-18.2-58.2 8-2.6c16.3 33.6 41.9 45.4 64 45.4 23.4 0 42.9-13.4 42.9-28.8 0-12.2-9.9-22.7-29.8-28.2l-27.5-8.3c-38.7-11.2-52.8-30.4-52.8-48 0-25 25.6-48.6 56.3-48.6 20.8 0 33.9 6.4 40 11.5l3.2-8.3h8.2zM1555.4 1238.8c0-22.7-2.2-27.5-17.9-30.1v-8.3h78.7c51.5 0 67.8 25.6 67.8 49.9 0 13.4-5.4 35.2-39 47l35.5 52.8c6.7 9.9 12.8 13.8 22.1 15.4v8.3h-40.3l-47.7-71h-32.3v35.2c0 19.8 0 24.6 20.5 27.5v8.3h-65.3v-8.3c16.6-2.9 17.9-7.7 17.9-30.1v-96.6zm26.8.7v47.4h28.2c34.9 0 47.4-17 47.4-36.8 0-21.8-17-34.9-54.4-34.9-21.2 0-21.2 3.5-21.2 24.3zM1176.2 1288c0-51.2 35.5-89.3 83.8-89.3s83.8 38.1 83.8 90.2c0 34.9-16 65.6-44.2 80-4.2 2.2-5.1 2.2-5.1 10.6 0 16.3 9.9 26.6 23 26.6 10.2 0 17.3-6.4 17.9-16.6h8.3c0 4.8-1.6 35.8-34.6 35.8-24.6 0-43.5-19.8-43.5-45.8h-5.8c-47.2 0-83.6-39.7-83.6-91.5zm136.3 2.9c0-44.2-21.4-74.9-52.5-74.9s-52.5 30.7-52.5 74.9c0 43.2 20.5 71 52.5 71s52.5-27.8 52.5-71zM831.5 1202.6h74.9c48.3 0 62.1 25.9 62.1 50.6 0 30.7-23.4 51.8-59.8 51.8h-32.3v35.2c0 21.1 2.2 25.3 18.6 27.5v8.3h-63.4v-8.3c16.6-2.9 17.9-7.7 17.9-30.1V1241c0-22.7-2.2-27.5-17.9-30.1v-8.3zm71.1 86.4c31 0 39.7-17.3 39.7-36.8 0-21.8-13.8-34.9-47-34.9-18.9 0-18.9 4.2-18.9 22.1v49.6h26.2zM456.2 1288c0-51.2 35.5-89.3 83.8-89.3s83.8 38.1 83.8 89.3c0 51.8-36.5 91.8-83.8 91.8s-83.8-40-83.8-91.8zm136.3 2.9c0-44.2-21.4-74.9-52.5-74.9s-52.5 30.7-52.5 74.9c0 43.2 20.8 71.7 52.5 71.7s52.5-28.5 52.5-71.7zM154.1 1373.9H93.3v-8.3c16.6-2.9 17.9-7.7 17.9-30.1v-96.6c0-22.4-1.6-27.2-17.9-30.1v-8.3h58.2l80 137v-100.2c0-21.8-1.6-25.9-20.5-28.5v-8.3h55.7v8.3c-16.6 3.2-17.9 7.7-17.9 30.4v134.7h-28.2l-87-148.5v112c0 21.4 1.3 25.6 20.5 28.2v8.3zM4562.7 869.9l-53.4 143.7h-20.8l-57-153v117.1c0 20.5 2.2 25 21.1 27.5v8.3h-55v-8.3c16.6-2.9 17.9-7.7 17.9-30.1v-96.6c0-22.4-1.6-27.2-17.9-30.1v-8.3h55l52.2 140.2 52.2-140.2h49.9v8.3c-16.3 2.9-17.9 7.4-17.9 29.8v97c0 22.4 1.3 27.2 17.9 30.1v8.3h-62.1v-8.3c16.6-2.9 17.9-7.4 17.9-29.8V869.9zM4092.5 878.6c0-22.4-2.2-27.2-18.6-30.1v-8.3h63.4v8.3c-16.6 2.9-17.3 7.4-17.3 29.1v94.7c0 11.2 0 18.6 5.4 22.1 4.2 2.9 11.2 3.2 22.7 3.2 33.3 0 37.8-9.3 49.6-34.6l8.3 2.6-15 48h-117.1v-8.3c16.6-2.9 18.6-7.7 18.6-30.1v-96.6zM3760.8 1005.3v8.3h-62.1v-8.3c16.6-2.9 17.3-7.7 17.3-30.1v-96.6c0-22.4-1-27.2-17.3-30.1v-8.3h62.1v8.3c-16.3 2.9-17.9 7.7-17.9 30.1v41.6l50.9-47.4c8.6-8 13.1-11.2 13.1-16 0-5.4-7.4-7.4-11.5-8.3v-8.3h58.2v8.3c-7.4.3-9.6 1.6-37.8 28.5l-23.4 22.1 41.9 77.4c11.2 20.8 17.3 26.9 26.9 28.8v8.3h-60.8v-8.3c5.4-1.3 11.5-2.9 11.5-10.9 0-4.8-.6-9-6.4-19.5l-32-58.6-30.7 28.8v29.8c.1 22.4 1.4 27.5 18 30.4zM3420.3 1005.1V879c0-23-2.9-27.8-18.6-30.4v-8.3h64v8.3c-17 2.6-18.6 8.3-18.6 31.7v129.6c0 20.8-4.8 53.1-45.1 53.1-14.7 0-27.8-7-27.8-18.6 0-8.6 5.8-11.2 9.6-11.2 9.9 0 9.6 15 22.1 15 9.9.1 14.4-13.1 14.4-43.1zM3092 1013.6h-64v-8.3c16.6-2.9 18.6-7.7 18.6-30.1v-96.6c0-22.4-2.2-27.2-18.6-30.1v-8.3h64v8.3c-16.6 2.9-18.6 7.7-18.6 30.1v96.6c0 22.4 2.2 27.2 18.6 30.1v8.3zM2719.2 840.2h62.7v8.6c-16.6 2.9-17.9 7.7-17.9 30.1v96.3c0 22.4 1.6 27.2 17.9 30.1v8.3h-62.7v-8.3c16.6-2.9 17.9-7.4 17.9-28.5V933h-74.2v43.8c0 21.4 1.3 25.9 17.9 28.5v8.3h-62.7v-8.3c16.6-2.9 17.9-7.7 17.9-30.1v-96.3c0-22.4-1.6-27.2-17.9-30.1v-8.6h62.7v8.6c-16.6 2.6-17.9 7-17.9 28.5V917h74.2v-39.7c0-21.1-1.3-25.6-17.9-28.5v-8.6zM2362.4 930.9h61.4v8.3c-16.6 4.8-17.9 7-17.9 39v35.5h-9.3s-6.4-14.4-9.6-21.1c-12.2 13.8-28.2 24.3-49.9 24.3-47.4 0-81-36.8-81-90.2 0-55.4 32-90.2 81-90.2 19.2 0 28.5 3.8 37.8 14.1l2.2-10.2h8.3l15.7 45.8-8.3 2.9c-12.2-21.8-32-33.3-52.5-33.3-27.2 0-52.8 20.5-52.8 69.4 0 54.1 27.5 72.6 53.1 72.6 5.8 0 42.2-1.3 42.2-36.8 0-15-7.4-19.8-20.5-21.8v-8.3zM1974.6 1013.4h-62.1v-8.3c16.6-2.9 17.3-7.4 17.3-29.8V878c0-22.4-1-26.9-17.3-29.8V840h120.3l14.7 44.5-7.7 2.6c-14.1-26.9-20.2-32.3-56.3-32.3-22.4 0-26.9 1.3-26.9 24v38.1h28.8c12.8 0 15.7-2.6 17.9-19.2h8.3V952h-8.3c-1.9-16.3-5.4-19.2-17.9-19.2h-28.8v44.5c0 21.1 1.3 25.3 17.9 27.8v8.3zM1597 879.8v38.4h28.8c12.8 0 15.7-2.6 17.9-19.2h8.3v54.4h-8.3c-1.9-16.3-5.4-19.2-17.9-19.2H1597v42.2c0 22.1 4.8 23.7 28.2 23.7 33.6 0 39.4-5.8 53.8-32l8.3 2.6-14.7 44.2h-119.7v-8.3c16.6-2.9 17.3-7.4 17.3-29.8v-97.3c0-22.4-1-26.9-17.3-29.8v-8.3h120.3l14.1 44.2-7.4 2.2c-14.1-26.2-19.5-31.7-55.7-31.7-22.1 0-27.2 1.3-27.2 23.7zM1201.4 878.2c0-22.4-1.6-26.9-17.9-29.8v-8.3h68.2c56 0 84.8 37.1 84.8 88s-22.1 85.4-84.8 85.4h-68.2v-8.3c16.6-2.9 17.9-7.4 17.9-29.8v-97.2zm26.9 96c0 20.5 4.5 23.4 21.4 23.4 37.8 0 62.4-18.6 62.4-68.2 0-49-23.4-73.3-62.7-73.3-17 0-21.1 2.9-21.1 23.4v94.7zM955.4 841.4l11.8 46.7-8.3 2.6c-12.2-23.4-30.7-33.9-48.6-33.9-26.9 0-52.2 25-52.2 69.4 0 49.3 26.9 72.6 55 72.6 19.2 0 39.4-11.2 51.8-32.3l8.3 4.2c-10.2 30.4-38.7 47.4-67.8 47.4-38.7 0-78.7-29.1-78.7-90.2 0-65.6 43.2-90.2 78.7-90.2 16.3 0 31 5.1 39.4 14.1l2.2-10.2h8.4zM467 1013.6v-8.3c18.2-2.9 19.8-6.4 19.8-29.8v-97.3c0-23.4-1.9-27.2-19.8-29.8v-8.3h85.1c33 0 48 22.4 48 43.8 0 13.8-7 25.9-19.2 32.6 18.2 6.7 32 26.9 32 48.3 0 24.3-15 48.6-49 48.6H467zm71.1-103.4c12.5 0 42.9 0 42.9-25.6 0-12.8-7.4-29.8-45.1-29.8-9.3 0-15.7 1-18.6 2.9-3.5 2.2-4.2 8.3-4.2 20.5v32h25zm.3 16h-25.3v49.3c0 11.5 1 18.2 5.1 20.5 3.5 1.9 9.9 2.9 20.2 2.9 11.8 0 50.2 0 50.2-33.9 0-17.7-8.6-38.8-50.2-38.8zM95.2 1014.8v-8.3c9.9-1.6 18.2-4.8 25.6-27.2l45.1-137.9 27.8-.3 48.6 138.2c7.4 20.8 12.8 25 22.4 27.2v8.3h-63.4v-8.3c8.6-1.6 15.4-3.5 15.4-12.8 0-3.8-.3-9.3-2.6-15.7 0 0-8.6-23.4-9.3-25.3h-58.9l-8.3 25.3c-1.6 4.5-1.6 8-1.6 11.2 0 8.6 4.5 15 13.4 17.3v8.3H95.2zm103.7-78.1-22.7-65.9H173l-21.8 65.9h47.7zM4406.6 485.3l17.3-58.9h157.4l3.8 13.1-131.8 188.8c5.8 3.8 26.9 9.3 50.2 9.3 30.4 0 65.6-9.3 81.6-46.4l8.3 3.5-17.3 58.9h-166.7l-2.9-10.9 132.8-190.1c-7.4-3.5-26.6-10.2-48.6-10.2-26.2 0-57 9.9-75.8 46.4l-8.3-3.5zM4124.6 558.9l-44.8-84.5c-18.2-34.2-23-35.8-37.8-38.4v-9.6h81.3v9.6c-9.9 1.6-17 5.1-17 15 0 5.4 2.2 13.1 7.7 23.7l31 58.6 31-58.6c5.1-9.6 6.7-16.6 6.7-22.1 0-10.9-8-15-16.6-16.6v-9.6h71.7v9.6c-16 2.6-24.3 9-40 38.4l-44.5 83.8v47.4c0 30.1 2.2 34.9 26.2 38.4v9.6h-81.3V644c24.3-3.8 26.2-8.3 26.2-38.4v-46.7zM3810.4 653.6V644c8.6-1.6 16-2.2 16-9.3 0-5.1-3.8-14.1-14.1-29.1l-34.2-51.2-39.7 51.2c-9.6 12.2-13.4 20.8-13.4 26.2 0 8 6.7 10.6 15 12.2v9.6h-71.7V644c15.4-2.6 20.8-6.7 45.8-38.4l52.8-67.5-42.9-63.7c-23-33.9-28.2-35.8-44.2-38.4v-9.6h81.3v9.6c-6.7 1.6-13.4 2.9-13.4 10.2 0 5.4 3.2 14.1 12.8 28.2l25.9 38.4 29.8-38.4c10.6-13.4 14.4-22.1 14.4-27.5 0-7.7-7.7-9.3-14.7-10.9v-9.6h71.7v9.6c-17 2.6-24.6 9.6-47 38.4l-42.9 55 51.2 76.2c21.8 32.3 25.3 35.8 42.9 38.4v9.6h-81.4zM3554.7 474.4l-57.3 179.2h-23.7l-41.9-130.9-42.2 130.9h-22.7L3309 474.4c-9.9-31-17-35.8-32.3-38.4v-9.6h81.3v9.6c-13.4 1.9-21.4 6.4-21.4 19.5 0 4.8 1.3 11.2 3.8 18.9l43.5 134.4 37.8-117.4-5.1-17c-9.6-31.7-18.9-35.8-31.7-38.4v-9.6h81.3v9.6c-13.1 1.9-22.1 5.8-22.1 19.2 0 4.8 1.3 11.2 3.8 19.2l43.5 136 42.9-134.1c1.6-4.5 3.8-11.5 3.8-18.9 0-14.4-8.6-19.5-19.8-21.4v-9.6h71.7v9.6c-16.4 2.6-25.4 7.4-35.3 38.4zM3138.6 474.4l-65 179.2h-27.8l-65.3-179.2c-12.2-33.3-19.8-35.8-32.6-38.4v-9.6h81.3v9.6c-7.7 1.9-20.2 4.2-20.2 20.2 0 4.8 1 10.9 3.8 18.6l52.8 145 51.8-143c1.9-4.8 4.8-13.1 4.8-20.2 0-14.7-10.9-18.6-21.8-20.5v-9.6h71.7v9.6c-13.1 2.5-22.3 7.3-33.5 38.3zM2781.6 583.4c0 48.3-26.9 72.3-80.3 72.3-55.7 0-82.9-24.3-82.9-71.7V472.3c0-30.1-1.9-34.6-26.2-38.4v-9.6h81.3v9.6c-24.3 3.8-26.2 8.3-26.2 38.4v89.3c0 63.7 12.5 78.1 57.3 78.1 43.5 0 56-18.9 56-79v-88.3c0-30.1-1.9-34.6-26.2-38.4v-9.6h73.6v9.6c-24.3 3.8-26.2 8.3-26.2 38.4v111zM2298.7 641.9c24-3.5 26.2-8.3 26.2-38.4V454.7c0-9.9-3.2-13.1-14.7-13.1-27.2 0-50.6 0-64.6 26.6l-8.3-3.5 22.4-47.4h9c5.4 7 5.4 7 18.2 7h106.2c12.8 0 12.8 0 18.2-7h9l22.4 47.4-8.3 3.5c-14.1-26.6-37.4-26.6-64.6-26.6-11.5 0-14.7 3.2-14.7 13.1v148.8c0 30.1 2.2 34.9 26.2 38.4v9.6h-82.6v-9.6zM1917.9 653.9H1907l-17.9-76.8 8.3-2.9c23.7 49.9 56 67.8 83.8 67.8 32.6 0 57-24 57-47.7 0-16.3-11.8-32.6-40.6-41l-40-11.5c-46.4-13.4-64.6-37.1-64.6-59.8 0-31.4 34.9-60.2 75.5-60.2 17 0 34.6 4.5 51.5 16l3.8-11.8h10.6l17.6 60.5-8.3 3.5c-23-39-49.9-52.2-72-52.2-26.2 0-46.1 18.9-46.1 35.5 0 13.8 11.8 28.8 41.9 37.4l36.5 10.6c47.7 13.8 66.9 40.3 66.9 66.2 0 35.5-36.5 70.4-86.7 70.4-20.5 0-41.9-6.4-60.5-20.8l-5.8 16.8zM1615.4 426.4c62.1 0 81.6 33 81.6 64.6 0 29.1-19.2 50.6-48 60.5l40.6 70.4c8.6 15 17.6 19.8 32.3 22.1v9.6h-48.6l-56-97h-43.8v49c0 30.1 2.2 34.6 26.6 38.4v9.6h-81.6V644c24.3-3.8 26.2-8.3 26.2-38.4V474.4c0-30.4-3.2-35.5-26.6-38.4v-9.6h97.3zm-42 114.2h37.1c43.8 0 57-24.3 57-51.2 0-28.8-20.5-47-68.5-47-24.6 0-25.6 3.8-25.6 32v66.2zM1303.5 661c0 24 15.7 36.2 29.4 36.2 10.9 0 20.2-8.6 20.2-25.9h9.6c0 17.6-2.6 45.1-40.3 45.1-5.4 0-50.6-1.6-50.6-57.9h-6.7c-64.6 0-112.6-49.9-112.6-118.7 0-67.2 45.8-116.8 107.5-116.8 61.4 0 107.5 49.6 107.5 116.5 0 48-24.3 89.3-62.1 108.5-1.2 4.3-1.9 8.8-1.9 13zm29.5-117.2c0-61.4-30.7-103.7-73-103.7-42.2 0-73 42.2-73 103.7 0 59.8 29.4 97.3 73 97.3 43.5 0 73-37.4 73-97.3zM837.1 474.4c0-30.4-3.2-35.5-26.6-38.4v-9.6h97.3c62.1 0 81.6 33 81.6 64.6 0 39.7-33.6 65.6-81.9 65.6h-41.6v49c0 30.1 2.2 34.9 26.2 38.4v9.6h-81.3V644c24.3-3.8 26.2-8.3 26.2-38.4V474.4zm28.8 66.2H903c43.8 0 57-24.3 57-51.2 0-29.1-20.5-47-68.5-47-24.6 0-25.6 3.8-25.6 30.7v67.5zM432.5 538.7c0-67.2 45.4-116.8 107.5-116.8s107.5 49.6 107.5 116.8c0 67.8-46.4 119.4-107.5 119.4s-107.5-51.5-107.5-119.4zm181.7 4.2c0-60.2-31-103.7-74.2-103.7s-74.2 43.5-74.2 103.7c0 58.9 29.4 97.9 74.2 97.9 44.8 0 74.2-39 74.2-97.9zM262.4 653.6h-28.5l-112-202.2v154.2c0 30.1 1.9 34.6 26.2 38.4v9.6H71.4V644c24.3-3.8 26.2-8.3 26.2-38.4V474.4c0-30.1-2.2-34.9-26.2-38.4v-9.6h71l100.8 182.1V474.4c0-30.1-1.9-34.6-26.2-38.4v-9.6h71.7v9.6c-24.3 3.8-26.2 8.3-26.2 38.4v179.2zM4555.6 284c24.6-3.5 26.2-8.3 26.2-38.4V89.8l-65.9 203.8h-28.2l-67.2-207.7v159.7c0 30.1 1.9 34.6 26.2 38.4v9.6H4375V284c24.6-3.5 26.2-8.3 26.2-38.4V114.4c0-30.1-2.2-34.9-26.2-38.4v-9.6h69.8L4507 259l62.1-192.6h67.2V76c-24 3.5-26.2 8.3-26.2 38.4v131.2c0 30.1 1.9 34.6 26.2 38.4v9.6h-80.6V284zM4051.7 293.6V284c24.3-3.8 26.2-8.3 26.2-38.4V114.4c0-30.1-2.2-34.9-26.2-38.4v-9.6h81.9V76c-24.3 3.8-26.2 8.3-26.2 38.4v131.2c0 27.5 3.2 32 39.7 32 48 0 55-11.5 73-46.4l8.3 3.5-17.3 58.9h-159.4zM3731.8 179.7l62.7-65c13.4-13.8 17.9-22.7 17.9-28.5 0-6.4-6.7-9-13.8-10.2v-9.6h71.7V76c-14.4 2.6-16.6 4.5-49.3 38.7l-30.4 31.7 52.5 99.2c16.6 31.7 25.9 35.8 40 38.4v9.6h-81.3V284c9-1.6 16-3.5 16-12.8 0-5.4-2.6-13.4-9-25.6l-40.3-76.5-36.8 38.1v38.4c0 30.1 2.2 34.9 26.2 38.4v9.6h-81.3V284c24.3-3.8 26.2-8.3 26.2-38.4V114.7c0-30.1-2.2-35.2-26.2-38.7v-9.6h81.3V76c-24.3 3.8-26.2 8.6-26.2 38.7v65zM3402.1 76v-9.6h82.6V76c-24 3.2-26.6 8.3-26.6 39.4v170.2c0 43.8-19.8 70.4-60.8 70.4-21.4 0-35.5-8.6-35.5-21.4 0-8.6 6.4-14.4 15.4-14.4 16.3 0 14.4 19.8 32.6 19.8 12.5 0 18.9-14.1 18.9-55V115.4c-.1-31.1-3.3-36.5-26.6-39.4zM3074.4 245.6c0 30.1 2.2 34.9 26.2 38.4v9.6h-81.3V284c24.3-3.8 26.2-8.3 26.2-38.4V114.4c0-30.1-2.2-34.9-26.2-38.4v-9.6h81.3V76c-24.3 3.8-26.2 8.3-26.2 38.4v131.2zM2726.9 76v-9.6h81.3V76c-24.3 3.8-26.2 8.3-26.2 38.4v131.2c0 30.1 2.2 34.9 26.2 38.4v9.6h-81.3V284c24.3-3.8 26.2-8.3 26.2-38.4v-60.5h-106.2v60.5c0 30.1 2.2 34.9 26.2 38.4v9.6h-81.3V284c24.3-3.8 26.2-8.3 26.2-38.4V114.4c0-30.1-2.2-34.9-26.2-38.4v-9.6h81.3V76c-24.3 3.8-26.2 8.3-26.2 38.4v54.7h106.2v-54.7c0-30.1-2.2-34.9-26.2-38.4zM2424.3 246.2v48h-13.8l-9.3-23c-21.4 18.2-39.7 26.6-63 26.6-64.3 0-107.8-47.4-107.8-117.4 0-72.6 41.6-118.1 107.8-118.1 18.9 0 32.6 3.8 48.6 15.4l3.5-10.6h10.6l17.9 59.8-8.3 3.5c-19.8-36.5-43.8-50.9-73.9-50.9-45.1 0-73 35.5-73 98.9 0 64.3 29.1 102.1 74.2 102.1 26.9 0 48-13.1 56.3-34.2 2.2-6.1 3.8-13.1 3.8-20.5 0-18.9-8.3-26.6-29.8-29.4v-9.6h81.3v9.6c-24.4 6-25.1 7.6-25.1 49.8zM2052 66.4l17.3 39.7-8.3 2.9c-14.1-26.2-28.2-26.6-79-26.6-31 0-36.2 1.6-36.2 32v54.7h41.9c17.6 0 21.4-3.5 24.3-28.2h9.6v72.6h-9.6c-2.6-24-6.7-28.5-24-28.5h-42.2v60.5c0 30.1 2.2 34.9 26.2 38.4v9.6h-81.3V284c24.3-3.8 26.2-8.3 26.2-38.4V114.4c0-30.1-2.2-34.9-26.2-38.4v-9.6H2052zM1692.2 66.4l17.3 58.6-8.3 2.9c-19.5-38.7-28.2-45.4-79-45.4-31 0-36.2 1.6-36.2 32v54.7h41.6c17.6 0 21.4-3.5 24.3-28.2h9.6v72.6h-9.6c-2.6-24-6.7-28.5-24-28.5H1586v60.5c0 30.1 6.1 32 38.4 32 47 0 56-7.7 75.8-46.4l8.3 3.5-17.3 58.9h-160.6V284c24.3-3.8 26.2-8.3 26.2-38.4V114.4c0-30.1-2.2-34.9-26.2-38.4v-9.6h161.6zM1248.8 66.4c73.3 0 111.7 48 111.7 114.9 0 66.2-30.4 112.3-111.7 112.3h-89.3V284c24.3-3.8 26.2-8.3 26.2-38.4V114.4c0-30.1-2.2-34.9-26.2-38.4v-9.6h89.3zm-4.8 17.3c-23.7 0-29.1 3.8-29.1 30.7v131.2c0 26.6 6.1 30.7 29.8 30.7 54.4 0 86.4-25 86.4-92.8-.1-67.5-31.4-99.8-87.1-99.8zM961.8 67h10.6l17.3 59.8-8.3 3.8c-19.5-35.8-42.2-51.2-73-51.2-49 0-73 49.3-73 98.9 0 50.9 25 102.1 73.6 102.1 31 0 64-18.2 80.6-47.7l8.3 5.1c-20.5 41.6-54.1 59.8-88 59.8-64.3 0-107.8-47.4-107.8-117.4 0-72.6 41.3-118.1 107.5-118.1 18.9 0 32.3 3.8 48.3 15.4l3.9-10.5zM555.8 66.4c41.9 0 60.8 28.2 60.8 55.4 0 19.5-9.9 38.7-28.2 45.8 21.4 3.8 45.1 30.1 45.1 64.3 0 32.6-25.9 61.8-69.4 61.8H447.7V284c24.3-3.8 26.2-8.3 26.2-38.4V114.4c0-30.1-2.2-34.9-26.2-38.4v-9.6h108.1zm-18.5 95.7c19.5 0 57-4.8 57-39.4 0-17-6.4-39-59.8-39-27.8 0-31.4 2.6-31.4 30.7v47.7h34.2zM503 245.6c0 27.2 4.8 30.7 34.9 30.7 41.9 0 65.9-8.6 65.9-44.5 0-24.6-10.9-53.8-65.9-53.8H503v67.6zM142.6 293.6H69.3V284c15-2.2 25.6-5.8 36.2-38.4l58.2-179.2h32.6l61.8 179.2c10.6 30.4 18.2 35.8 32.6 38.4v9.6h-81.3V284c13.8-1.9 22.4-4.8 22.4-17 0-5.1-1.6-12.2-4.8-21.4l-12.5-35.5h-77.4l-11.5 35.5c-1.9 5.8-2.6 10.6-2.6 15 0 13.8 8 21.4 19.5 23.4v9.6zm32.6-198.4h-.6l-32.3 98.9h66.9l-34-98.9z" class="st0"/></svg>