<svg xmlns="http://www.w3.org/2000/svg" xml:space="preserve" baseProfile="tiny" version="1.2" viewBox="0 0 468.5 14.2"><path d="M6.8 2v-.5h4.1V2c-1.3.2-1.4.4-1.4 1.9v6.6c0 1.5.1 1.7 1.3 1.9v.5h-4v-.5c1.2-.2 1.3-.4 1.3-1.9v-3H2.8v3c0 1.5.1 1.7 1.3 1.9v.5H0v-.5c1.2-.2 1.3-.4 1.3-1.9V3.9C1.3 2.4 1.2 2.2 0 2v-.5h4.1V2c-1.2.2-1.3.4-1.3 1.9v2.7h5.3V3.9C8.1 2.4 8 2.2 6.8 2zM11.7 4.2h3.2v.4c-.8.2-.9.3-.9 1.5v3.3c0 2.4.4 3 1.9 3 1.6 0 2-.6 2-3V6.1c0-1.2-.1-1.3-.9-1.5v-.4h2.8v.4c-.8.2-.9.3-.9 1.5v4.2c0 1.8-1 2.7-3.1 2.7s-3.2-.9-3.2-2.7V6.1c0-1.2-.1-1.4-.9-1.5v-.4zM23.6 12.9h-3v-.4c.8-.1.9-.4.9-1.5V6.1c0-1.1-.1-1.4-.9-1.5v-.4h2.9l4 6.9v-5c0-1.1-.1-1.3-1-1.4v-.5h2.8v.4c-.8.2-.9.4-.9 1.5v6.7H27l-4.4-7.4V11c0 1.1.1 1.3 1 1.4v.5zM36.4 4.2l.6 2.4-.4.1C36 5.5 35.1 5 34.2 5c-1.3 0-2.6 1.2-2.6 3.5 0 2.5 1.3 3.6 2.8 3.6 1 0 2-.6 2.6-1.6l.4.2c-.5 1.5-1.9 2.4-3.4 2.4-1.9 0-3.9-1.5-3.9-4.5C30 5.3 32.2 4 33.9 4c.8 0 1.6.3 2 .7l.1-.5h.4zM41.2 12.5v.4h-3.1v-.4c.8-.1.9-.4.9-1.5V6.1c0-1.1 0-1.4-.9-1.5v-.4h3.1v.4c-.8.1-.9.4-.9 1.5v2.1l2.5-2.4c.4-.4.7-.6.7-.8 0-.3-.4-.4-.6-.4v-.4h2.9v.4c-.4 0-.5.1-1.9 1.4l-1.2 1.1 2.1 3.9c.6 1 .9 1.3 1.3 1.4v.4h-3v-.4c.3-.1.6-.1.6-.5 0-.2 0-.4-.3-1L41.8 8l-1.5 1.4V11c0 1.1 0 1.3.9 1.5zM52.2 12.9h-.5l-.9-3.8.4-.1c1.2 2.5 2.8 3.4 4.2 3.4 1.6 0 2.8-1.2 2.8-2.4 0-.8-.6-1.6-2-2l-2-.6c-2.3-.7-3.2-1.9-3.2-3 0-1.6 1.7-3 3.8-3 .8 0 1.7.2 2.6.8l.2-.6h.4l.9 3-.4.2c-1.2-2-2.5-2.6-3.6-2.6-1.3 0-2.3.9-2.3 1.8 0 .7.6 1.4 2.1 1.9l1.8.5c2.4.7 3.3 2 3.3 3.3 0 1.8-1.8 3.5-4.3 3.5-1 0-2.1-.3-3-1l-.3.7zM69 5.7l-2.7 7.2h-1l-2.8-7.7v5.9c0 1 .1 1.2 1.1 1.4v.4h-2.8v-.4c.8-.1.9-.4.9-1.5V6.1c0-1.1-.1-1.4-.9-1.5v-.4h2.8l2.6 7 2.6-7h2.5v.4c-.8.1-.9.4-.9 1.5V11c0 1.1.1 1.4.9 1.5v.4h-3.1v-.4c.8-.2.8-.4.8-1.5V5.7zM71.8 12.9v-.4c.5-.1.9-.2 1.3-1.4l2.3-6.9h1.4l2.4 6.9c.4 1 .6 1.2 1.1 1.4v.4h-3.2v-.4c.4-.1.8-.2.8-.6 0-.2 0-.5-.1-.8 0 0-.4-1.2-.5-1.3h-2.9l-.4 1.3c-.1.2-.1.4-.1.6 0 .4.2.8.7.9v.4h-2.8zM77 9l-1.1-3.3h-.2L74.6 9H77zM81.8 6.1c0-1.1-.1-1.4-.9-1.5v-.4H84v.4c-.8.1-.9.4-.9 1.5v4.8c0 .6 0 .9.3 1.1.2.1.6.2 1.1.2 1.7 0 1.9-.5 2.5-1.7l.4.1-.8 2.3h-5.9v-.4c.8-.1.9-.4.9-1.5V6.1zM88.8 6.1c0-1.1-.1-1.4-.9-1.5v-.4H91v.4c-.8.1-.9.4-.9 1.5v4.8c0 .6 0 .9.3 1.1.2.1.6.2 1.1.2 1.7 0 1.9-.5 2.5-1.7l.4.1-.8 2.3h-5.9v-.4c.8-.1.9-.4.9-1.5V6.1zM106.7 1.5h.5l.9 3-.4.2c-1-1.8-2.1-2.6-3.6-2.6-2.4 0-3.6 2.5-3.6 4.9 0 2.5 1.2 5.1 3.7 5.1 1.6 0 3.2-.9 4-2.4l.4.3c-1 2.1-2.7 3-4.4 3-3.2 0-5.4-2.4-5.4-5.9 0-3.6 2.1-5.9 5.4-5.9.9 0 1.6.2 2.4.8l.1-.5zM109.1 12.9v-.4c.5-.1.9-.2 1.3-1.4l2.3-6.9h1.4l2.4 6.9c.4 1 .6 1.2 1.1 1.4v.4h-3.2v-.4c.4-.1.8-.2.8-.6 0-.2 0-.5-.1-.8 0 0-.4-1.2-.5-1.3h-2.9l-.4 1.3c-.1.2-.1.4-.1.6 0 .4.2.8.7.9v.4h-2.8zm5.2-3.9-1.1-3.3h-.2L111.9 9h2.4zM118.3 4.2h3.7c2.4 0 3.1 1.3 3.1 2.5 0 1.5-1.2 2.6-3 2.6h-1.6v1.8c0 1.1.1 1.3.9 1.4v.4h-3.2v-.4c.8-.1.9-.4.9-1.5V6.1c0-1.1-.1-1.4-.9-1.5v-.4zm3.6 4.3c1.6 0 2-.9 2-1.8 0-1.1-.7-1.7-2.4-1.7-.9 0-.9.2-.9 1.1v2.5h1.3zM131.6 4.2l.7 2.3-.4.1c-.7-1.2-1.7-1.7-2.6-1.7-.9 0-1.6.5-1.6 1s.5 1 1.5 1.2l1.2.4c2 .6 2.8 1.6 2.8 2.7 0 1.8-1.8 2.8-3.5 2.8-.8 0-1.6-.2-2.1-.7l-.3.5h-.4L126 10l.4-.1c.8 1.7 2.1 2.3 3.2 2.3 1.2 0 2.1-.7 2.1-1.4 0-.6-.5-1.1-1.5-1.4l-1.4-.4c-1.9-.6-2.6-1.5-2.6-2.4 0-1.2 1.3-2.4 2.8-2.4 1 0 1.7.3 2 .6l.2-.4h.4z"/></svg>