<svg xmlns="http://www.w3.org/2000/svg" xml:space="preserve" id="Layer_1" x="0" y="0" style="enable-background:new 0 0 4592.9 2503.4" version="1.1" viewBox="0 0 4592.9 2503.4"><style>.st0{enable-background:new}</style><path d="m4490.2 2079.2-116.5-238.4h26.9l116.5 238.4h-26.9zM4076.6 2078.4v-236.8h17.6v236.8h-17.6zM3767.7 1840.8h25.3l-109.8 238.4h-25.3l109.8-238.4zM3340.8 2080c24-3.5 26.2-8.3 26.2-38.4v-163.2c0-30.1-1.6-34.6-25.9-38.4v-9.6h49v259.2h-49.3v-9.6zM2980.8 2089.6v-259.2h49v9.6c-24.3 3.8-26.2 8.3-26.2 38.4l.3 163.2c0 30.1 2.2 34.9 26.2 38.4v9.6h-49.3zM2657 1985.9v61.1c0 32-12.5 44.8-44.8 44.8h-.6v-8c16-2.2 23.7-8 23.7-26.6V1992c0-16.6 4.8-23 25.6-32-20.8-9-25.6-15.4-25.6-32v-65.3c0-18.6-7.7-24.3-23.7-26.6v-8h.6c32.3 0 44.8 12.8 44.8 44.8v61.1c0 14.7 9 19.8 22.4 21.8v8.3c-13.5 2-22.4 7.1-22.4 21.8zM2251.5 1955.8c13.4-1.9 22.4-7 22.4-21.8v-61c0-32 12.5-44.8 44.8-44.8h.6v8c-16 2.2-23.7 8-23.7 26.6v65.3c0 16.6-4.8 23-25.6 32 20.8 9 25.6 15.4 25.6 32v65.3c0 18.6 7.7 24.3 23.7 26.6v8h-.6c-32.3 0-44.8-12.8-44.8-44.8v-61.1c0-14.7-9-19.8-22.4-21.8v-8.5zM1886.4 1832.3l5.4-6.1c40.3 14.1 72.6 75.2 72.6 133.8 0 58.6-32.3 119.7-72.6 133.8l-5.4-6.1c39-28.8 51.2-78.1 51.2-127.7 0-83.2-34.2-115.2-51.2-127.7zM1604.5 2087.7l-5.4 6.1c-40.3-14.1-72.6-75.2-72.6-133.8 0-58.6 32.3-119.7 72.6-133.8l5.4 6.1c-17 12.5-51.2 44.5-51.2 127.7 0 49.6 12.1 98.9 51.2 127.7zM1221 1900.5c29.1 0 36.5 16.6 36.5 30.7 0 2.6 0 5.1-.6 7.7l-9.3 48.3c-.3 1.3-.3 3.2-.3 4.5 0 8.3 6.1 11.8 11.2 11.8 13.8 0 36.5-21.1 36.5-55.4 0-33.9-22.4-74.2-78.7-74.2-57 0-95.7 41.3-95.7 93.1 0 48.3 33.3 83.2 83.5 83.2 9.3 0 44.2-1.3 74.9-21.4l8.6 12.8c-14.7 10.2-49.3 26.2-88 26.2-63.4 0-105.3-44.2-105.3-103 0-64.6 51.2-112.6 120.6-112.6 55.4.3 101.8 32.3 101.8 91.8 0 54.4-38.4 76.8-66.6 76.8-13.8 0-25.3-5.4-27.8-15-12.8 10.6-25.9 15-37.8 15-19.5 0-33.9-11.8-33.9-27.2 0-33.9 44.5-50.6 81.9-50.9l2.2-10.2c0-4.5 0-17-19.5-17-11.5 0-22.1 4.5-23 9.9l-.6 2.9c-1.3 8.3-7.7 12.8-14.4 12.8-5.8 0-10.6-3.5-10.6-10.6 0-15.9 24.3-30 54.4-30zm-42.9 92.1c0 6.4 3.8 10.9 13.1 10.9 8.3 0 18.6-3.8 33-16l5.8-30.4c-35.6.7-51.9 22.7-51.9 35.5zM841 2018.7h-17.3v-52.5c43.2 0 60.5-14.4 60.5-41.6 0-21.4-17.9-43.2-43.5-43.2-11.2 0-20.5 4.8-24.3 12.5-3.2 6.7-5.8 17.3-15.7 17.3-8.3 0-15-6.4-15-14.7 0-16 24.6-29.4 53.4-29.4 47.7 0 71.4 31.7 71.4 63.4 0 31-23.4 62.4-69.4 62.4v25.8zm-8.4 17.9c9.9 0 17.9 8 17.9 18.2s-8 18.2-17.9 18.2c-9.9 0-17.9-8-17.9-18.2s8-18.2 17.9-18.2zM504 1888.5c0 15-10.9 78.4-10.9 118.1v8.6h-14.7v-8.6c0-39.7-10.2-103-10.2-117.8 0-11.8 6.1-21.1 17.9-21.1 11.5 0 17.9 8.9 17.9 20.8zm-17.9 144c9.9 0 17.9 8 17.9 18.2s-8 18.2-17.9 18.2c-9.9 0-17.9-8-17.9-18.2s8-18.2 17.9-18.2zM202.3 1936.5h-33l-6.4 42.6h31.7v20.2h-33.9l-10.6 71h-19.2l9.9-71h-39.4l-10.2 71H71.7l9.9-71h-33V1979h35.8l6.1-42.6H56.3v-19.8h36.8l9.6-66.9h19.5l-9.6 66.9h39.7l9.6-66.9h19.2l-9 66.9h30.1v19.9zm-52.8 0h-39.4l-6.4 42.6h39.7l6.1-42.6zM4429.6 1770.2c7.7-5.1 14.1-13.1 20.2-25.6-9.9 0-17.9-8-17.9-18.2s8-18.2 18.2-18.2 17.6 8 17.6 19.5c0 17-17 40-35.8 48.6l-2.3-6.1zm20.2-175.4c9.9 0 17.9 8.6 17.9 18.9s-8 18.2-17.9 18.2c-9.9 0-17.9-8-17.9-18.2s7.9-18.9 17.9-18.9zM4088.6 1594.8c9.9 0 17.9 8.6 17.9 18.9s-8 18.2-17.9 18.2c-9.9 0-17.9-8-17.9-18.2s8-18.9 17.9-18.9zm0 112.7c9.9 0 17.9 8 17.9 18.2s-8 18.2-17.9 18.2c-9.9 0-17.9-8-17.9-18.2s8-18.2 17.9-18.2zM3711 1488.4l-6.7 42.6h-6.1l-6.1-42.6c-1.6-10.6-1.9-13.4-1.9-15 0-8.6 4.5-15.4 11.5-15.4 6.7 0 11.8 6.7 11.8 14.1.1 3.2-1.2 8-2.5 16.3zm47.1 0-6.7 42.6h-6.1l-6.1-42.6c-1.6-10.6-1.9-13.4-1.9-15 0-8.6 4.8-15.4 11.8-15.4 6.7 0 11.5 6.7 11.5 14.1 0 3.2-1.2 8-2.5 16.3zM3374.7 1488.4l-7 42.6h-5.8l-6.1-42.6c-1.6-10.6-2.2-13.4-2.2-15 0-8.6 4.8-15.4 11.8-15.4 6.7 0 11.8 6.7 11.8 14.1.1 3.2-1.2 8-2.5 16.3zM3003.2 1471.7l44.5 30.4-3.2 6.7-51.2-15.7c-12.8-3.8-16.3-4.5-17.9-5.4-7.7-3.5-12.2-9.9-12.2-16 0-7 5.8-13.8 14.4-13.8 2.9 0 5.4 1 8.3 2.2 3.5 1.7 8.7 5.9 17.3 11.6zM2650.6 1613.4l-15.4-6.7c-11.8-5.4-14.7-6.4-20.8-6.4-10.9 0-13.8 3.5-27.8 27.8l-12.5-15c14.4-26.6 25-37.1 40.3-37.1 6.7 0 14.4 2.2 22.4 6.1l18.2 8.3c11.2 5.1 16.3 6.7 21.1 6.7 11.5 0 19.2-9.6 27.8-25.3l12.8 15c-5.4 10.9-19.5 34.6-40.6 34.6-6 0-13.7-2.5-25.5-8zM2305.1 1488.4l-12.8 2.6v3.5l12.5 2.2c6.4 1.3 9.6 3.8 9.6 8 0 5.1-4.2 9.6-8.3 9.6-2.2 0-4.2-1.3-7.7-5.4l-8.3-10.6-2.9 1.6 5.1 12.8c.6 1.6 1 3.8 1 5.8 0 5.1-3.5 8.3-8 8.3-4.8 0-8-3.2-8-8 0-1.6.3-3.5 1.3-6.1l4.5-12.8-2.9-1.9-8 10.6c-2.9 4.2-5.1 5.8-7.7 5.8-4.2 0-8-4.8-8-9.9 0-4.2 2.9-6.7 9.3-8l12.8-2.6v-3.5l-12.5-1.9c-6.1-1.3-9.6-4.2-9.6-8.6 0-4.8 3.8-9.3 8-9.3 2.6 0 5.1 1.6 8.3 5.4l8 10.6 2.9-1.6-5.1-12.8c-1-2.9-1.3-5.1-1.3-6.7 0-4.2 3.5-7.4 8-7.4 4.8 0 8.3 3.2 8.3 8 0 1.6-.3 3.8-1.3 6.1l-4.5 12.8 2.9 1.9 8-10.6c2.6-3.5 5.1-5.4 7.7-5.4 4.2 0 8 4.5 8 9.6 0 4.1-2.9 6.6-9.3 7.9zM1970.9 1585.7l-45.4-97.9-45.4 97.9h-23.4L1914 1458h23l57.3 127.7h-23.4zM1501.4 1562.2h128v19.2h-128v-19.2zm0 56.4h128v19.2h-128v-19.2zM1241.4 1609.6h-72v-19.2h72v19.2zM835.8 1536H855v54.4h54.4v19.2H855v54.4h-19.2v-54.4h-54.4v-19.2h54.4V1536zM553 1608.3 418 1711v-31.4l105-79.7-105-79.7V1489l135 102.7v16.6zM193 1489v31.4L88 1600l105 79.7v31.4L58 1608.4v-16.6L193 1489zM771.2 2345.9c-30.4 0-51.5-29.4-51.5-70.7 0-41.6 21.4-70.7 51.8-70.7 30.1 0 51.2 28.5 51.2 70.1 0 41.5-21.1 71.3-51.5 71.3zm1.3-128.6c-18.2 0-29.8 21.8-29.8 59.2 0 36.2 10.2 56 28.5 56 17.9 0 28.5-20.2 28.5-58.2 0-37.5-9.9-57-27.2-57zm-4.2 214.4 137.6-227.2h18.6l-137.3 227.2h-18.9zm151.4 3.8c-30.4 0-52.2-28.8-52.2-70.1 0-41.6 22.1-72 52.5-72 30.1 0 51.2 29.8 51.2 71.4 0 41.9-21.1 70.7-51.5 70.7zm1.3-128.6c-18.2 0-29.8 22.4-29.8 59.8 0 35.8 10.2 55.4 28.5 55.4 17.9 0 28.5-20.2 28.5-57.9 0-37.5-10.3-57.3-27.2-57.3zM482.1 2419.4v-89.9c-44.5-18.6-61.4-35.5-61.4-61.8 0-34.6 29.1-65.6 61.4-65.6v-18.6h11.5v19.5c7.7 0 14.7 2.6 24 8.6l3.5-12.2h10.6l17.9 60.8-9.3 3.8c-10.6-28.5-27.8-44.8-46.7-44.8v80c46.1 20.8 67.5 44.8 67.5 75.2 0 34.9-28.5 61.1-66.6 61.1h-1v20.8H482v-21.8c-13.8-2.6-27.5-9.3-40-19.8l-3.8 11.8h-10.6l-17.9-60.5 9.3-3.8c13.8 32.2 35.6 51.7 63.1 57.2zm-34.3-159.7c0 16 7.7 24 34.2 34.6v-74.9c-18.8-.1-34.2 17.5-34.2 40.3zm86.1 120.3c0-17.3-14.7-33.9-40.3-45.8v85.4c20.5.1 40.3-19.4 40.3-39.6zM206.4 2431.5c-27.8 0-36.8-4.8-48.3-25.6-21.8 21.8-38.7 29.8-62.7 29.8-46.1 0-79.4-29.4-79.4-70.1 0-31 19.2-53.1 57-65.9-13.8-14.4-20.5-29.4-20.5-45.4 0-28.5 21.8-49.9 51.2-49.9 26.9 0 45.8 17.6 45.8 42.2 0 22.7-16.3 43.8-41 53.1 23.4 20.2 43.8 43.5 59.8 67.5 8.6-13.4 13.8-28.5 13.8-45.4 0-16.3-4.8-23-24-26.9v-9.6h70.4v9.6c-23.4 4.5-27.2 8.3-31.4 31-4.5 23.7-10.9 40.6-21.1 56.3 21.1 34.6 27.5 39.7 58.9 39.7v9.6h-28.5zM81.6 2310.6c-25.3 8.6-35.5 22.4-35.5 48 0 37.1 21.4 61.1 54.4 61.1 19.8 0 35.8-8.6 51.2-27.8-19.2-32.4-43.2-60.2-70.1-81.3zm22.7-93.5c-15.4 0-26.2 13.1-26.2 30.4 0 12.8 6.1 25.3 20.5 41.9 20.8-10.9 30.4-24.3 30.4-42.2 0-18.2-10-30.1-24.7-30.1zM4445.1 2438.4c-44.8 0-76.2-47.7-76.2-115.8 0-69.4 33-121 77.8-121 43.8 0 75.2 49.3 75.2 118.4 0 69.8-31.6 118.4-76.8 118.4zm2.6-219.5c-29.1 0-47.4 39-47.4 104.6 0 62.7 16.6 97.6 45.1 97.6 28.8 0 45.1-35.5 45.1-102.1.1-64.9-15.3-100.1-42.8-100.1zM4160.7 2296c0 62.7-41.3 117.4-122.2 142.4-4.8-12.5-4.8-12.5-5.8-15 47-11.8 94.7-61.1 94.7-96.3-10.6 16.3-29.1 25.6-50.6 25.6-39 0-66.6-31-66.6-74.9 0-45.1 29.1-76.2 71.4-76.2 46.7 0 79.1 38.4 79.1 94.4zm-78.1 38.1c17.3 0 38.4-13.4 44.8-29.1 1.3-2.9 1.3-5.1 1.3-10.6 0-42.2-21.8-75.5-49-75.5-22.4 0-38.7 22.7-38.7 56 0 34.5 17.9 59.2 41.6 59.2zM3650.3 2372.8c0-26.9 14.7-44.8 46.1-56.3-25.3-12.5-35.8-27.5-35.8-50.9 0-38.1 27.5-64 67.8-64 38.1 0 64.6 23 64.6 55.7 0 23.4-13.4 38.7-41 47.7 35.5 15.7 48.6 32.3 48.6 59.5 0 42.9-32.6 73.9-77.8 73.9-42.1 0-72.5-27.2-72.5-65.6zm74.5 51.5c31 0 50.2-20.8 50.2-54.7 0-19.8-6.4-24.3-64-46.7-23.7 11.2-35.2 27.8-35.2 51.5.1 30.7 19.3 49.9 49 49.9zm-38.7-165.1c0 17 8 23.4 50.6 39.4 20.8-5.8 32.6-21.1 32.6-41.6 0-24-17-41.3-41-41.3-24.6 0-42.2 18.5-42.2 43.5zM3324.8 2433.9c.6-2.6 9.6-100.2 90.9-199.7h-70.4c-29.1 0-35.5 5.8-43.2 32h-10.2l9.6-60.2h134.7l2.9 21.4c-1.6 1.6-77.4 100.2-77.4 206.4h-36.9zM2930.2 2344c0-62.7 41.3-117.4 122.2-142.4 4.8 12.5 4.8 12.5 5.8 15-47 11.8-94.7 61.1-94.7 96.3 10.6-16.3 29.1-25.6 50.6-25.6 39 0 66.6 31 66.6 74.9 0 45.1-29.1 76.2-71.4 76.2-46.7 0-79.1-38.4-79.1-94.4zm78.1-38.1c-17.3 0-38.4 13.4-44.8 29.1-1.3 2.9-1.3 5.1-1.3 10.6 0 42.2 21.8 75.5 49 75.5 22.4 0 38.7-22.7 38.7-56 0-34.6-17.9-59.2-41.6-59.2zM2603.2 2398.7c0 12.2 14.7 21.1 33.9 21.1 29.4 0 51.2-22.1 51.2-55 0-34.9-24-62.7-51.2-62.7-19.2 0-31.7 12.2-39.7 25.3l-15-3.2 25.6-120h97v28.2h-87.7l-13.8 64.6c9.9-8.6 23.4-13.4 39.7-13.4 44.2 0 75.8 32 75.8 76.2 0 45.1-32.6 76.2-78.7 76.2-37.8 0-68.5-21.1-68.5-47.4 0-13.1 7.7-23.7 17.6-23.7 9 0 16.3 8.6 16.3 18.6.1 5.6-2.5 9.8-2.5 15.2zM2361.3 2371.8h-32.6v62.1h-28.2v-62.1h-86.7l-4.2-14.1 90.9-151.7h28.2v146h32.6v19.8zm-60.8-136.9-69.8 117.1h69.8v-117.1zM1881.3 2397.1c0 14.1 17.6 25.3 38.1 25.3 27.8 0 47-21.4 47-52.5 0-15.4-4.8-53.8-50.6-53.8h-14.7V2302h14.1c24.6 0 43.5-18.2 43.5-42.9 0-22.4-16.3-38.4-39-38.4-17 0-36.2 10.2-41.3 26.2h-16l.3-.6c6.1-27.2 30.1-44.8 61.8-44.8 37.4 0 65 24 65 55.4 0 23.7-17.3 44.2-38.4 50.2 27.5 7.4 49.3 29.1 49.3 59.8 0 42.6-33.6 71.4-79.4 71.4-40 0-70.4-22.4-70.4-50.6 0-13.8 7.7-24.3 17.6-24.3 8.6 0 15.7 8 15.7 18.2-.1 6.6-2.6 10.1-2.6 15.5zM1491.5 2436.5v-24.3c59.8-44.2 109.4-113 109.4-147.2 0-25-17-41-42.2-41-12.5 0-33.9 3.5-47.7 25h-16c9.3-30.1 39-45.4 68.2-45.4 39.4 0 68.5 26.6 68.5 62.7 0 46.1-61.4 113-98.2 143.4h51.2c25.3 0 31.4-4.2 40.6-30.1l2.6-7.7v-.6l11.5 3.5-12.2 61.8h-135.7zM1161.3 2227.8V2215c18.6-2.6 33-4.8 46.1-10.2h11.5V2384c0 30.1 6.7 34.9 30.7 38.4v12.8h-88.3v-12.8c24.3-3.8 30.7-8.3 30.7-38.4v-132.2c0-19.8-12.5-21.7-30.7-24zM4387.7 1254.7l-8-2.6 15.4-45.4h108.5l4.8 16-97 115.2h45.4c24 0 34.6-6.7 46.4-31.7l8 2.6-15.4 45.1h-108.5l-7.7-14.7 97.9-116.5h-38.4c-27.1 0-40.9 9.6-51.4 32zM4035.2 1417.9c-15.4 0-21.1-7.7-21.1-15.4s6.1-15.7 14.7-15.7c10.9 0 10.2 11.2 22.7 11.2 5.8 0 9.9-6.7 18.2-28.8l5.8-15.4-47.4-120.6c-4.5-11.5-9.3-14.4-21.8-16.6v-9.9h66.6v9.9c-11.2 1.9-18.6 3.5-18.6 10.6 0 1.6.3 3.5 1.3 5.8l33.6 85.8 33.3-85.4c.6-1.9 1-3.5 1-5.1 0-7.4-8-9.9-16.6-11.5v-9.9h57.6v9.9c-15 2.2-18.9 5.1-23.4 16.6l-46.7 120.6c-16 41.2-25 63.9-59.2 63.9zM3730.6 1353.9v-9.6c9.6-1.6 19.2-4.2 19.2-9.9 0-1.9-.3-4.5-2.6-7.4 0 0-21.4-28.8-24.6-33l-25.6 33c-2.2 2.6-2.2 4.8-2.2 7 0 1.6.3 7.7 10.9 10.2v9.6h-63.4v-9.6c17.9-2.6 23-4.2 33.3-17.3 0 0 33.3-42.9 36.5-46.7l-35.5-47c-8.6-11.5-15-14.1-27.2-16.6v-9.9h70.4v9.9c-5.4 1.3-13.4 3.8-13.4 9.3 0 2.6 1.3 3.8 3.5 7l19.2 25.6 19.8-25.3c4.8-6.1 4.8-6.4 4.8-8.3 0-2.2-1.9-5.8-9.6-8.3v-9.9h60.2v9.9c-18.9 2.6-24.6 4.2-34.2 16.6l-30.4 39 41 54.7c9.6 12.8 12.2 14.7 28.2 17.3v9.6h-78.3zM3396.5 1216.6c-8.6 1.9-16 4.2-16 12.2 0 2.2.3 4.5 1.6 7.4 0 0 28.5 74.2 32.3 84.5l32.3-84.5c1-2.2 1-4.2 1-6.1 0-9.6-10.6-12.5-15.4-13.4v-9.9h57.6v9.9c-16.3 2.6-19.5 5.1-25.3 20.2l-44.8 117.1H3398l-34.6-89.9-34.6 89.9H3307l-44.8-116.8c-6.1-16-9-17.9-21.4-20.5v-9.9h66.6v9.9c-9.9 1.6-17.9 4.5-17.9 12.8 0 1.9.6 4.2 1.6 6.7l32.3 84.5 30.7-80.3c-7.4-19.8-9.9-20.8-21.1-23.7v-9.9h63.4v9.8zM2992.6 1353.9l-45.8-116.8c-5.8-14.7-9.6-17.9-23.4-20.5v-9.9h66.6v9.9c-10.2 1.9-16.6 4.2-16.6 11.5 0 2.2.3 4.8 1.6 8.3 0 0 30.7 78.4 34.9 89l34.6-89.9c1.3-2.9 1.9-5.1 1.9-7.4 0-7.4-8-9.9-16.6-11.5v-9.9h57.6v9.9c-16.3 2.6-19.8 5.8-25 19.8l-45.1 117.4h-24.7zM2658.2 1226.8v-9.6c18.6-2.6 26.6-5.1 39.7-10.6h10.9v111.6c0 17 5.4 22.7 24.3 25.9v9.6h-51.2v-25.6c-20.2 18.9-40.6 27.5-57.9 27.5-24.6 0-42.6-17.3-42.6-45.4v-59.8c0-19.8-5.4-21.4-23.7-23.7v-9.6c18.6-2.6 26.6-5.1 39.7-10.6h10.9v101.4c0 21.8 8.3 30.4 23.7 30.4 12.2 0 29.1-7.7 49.9-27.5v-60.5c0-19.6-5.4-21.2-23.7-23.5zM2257.3 1318.6v-93.1H2233v-8.3c23.7-9.9 35.2-29.1 39-55.7h12.2v46.7h40.3v17.3h-40.3v81c0 30.1 10.9 34.2 21.1 34.2 2.2 0 16.3-.3 25-9l7.7 7.7c-10.6 12.5-18.6 18.6-40.6 18.6-20.9-.1-40.1-11.3-40.1-39.4zM1885.4 1353.9h-8.3l-12.2-49.3 7.7-2.2c15.7 32.6 36.8 34.2 54.1 34.2 17.6 0 33-9.9 33-21.4 0-8.3-8.3-17.6-30.4-24l-18.9-5.4c-28.5-8.3-40.6-24.3-40.6-40 0-20.8 19.2-39.7 47.7-39.7 10.9 0 21.8 1 32.6 8.3l2.6-7.7h9l10.6 40.3-7 2.2c-8.6-17.9-26.6-25.9-42.2-25.9-14.4 0-26.9 6.7-26.9 17.6 0 6.7 6.1 14.4 20.8 18.6l16.3 4.8c37.8 11.2 52.8 30.1 52.8 48-.3 22.7-25 43.5-58.6 43.5-13.1 0-26.6-3.8-38.4-13.1l-3.7 11.2zM1507.2 1226.8v-9.6c18.6-2.6 26.6-5.1 39.7-10.6h10.6v21.4c20.5-17 35.2-21.8 45.4-21.8 15.7 0 21.1 12.8 21.1 18.2 0 8.3-5.8 14.4-14.4 14.4-11.2 0-12.5-10.9-22.7-10.9-12.5 0-25.9 13.4-29.4 17.3v73c0 17 5.4 22.7 24.3 25.9v9.6h-74.9v-9.6c18.6-2.9 23.7-8.6 23.7-25.6v-68.2c0-19.6-5.2-21.2-23.4-23.5zM1283.2 1410.4v9.6h-74.9v-9.6c16.6-2.6 23.7-4.8 23.7-24.6v-41.6c-12.5 9.9-25.9 13.8-40 13.8-36.8 0-64.3-31.7-64.3-75.8 0-42.9 25.6-73.6 61.4-73.6 17.3 0 31 4.8 42.9 19.2l12.2-18.9h14.7v177c0 19.7 7.3 21.9 24.3 24.5zm-128.6-126.7c0 29.4 14.4 57 42.9 57 12.2 0 24.6-3.8 34.6-13.8V1245c-11.5-16.6-21.8-19.2-34.6-19.2-28.5 0-42.9 28.4-42.9 57.9zM768.6 1229v-9.6c18.6-2.6 26.6-5.1 39.7-10.6h10.6v20.2c12.2-14.1 25.9-20.5 42.6-20.5 36.2 0 61.8 30.7 61.8 73.6 0 44.2-27.5 75.8-64.3 75.8-14.1 0-27.5-2.9-40-12.8v40.6c0 19.8 6.7 21.8 23.7 24.6v9.6h-74.9v-9.6c17-2.6 24.3-4.8 24.3-24.6v-133.1c-.1-19.8-5.2-21.4-23.5-23.6zm127.7 54.7c0-29.4-14.1-59.2-42.6-59.2-12.8 0-23.4 6.1-34.9 23v80.3c9.9 9.9 22.4 12.8 34.6 12.8 28.5 0 42.9-27.5 42.9-56.9zM485.1 1357.9c-45.8 0-76.2-30.7-76.2-75.5s30.4-74.9 76.2-74.9c45.8 0 76.8 30.1 76.8 74.9s-31 75.5-76.8 75.5zm.4-14.1c23.7 0 46.4-19.5 46.4-59.2 0-41.9-22.7-63-46.4-63s-46.4 21.1-46.4 63c0 39.1 22.7 59.2 46.4 59.2zM39.4 1226.8v-9.6c18.6-2.6 26.6-5.1 39.7-10.6h10.6v24c19.2-18.2 35.5-24.3 56-24.3 28.2 0 43.8 12.8 43.8 38.7v73.6c0 20.2 7.7 23 24.3 25.6v9.6h-76.2v-9.6c16.6-2.6 24.3-5.4 24.3-25.6v-68.8c0-19.5-8.6-27.5-24.3-27.5-14.4 0-30.4 8.6-48 25.6v70.7c0 20.2 8 23 24.3 25.6v9.6H37.1v-9.6c17-2.6 25.6-5.8 25.6-25.6v-68.2c0-19.7-5.1-21.3-23.3-23.6zM4321.3 866.6V857c18.6-2.6 26.6-5.1 39.7-10.6h10.6v24c17.9-17.6 32.6-24.3 49.6-24.3 17.6 0 32.3 10.2 38.4 24.6 15.4-16.6 31-24.6 52.2-24.6 22.7 0 40.3 12.5 40.3 39V959c0 20.8 4.5 22.4 24.3 25v9.6h-74.2V984c17.9-2.6 22.4-4.8 22.4-25v-65.6c0-23.4-9.6-31.4-21.4-31.4-16 0-35.8 14.4-42.6 25.9v71c0 19.8 5.4 22.4 23.7 25v9.6h-73.6V984c18.2-2.6 23-5.1 23-25v-66.6c0-22.1-7-30.4-22.7-30.4-13.4 0-28.5 14.7-39.4 25.6v70.7c0 20.2 8 23 24.3 25.6v9.6H4319V984c17-2.6 25.6-5.8 25.6-25.6v-68.2c0-19.8-5.1-21.4-23.3-23.6zM4098.6 959c0 19.2 8.3 22.4 24.3 25v9.6H4048V984c16-2.6 23.7-5.8 23.7-24.6V810.2c0-19.8-5.4-21.4-23.7-23.7V777c18.6-2.6 26.6-5.1 39.7-10.6h10.9V959zM3640 786.6V777c18.6-2.6 26.6-5.1 39.7-10.6h11.5V914.8l42.2-39.4c4.2-3.8 7.7-8.3 7.7-11.5 0-5.1-8-7.7-14.7-7.7v-9.9h71.7v9.9h-.6c-24 2.6-26.9 5.4-46.1 22.4-1.3 1-2.6 1.9-3.8 3.2 0 0-12.5 10.9-14.7 12.8l42.9 63.7c14.4 21.1 15.7 23 35.2 25.6v9.6h-76.8V984c9.3-1.9 16-3.2 16-9.6 0-3.2-1.9-8.3-7-15.7l-30.1-45.1-21.8 20.2v24.6c0 19.8 3.8 23.4 24.3 25.6v9.6H3640V984c19.2-2.6 23.7-5.8 23.7-25.6V810.2c0-19.8-5.5-21.4-23.7-23.6zM3357.4 866.9v-9.6c18.6-2.6 26.6-5.1 39.7-10.6h10.6v136.6c0 52.2-15.4 74.6-52.8 74.6-20.8 0-34.9-6.7-34.9-17.9 0-7.7 6.7-14.1 15-14.1 4.2 0 6.1 1.6 11.2 8 6.1 7.4 9 10.6 15.7 10.6 16 0 18.9-9.6 18.9-61.8v-92.2c0-19.8-5.1-21.4-23.4-23.6zm36.5-82.9c9.3 0 17 7.4 17 16.6s-7.7 16.6-17 16.6-17-7.4-17-16.6 7.7-16.6 17-16.6zM3018.6 958.1c0 17 5.4 22.7 24.3 25.9v9.6H2968V984c18.6-2.9 23.7-8.6 23.7-25.6v-68.2c0-19.8-5.4-21.4-23.7-23.7V857c18.6-2.6 26.6-5.1 39.7-10.6h10.9v111.7zm3.2-157.8c0 9.6-7 16.3-17 16.3-9.9 0-17-6.4-17-16s7.4-16.6 17.3-16.6 16.7 6.7 16.7 16.3zM2582.6 810.2c0-19.8-5.4-21.4-23.7-23.7V777c18.6-2.6 26.6-5.1 39.7-10.6h11.5v103.3c19.2-17.3 35.2-24 55.7-24 28.5 0 41.9 13.8 41.9 43.5V959c0 19.2 8.3 22.4 24.3 25v9.6h-75.5V984c16-2.6 23.7-5.8 23.7-24.6v-68.8c0-19.8-8.3-28.8-24.3-28.8-14.4 0-29.4 7.7-45.8 24.3v73c0 19.2 8.3 22.4 24.3 25v9.6h-75.5V984c16-2.6 23.7-5.8 23.7-24.6V810.2zM2331.8 844c-4.2 0-7 2.2-13.1 11.5 19.5 11.2 26.9 30.1 26.9 43.8 0 39-36.5 57.3-68.2 57.3-5.4 0-10.9-.3-16-1.6-12.5 4.5-17.3 8.3-17.3 11.5 0 4.2 8.3 7.4 17.6 8.3l54.1 5.8c24.3 2.6 42.6 10.9 42.6 32.3 0 29.1-25.9 44.8-71.7 44.8-44.5 0-74.2-17.6-74.2-36.5 0-10.2 6.1-19.2 26.9-26.6-7.4-2.6-22.4-11.2-22.4-22.1 0-7.7 6.4-15.4 27.2-23-21.1-9.6-31.7-29.1-31.7-48.3 0-27.5 22.1-55.4 66.9-55.4 10.2 0 19.5 1.3 28.5 4.8 9-18.2 18.9-26.6 32-26.6 10.6 0 17.3 5.4 17.3 14.1 0 6.7-3.8 11.5-9.9 11.5-6.8.2-9.4-5.6-15.5-5.6zm-47.3 196.5c33.3 0 54.1-9.9 54.1-21.1 0-7.4-6.1-12.8-29.4-15.4l-55-6.1c-19.2 6.7-24.3 12.2-24.3 19.5-.1 13.5 19.1 23.1 54.6 23.1zM2239.4 900c0 23 17.9 40.6 40.3 40.6 21.8 0 39-17.6 39-40.6s-16-38.1-39-38.1c-23.4.1-40.3 15.4-40.3 38.1zM1940.2 783.8c-10.9 0-18.6 9-18.6 27.2v35.2h27.5v17.3h-27.5v94.7c0 19.8 6.1 23 24.3 25.6v9.6h-76.2v-9.6c18.2-2.6 24.3-5.4 24.3-25.3v-95h-23.7v-17.3h23.7v-17.6c0-36.2 24-62.1 57.6-62.1 17.3 0 29.4 6.7 29.4 17.3 0 7.7-5.8 14.1-13.8 14.1-12.3 0-13.9-14.1-27-14.1zM1526.7 923.4c0 35.8 24 57.3 51.5 57.3 20.2 0 34.6-9.9 45.8-23.7l9.6 5.4-.3.6c-12.8 22.1-36.8 33.6-61.8 33.6-37.1 0-74.2-24.6-74.2-74.9 0-49.3 36.8-75.2 72.3-75.2 31 0 64 20.2 64 67.8h-106.2c0 .2-.7 7.2-.7 9.1zm1.9-22.4h77.4c0-23-18.6-38.4-37.8-38.4-16.8 0-34.8 12.2-39.6 38.4zM1263.7 959.4c0 17.9 5.8 22.1 19.2 24.6v9.6h-46.7v-20.2c-11.8 15.7-27.5 22.7-43.2 22.7-32 0-65-29.1-65-73.3 0-43.8 32.3-78.4 67.8-78.4 13.4 0 27.5 5.8 40.3 17.3v-51.5c0-19.8-5.4-21.4-23.7-23.7V777c18.6-2.6 26.6-5.1 39.7-10.6h11.5v193zm-106.9-36.5c0 28.8 13.1 57.3 40.6 57.3 11.8 0 25.3-7.7 38.7-24v-78.4c-14.4-12.8-26.9-16-37.1-16-27.8 0-42.2 30.7-42.2 61.1zM777.3 922.2c0-54.7 38.4-75.2 73.9-75.2 29.8 0 57.3 14.4 57.3 35.5 0 10.6-7 15.7-14.7 15.7s-15.4-5.4-15.4-15.7v-3.8c0-9.6-12.2-14.4-26.9-14.4-29.8 0-44.8 24.3-44.8 53.8 0 32 17.9 61.4 50.9 61.4 21.8 0 35.8-8.6 47-22.1l9 5.4-.3.6c-12.8 22.1-36.8 33.3-61.8 33.3-37.1 0-74.2-24.3-74.2-74.5zM403.8 786.5v-9.6c18.6-2.6 26.6-5.1 39.7-10.6H455v99.8c13.4-15 30.1-21.8 46.1-21.8 33.6 0 65.9 29.4 65.9 75.5 0 45.4-29.8 76.8-70.1 76.8-16 0-27.5-5.4-46.1-20.2l-6.7 17h-16.6V810.2c0-19.8-5.4-21.4-23.7-23.7zM496 863c-11.8 0-25.6 4.5-41 20.8v78.4c10.2 10.6 25 17.3 39.4 17.3 22.7 0 43.8-16.3 43.8-58.6.1-29.4-14.7-57.9-42.2-57.9zM146.4 901v-16c0-17-16.6-24-32.6-24-14.1 0-27.5 5.8-27.5 15.7v3.5c0 9.3-7 14.1-14.1 14.1-7 0-13.4-4.5-13.4-14.1 0-18.9 27.2-33.3 57-33.3 47 0 57 22.7 57 43.5v60.2c0 18.9 1.9 31.4 10.9 31.4 2.6 0 5.8-.6 9.6-2.9l5.4 8c-4.2 4.2-14.4 9.6-24.6 9.6-10.6 0-21.8-5.1-27.5-21.8-14.7 15.4-31 21.8-46.1 21.8-26.9 0-48-18.2-48-39.7-.2-25.9 32.1-56 93.9-56zm0 56.7v-42.9c-45.8 0-64.6 25-64.6 43.2 0 11.8 7.4 21.4 24.3 21.4 10.2 0 23.7-5.4 40.3-21.7zM4352 465.3l17.3-58.9h157.4l3.8 13.1-131.8 188.8c5.8 3.8 26.9 9.3 50.2 9.3 30.4 0 65.6-9.3 81.6-46.4l8.3 3.5-17.3 58.9h-166.7l-2.9-10.9 132.8-190.1c-7.4-3.5-26.6-10.2-48.6-10.2-26.2 0-57 9.9-75.8 46.4l-8.3-3.5zM4070.1 538.9l-44.8-84.5c-18.2-34.2-23-35.8-37.8-38.4v-9.6h81.3v9.6c-9.9 1.6-17 5.1-17 15 0 5.4 2.2 13.1 7.7 23.7l31 58.6 31-58.6c5.1-9.6 6.7-16.6 6.7-22.1 0-10.9-8-15-16.6-16.6v-9.6h71.7v9.6c-16 2.6-24.3 9-40 38.4l-44.5 83.8v47.4c0 30.1 2.2 34.9 26.2 38.4v9.6h-81.3V624c24.3-3.8 26.2-8.3 26.2-38.4v-46.7zM3755.8 633.6V624c8.6-1.6 16-2.2 16-9.3 0-5.1-3.8-14.1-14.1-29.1l-34.2-51.2-39.7 51.2c-9.6 12.2-13.4 20.8-13.4 26.2 0 8 6.7 10.6 15 12.2v9.6h-71.7V624c15.4-2.6 20.8-6.7 45.8-38.4l52.8-67.5-42.9-63.7c-23-33.9-28.2-35.8-44.2-38.4v-9.6h81.3v9.6c-6.7 1.6-13.4 2.9-13.4 10.2 0 5.4 3.2 14.1 12.8 28.2l25.9 38.4 29.8-38.4c10.6-13.4 14.4-22.1 14.4-27.5 0-7.7-7.7-9.3-14.7-10.9v-9.6h71.7v9.6c-17 2.6-24.6 9.6-47 38.4l-42.9 55 51.2 76.2c21.8 32.3 25.3 35.8 42.9 38.4v9.6h-81.4zM3500.1 454.4l-57.3 179.2h-23.7l-41.9-130.9-42.2 130.9h-22.7l-57.9-179.2c-9.9-31-17-35.8-32.3-38.4v-9.6h81.3v9.6c-13.4 1.9-21.4 6.4-21.4 19.5 0 4.8 1.3 11.2 3.8 18.9l43.5 134.4 37.8-117.4-5.1-17c-9.6-31.7-18.9-35.8-31.7-38.4v-9.6h81.3v9.6c-13.1 1.9-22.1 5.8-22.1 19.2 0 4.8 1.3 11.2 3.8 19.2l43.5 136 42.9-134.1c1.6-4.5 3.8-11.5 3.8-18.9 0-14.4-8.6-19.5-19.8-21.4v-9.6h71.7v9.6c-16.4 2.6-25.4 7.4-35.3 38.4zM3084 454.4l-65 179.2h-27.8l-65.3-179.2c-12.2-33.3-19.8-35.8-32.6-38.4v-9.6h81.3v9.6c-7.7 1.9-20.2 4.2-20.2 20.2 0 4.8 1 10.9 3.8 18.6l52.8 145 51.8-143c1.9-4.8 4.8-13.1 4.8-20.2 0-14.7-10.9-18.6-21.8-20.5v-9.6h71.7v9.6c-13 2.5-22.3 7.3-33.5 38.3zM2727.1 563.4c0 48.3-26.9 72.3-80.3 72.3-55.7 0-82.9-24.3-82.9-71.7V452.3c0-30.1-1.9-34.6-26.2-38.4v-9.6h81.3v9.6c-24.3 3.8-26.2 8.3-26.2 38.4v89.3c0 63.7 12.5 78.1 57.3 78.1 43.5 0 56-18.9 56-79v-88.3c0-30.1-1.9-34.6-26.2-38.4v-9.6h73.6v9.6c-24.3 3.8-26.2 8.3-26.2 38.4v111zM2326.7 621.9v9.6h-82.6v-9.6c24.3-3.8 26.2-8.3 26.2-38.4V430.9c0-9.9-3.2-13.1-14.7-13.1-27.2 0-49 15.7-65.3 48.3l-7.7-3.2 22.4-65.6h9c5.4 7 5.4 7 18.2 7h106.2c12.8 0 12.8 0 18.2-7h9l22.4 65.6-7.7 3.2c-16.3-32.6-38.1-48.3-65.3-48.3-11.5 0-14.7 3.2-14.7 13.1v152.6c.2 30.1 2.4 34.9 26.4 38.4zM1863.4 633.9h-10.9l-17.9-76.8 8.3-2.9c23.7 49.9 56 67.8 83.8 67.8 32.6 0 57-24 57-47.7 0-16.3-11.8-32.6-40.6-41l-40-11.5c-46.4-13.4-64.6-37.1-64.6-59.8 0-31.4 34.9-60.2 75.5-60.2 17 0 34.6 4.5 51.5 16l3.8-11.8h10.6l17.6 60.5-8.3 3.5c-23-39-49.9-52.2-72-52.2-26.2 0-46.1 18.9-46.1 35.5 0 13.8 11.8 28.8 41.9 37.4l36.5 10.6c47.7 13.8 66.9 40.3 66.9 66.2 0 35.5-36.5 70.4-86.7 70.4-20.5 0-41.9-6.4-60.5-20.8l-5.8 16.8zM1560.8 406.4c62.1 0 81.6 33 81.6 64.6 0 29.1-19.2 50.6-48 60.5l40.6 70.4c8.6 15 17.6 19.8 32.3 22.1v9.6h-48.6l-56-97h-43.8v49c0 30.1 2.2 34.6 26.6 38.4v9.6h-81.6V624c24.3-3.8 26.2-8.3 26.2-38.4V454.4c0-30.4-3.2-35.5-26.6-38.4v-9.6h97.3zm-41.9 114.2h37.1c43.8 0 57-24.3 57-51.2 0-28.8-20.5-47-68.5-47-24.6 0-25.6 3.8-25.6 32v66.2zM1249 641c0 24 15.7 36.2 29.4 36.2 10.9 0 20.2-8.6 20.2-25.9h9.6c0 17.6-2.6 45.1-40.3 45.1-5.4 0-50.6-1.6-50.6-57.9h-6.7c-64.6 0-112.6-49.9-112.6-118.7 0-67.2 45.8-116.8 107.5-116.8 61.4 0 107.5 49.6 107.5 116.5 0 48-24.3 89.3-62.1 108.5-1.3 4.3-1.9 8.8-1.9 13zm29.4-117.2c0-61.4-30.7-103.7-73-103.7-42.2 0-73 42.2-73 103.7 0 59.8 29.4 97.3 73 97.3s73-37.4 73-97.3zM782.6 454.4c0-30.4-3.2-35.5-26.6-38.4v-9.6h97.3c62.1 0 81.6 33 81.6 64.6 0 39.7-33.6 65.6-81.9 65.6h-41.6v49c0 30.1 2.2 34.9 26.2 38.4v9.6h-81.3V624c24.3-3.8 26.2-8.3 26.2-38.4V454.4zm28.8 66.2h37.1c43.8 0 57-24.3 57-51.2 0-29.1-20.5-47-68.5-47-24.6 0-25.6 3.8-25.6 30.7v67.5zM377.9 518.7c0-67.2 45.4-116.8 107.5-116.8s107.5 49.6 107.5 116.8c0 67.8-46.4 119.4-107.5 119.4s-107.5-51.5-107.5-119.4zm181.8 4.2c0-60.2-31-103.7-74.2-103.7s-74.2 43.5-74.2 103.7c0 58.9 29.4 97.9 74.2 97.9 44.8 0 74.2-39 74.2-97.9zM207.8 633.6h-28.5l-112-202.2v154.2c0 30.1 1.9 34.6 26.2 38.4v9.6H16.8V624c24.3-3.8 26.2-8.3 26.2-38.4V454.4c0-30.1-2.2-34.9-26.2-38.4v-9.6h71l100.8 182.1V454.4c0-30.1-1.9-34.6-26.2-38.4v-9.6h71.7v9.6c-24.3 3.8-26.2 8.3-26.2 38.4v179.2zM4581.7 56c-24 3.5-26.2 8.3-26.2 38.4v131.2c0 30.1 1.9 34.6 26.2 38.4v9.6h-80.6V264c24.3-3.8 26.2-8.3 26.2-38.4V69.8l-65.9 203.8h-28.2L4366 65.9v159.7c0 30.1 1.9 34.6 26.2 38.4v9.6h-71.7V264c24.3-3.8 26.2-8.3 26.2-38.4V94.4c0-30.1-2.2-34.9-26.2-38.4v-9.6h69.8l62.1 192.6 62.1-192.6h67.2V56zM3997.1 273.6V264c24.3-3.8 26.2-8.3 26.2-38.4V94.4c0-30.1-2.2-34.9-26.2-38.4v-9.6h81.9V56c-24.3 3.8-26.2 8.3-26.2 38.4v131.2c0 27.5 3.2 32 39.7 32 48 0 55-11.5 73-46.4l8.3 3.5-17.3 58.9h-159.4zM3677.3 159.7l62.7-65c13.4-13.8 17.9-22.7 17.9-28.5 0-6.4-6.7-9-13.8-10.2v-9.6h71.7V56c-14.4 2.6-16.6 4.5-49.3 38.7l-30.4 31.7 52.5 99.2c16.6 31.7 25.9 35.8 40 38.4v9.6h-81.3V264c9-1.6 16-3.5 16-12.8 0-5.4-2.6-13.4-9-25.6l-40.3-76.5-36.8 38.1v38.4c0 30.1 2.2 34.9 26.2 38.4v9.6h-81.3V264c24.3-3.8 26.2-8.3 26.2-38.4V94.7c0-30.1-2.2-35.2-26.2-38.7v-9.6h81.3V56c-24.3 3.8-26.2 8.6-26.2 38.7v65zM3347.5 56v-9.6h82.6V56c-24 3.2-26.6 8.3-26.6 39.4v170.2c0 43.8-19.8 70.4-60.8 70.4-21.4 0-35.5-8.6-35.5-21.4 0-8.6 6.4-14.4 15.4-14.4 16.3 0 14.4 19.8 32.6 19.8 12.5 0 18.9-14.1 18.9-55V95.4c0-31.1-3.2-36.5-26.6-39.4zM3019.8 225.6c0 30.1 2.2 34.9 26.2 38.4v9.6h-81.3V264c24.3-3.8 26.2-8.3 26.2-38.4V94.4c0-30.1-2.2-34.9-26.2-38.4v-9.6h81.3V56c-24.3 3.8-26.2 8.3-26.2 38.4v131.2zM2672.3 56v-9.6h81.3V56c-24.3 3.8-26.2 8.3-26.2 38.4v131.2c0 30.1 2.2 34.9 26.2 38.4v9.6h-81.3V264c24.3-3.8 26.2-8.3 26.2-38.4v-60.5h-106.2v60.5c0 30.1 2.2 34.9 26.2 38.4v9.6h-81.3V264c24.3-3.8 26.2-8.3 26.2-38.4V94.4c0-30.1-2.2-34.9-26.2-38.4v-9.6h81.3V56c-24.3 3.8-26.2 8.3-26.2 38.4v54.7h106.2V94.4c.1-30.1-2.2-34.9-26.2-38.4zM2369.8 226.2v48H2356l-9.3-23c-21.4 18.2-39.7 26.6-63 26.6-64.3 0-107.8-47.4-107.8-117.4 0-72.6 41.6-118.1 107.8-118.1 18.9 0 32.6 3.8 48.6 15.4l3.5-10.6h10.6l17.9 59.8-8.3 3.5c-19.8-36.5-43.8-50.9-73.9-50.9-45.1 0-73 35.5-73 98.9 0 64.3 29.1 102.1 74.2 102.1 26.9 0 48-13.1 56.3-34.2 2.2-6.1 3.8-13.1 3.8-20.5 0-18.9-8.3-26.6-29.8-29.4v-9.6h81.3v9.6c-24.5 6-25.1 7.6-25.1 49.8zM1997.4 46.4l17.3 58.6-8.3 2.9c-19.5-38.7-28.2-45.4-79-45.4-31 0-36.2 1.6-36.2 32v54.7h41.9c17.6 0 21.4-3.5 24.3-28.2h9.6v72.6h-9.6c-2.6-24-6.7-28.5-24-28.5h-42.2v60.5c0 30.1 2.2 34.9 26.2 38.4v9.6h-81.3V264c24.3-3.8 26.2-8.3 26.2-38.4V94.4c0-30.1-2.2-34.9-26.2-38.4v-9.6h161.3zM1637.6 46.4l17.3 58.6-8.3 2.9c-19.5-38.7-28.2-45.4-79-45.4-31 0-36.2 1.6-36.2 32v54.7h41.6c17.6 0 21.4-3.5 24.3-28.2h9.6v72.6h-9.6c-2.6-24-6.7-28.5-24-28.5h-41.9v60.5c0 30.1 6.1 32 38.4 32 47 0 56-7.7 75.8-46.4l8.3 3.5-17.3 58.9H1476V264c24.3-3.8 26.2-8.3 26.2-38.4V94.4c0-30.1-2.2-34.9-26.2-38.4v-9.6h161.6zM1194.2 46.4c73.3 0 111.7 48 111.7 114.9 0 66.2-30.4 112.3-111.7 112.3H1105V264c24.3-3.8 26.2-8.3 26.2-38.4V94.4c0-30.1-2.2-34.9-26.2-38.4v-9.6h89.2zm-4.8 17.3c-23.7 0-29.1 3.8-29.1 30.7v131.2c0 26.6 6.1 30.7 29.8 30.7 54.4 0 86.4-25 86.4-92.8 0-67.5-31.4-99.8-87.1-99.8zM907.2 47h10.6l17.3 59.8-8.3 3.8c-19.5-35.8-42.2-51.2-73-51.2-49 0-73 49.3-73 98.9 0 50.9 25 102.1 73.6 102.1 31 0 64-18.2 80.6-47.7l8.3 5.1c-20.5 41.6-54.1 59.8-88 59.8-64.3 0-107.8-47.4-107.8-117.4 0-72.6 41.3-118.1 107.5-118.1 18.9 0 32.3 3.8 48.3 15.4l3.9-10.5zM502.6 46.4c42.6 0 60.5 30.1 60.5 58.6 0 21.1-10.2 41.3-27.5 48 26.6 6.4 42.2 34.6 42.2 62.1 0 29.8-17.9 58.6-60.8 58.6H393.1V264c24.3-3.8 26.2-8.3 26.2-38.4V94.4c0-30.1-2.2-34.9-26.2-38.4v-9.6h109.5zm-19.9 101.1c42.9 0 54.1-20.2 54.1-41.9 0-21.4-9.6-43.2-55.7-43.2-27.8 0-32.6 3.8-32.6 32v53.1h34.2zm-34.2 78.1c0 27.2 4.8 32 34.9 32 52.2 0 68.2-16.3 68.2-46.4 0-22.1-10.6-47.7-68.2-47.7h-34.9v62.1zM88 273.6H14.7V264c15-2.2 25.6-5.8 36.2-38.4l58.2-179.2h32.6l61.8 179.2c10.6 30.4 18.2 35.8 32.6 38.4v9.6h-81.3V264c13.8-1.9 22.4-4.8 22.4-17 0-5.1-1.6-12.2-4.8-21.4L160 190.1H82.6L71 225.6c-1.9 5.8-2.6 10.6-2.6 15 0 13.8 8 21.4 19.5 23.4v9.6zm32.6-198.4h-.6l-32.3 98.9h66.9l-34-98.9z" class="st0"/></svg>