<svg xmlns="http://www.w3.org/2000/svg" xml:space="preserve" baseProfile="tiny" version="1.2" viewBox="0 0 845.9 285.2"><path d="M26.9 10.5c.6 0 1.2.4 1.2 1.2 0 .5-.4.9-.8 1.1v20.1h9.4v-13c0-3.6-.2-15.8-13.1-15.8C18.4 4.1 13 6.4 13 9.2c0 1.5 1.5 2.4 2.9 2.4 1.8 0 2.8-.8 2.8-1.8 0-.7-.5-1.1-1.1-1.1-.4 0-.7.1-1.1.4l-.4-.4c.4-.4 1-.5 1.4-.5.9 0 1.6.6 1.6 1.7 0 1.2-1.1 2.3-3.3 2.3-1.6 0-3.5-1.1-3.5-3.1 0-3.2 5.7-5.8 11.2-5.8 5.9 0 13.8 2.6 13.8 16.5v13.5h-10v1.3h11.2v-18c0-4.8-3.5-14.3-14.6-14.3-9 0-12.8 3.8-12.8 6.8 0 2.7 2.2 4 4.5 4 3.9 0 5.1-3 5.3-3.5.1.3.5 1.3.5 2.6 0 4.4-3.2 5.8-6.7 5.8-5 0-8-3.3-8-7.4C6.7 5.7 11.6.4 24.3.4c5.1 0 9.8 2 13.7 5.9 4.4 4.2 7 5 14.1 5.8-.2.3-7.9 3.1-7.9 22.4h2.1c2.5 0 4.6-.2 7.3-1.5.7-.4 1.2.3.9.7-.3.4-1.6 2.2-10.3 2.2v12c0 10 7.6 12 7.9 12.1-.3.2-10 1.1-10 16.6 0 0-3.6-3.9-3.6-16.3V36H27.3v1.3h10V62c0 7.1 1.8 16.9 6.4 18-.2-1.3-.3-2-.3-3.3 0-9.6 4.5-12.4 7-12.4 3.1 0 4.6 2.2 4.6 4.3 0 2.5-1.9 3.7-3.6 3.7-1.8 0-2.9-1.4-2.9-2.8 0-1.6 1.4-2.6 2.3-2.6.8 0 1.7.4 1.9 1.8l-.5.1c-.2-1.2-.7-1.4-1.3-1.4-.7 0-1.7.8-1.7 2.1s.9 2.2 2.2 2.2c1.3 0 3-.8 3-3.1 0-1.8-1.2-3.7-4-3.7-3.4 0-6.4 4.6-6.4 11.5 0 1.5.1 2.8.4 4.3-5.6 0-7.8-11-7.8-18.4V37.9h-9.4v36.6c.4.2.8.5.8 1.1 0 .6-.5 1.2-1.2 1.2-.6 0-1.2-.5-1.2-1.2 0-.5.4-.9.8-1.1V18.4c-.4 0-2 1.5-2 5.9v27.4c0 10.9-3.2 18.4-3.7 18.6-2.2-10.8-3.5-13-10.7-16.1 1.4-.5 9-1.7 9-12.8V36h-1.9c-3.9 0-2.8 5.2-6.1 5.2.3-.4.4-1.1.4-1.5 0-1.4-1.4-1.8-2.9-1.8s-3.7 1.2-3.7 3c0 .9.5 2 1.6 3.1-2.7-.9-4-2.8-4-4.5 0-2.4 2.5-4.9 7.1-4.9h9.4c0-4-.5-6.3-.5-9.6 0-6.3 4.1-7.7 7.9-9.1v-3.2c-.4-.2-.8-.5-.8-1.1.3-.6.8-1.1 1.4-1.1zM101.7 58.6c-1.4 0-2.2-.8-2.2-1.5s.7-1.4 2.3-1.4c1 0 2.3.5 4 1 7.3-3.6 8.8-5.4 8.8-19.9V33c-1.3.4-3.4.9-5.8.9-2.2 0-4.3-.5-6.1-2.1l.5-.5c1.5 1.4 3.6 1.9 5.7 1.9 2.4 0 4.9-.6 6.4-1.1v4.7c0 15.2-2.2 16.6-8.9 20.2 3 1.4 9.8 4.6 9.8 13.3 0 5.4-3.4 7.7-6.8 7.7-4.6 0-6.7-3.4-6.7-6.5 0-2.6 1.6-4.9 4.7-4.9 2.3 0 4.2 1.3 4.2 3.7 0 1.5-1 3-2.8 3-1.3 0-2.5-.5-2.5-2.6h.5c0 .4 0 2 1.9 2 2.2 0 2.3-2.1 2.3-2.3 0-2.1-1.8-3.1-3.6-3.1-2.8 0-4 2.2-4 4.4 0 2.8 2 5.8 6 5.8 3.1 0 6.1-2.1 6.1-7.1 0-8.7-6.9-11.6-9.7-13-1.7.7-3.1 1.2-4.1 1.2zm.2-2.3c-1.2 0-1.7.2-1.7.7s.6.9 1.6.9c.8 0 2.1-.4 3.3-.9-1.3-.4-2.4-.7-3.2-.7zm23-42.4c.6 0 1.2.5 1.2 1.2 0 .5-.4.9-.8 1.1v11h3.1c6.1 0 8.8-5.1 8.8-11 0-8-3.9-11.8-6.7-11.8-2.2 0-3.4 1.3-3.4 3.1 0 1.2 1.1 2.2 2.4 2.2.7 0 1.7-.5 1.7-1.6v-.4h.6V8c0 1.3-1.3 2.2-2.3 2.2-1.8 0-3-1.3-3-2.8 0-2.1 1.3-3.7 4-3.7 3.1 0 7.3 3.9 7.3 12.5 0 5.6-2.7 11.5-9.4 11.5h-3.1V29h2.5c4.9 0 11.2-2.4 11.2-12.8 0-9.2-4.1-13.7-8.5-13.7-8.2 0-8.2 8.2-8.2 17.5v26.4c0 13.3 0 25.9-4.6 30.1.4-1 .5-2.5.5-4.2 0-5.5-2.1-13.2-9.1-15.2 6.5-3.6 7.5-4.4 7.5-26.2h-1.3c-2.2 0-3.6 1-6.7 1-4.4 0-4.8-3.2-4.8-3.3 0 0 .5.5 1.5.5.9 0 1.5-.5 1.5-3.6 0-1.4 1-3.8 3.8-3.8 2.1 0 3.7 1.8 3.7 5.4-.9-1.2-1.8-1.6-2.3-1.6-.5 0-1.3.5-1.3 1.4 0 1.4.9 2.2 4.6 2.2h1.3v-4.8c0-3.1-.8-9.5-7.1-9.5-1.4 0-2.8.4-4 1.4 0-1.4.1-4.4 8-4.4 5.6 0 6-11.1 17.4-11.1 12.2 0 15.9 8.5 15.9 15.7 0 10-5.8 12.5-9 13.5 6.5 3.1 13.6 6.7 13.6 19.6 0 13.1-7.9 21.3-17.3 21.3-6 0-8.5-3.1-8.8-3.4v11.2c.5.2.8.5.8 1.1 0 .5-.4 1.1-1.2 1.1-.7 0-1.2-.5-1.2-1.1 0-.5.4-.9.8-1.1V16.1c-.5-.2-.8-.5-.8-1.1.1-.6.5-1.1 1.2-1.1zm.4 18.6v32c0 .1 2.5 3.1 7.1 3.1 3.6 0 10.2-2 10.2-16.5 0-7.5-2.4-15-6-17.9-2.2-1.7-4.4-2.4-6.5-2.4h-4.8v1h3.3c11 0 12.8 13.9 12.8 19.7 0 8.2-2.8 14.8-8.7 14.8-3.7 0-5.6-2.9-5.6-5.7 0-3.7 2.7-5.6 5.1-5.6 3 0 4.3 2 4.3 4 0 1.9-1.2 4-3.4 4-2.1 0-3.1-1.2-3.1-2.3 0-1.1.9-2.2 2.5-2.2v.5c-1.2 0-1.9.7-1.9 1.7 0 .8.8 1.6 2.5 1.6 1.8 0 2.7-1.7 2.7-3.3 0-1.8-1.2-3.4-3.7-3.4-2.2 0-4.5 1.6-4.5 5 0 2.5 1.7 5 4.9 5 5.6 0 8.1-6.5 8.1-14.2 0-2.5-.5-19-12.1-19h-3.2zM230.9 71.4v-37c-.4-.2-.8-.5-.8-1.1 0-.6.5-1.2 1.2-1.2s1.2.5 1.2 1.2c0 .5-.4.9-.8 1.1v37.1c5.6 0 8.6-3.2 8.6-6.4 0-3.5-1.6-4.3-2.9-4.3-1.1 0-1.8.8-1.8 1.7 0 .9.4 1.3 1 1.3s1-.4 1.3-.9l.5.2c-.4.9-1.1 1.3-1.7 1.3-.8 0-1.6-.6-1.6-1.9 0-1.3 1.2-2.3 2.4-2.3 1.8 0 3.5 1.4 3.5 5 0 3.4-3.3 7-9.3 7v6.2c.4.2.8.5.8 1.1 0 .6-.5 1.2-1.2 1.2-.6 0-1.2-.5-1.2-1.2 0-.5.4-.9.8-1.1v-2.7c-17.6 0-24.6-18-24.6-36.4 0-15.1 5.8-30.1 17.7-36.1 1.9-.9 3.5-1.4 5.1-1.9 0 0 .3.7 2.5 4.3 2.9 4.8 8.1 13.2 15.4 13.2 5 0 6.3-1.4 7.3-2-1.4 4.4-5.2 5.9-9.5 5.9-13 0-23.1-14.2-23.4-14.2-4 3.6-7.7 15.7-7.7 31 0 16.8 3.3 34.4 17.2 34.4v-1.8c-14.8 0-15.6-22.5-15.6-33.4 0-1.7.3-8.8 1.5-15 .9-4.6 2.7-9.4 6-9.4 1.8 0 2.8 1.2 2.8 2.6 0 1.2-.7 2.4-2.2 2.4-.4 0-.8-.1-1.3-.4l.3-.5c.4.2.7.3 1 .3 1.1 0 1.6-1 1.6-1.9 0-1-.7-2.1-2.2-2.1-1.8 0-4 1.4-5.5 8.9-1.1 5.3-1.5 11.4-1.5 16.6.2 14.6 2.8 31.2 15.1 31.2zm18.4-58.8.3.5c-.5.5-.8.5-1.5.5-1.3 0-2.4-1.2-2.4-2.3 0-1.4 1.3-3.1 3.9-3.1 1.9 0 4 1.4 4 4.3 0 2.5-1.9 4.9-5.6 4.9-7.6 0-13.6-9.8-17.2-16.7l.5-.3c3.8 7.5 9.8 16.4 16.6 16.4 3.3 0 4.9-2.2 4.9-4.2 0-2.6-1.7-3.8-3.3-3.8-2.2 0-3.3 1.2-3.3 2.3 0 .9.7 1.9 1.9 1.9.3 0 .8 0 1.2-.4zm-16.2 61.3c5.9 0 9.6-4.8 9.6-9.1 0-3.5-2.7-6.5-8.4-6.5 1-1.4 3.3-2.6 5.9-2.6 4.8 0 7.6 3.4 7.6 7.5 0 5.7-4.7 12.4-14.8 12.4v-1.7zM326 8.6V10h1.3c4.3 0 7.8 2.1 10.3 6.1 1.4 2.4 2.7 5.4 3.6 8.7 1.6 6.4 1.8 13.5 1.8 22.5 0 2.7-.1 6.7-.6 10.8-.6 4.9-1.8 10.2-5 13.2-1.2-.4-8.6-7-9.8-8.4-1.6-1.9-2.2-3.6-2.2-5 0-2.3 1.4-3.8 3.3-3.8s2.9 1.4 2.9 2.8c0 1.3-.8 2.4-2.3 2.4-.9 0-1.7-.5-1.9-2l.6-.1c.2 1.1.6 1.4 1.3 1.4 1.1 0 1.7-.8 1.7-1.7 0-1.2-.7-2.3-2.3-2.3-1.6 0-2.7 1.4-2.7 3 0 2.3.9 3.3 1.9 4.7.9 1.2 8.1 7.5 9.4 8.2 2.5-2.7 3.8-6.9 4.5-12.5.4-3.1.6-6.8.6-11.3 0-8.5-.1-15.3-1.8-21.9-.8-3.1-2-5.9-3.4-8.4-2.3-3.8-5.5-5.9-9.8-5.9H326v36.6c.4.2.8.5.8 1.1 0 .6-.5 1.2-1.2 1.2s-1.2-.5-1.2-1.2c0-.5.4-.9.8-1.1V5.7c-2.1 2.4-3.2 4.5-4.9 5.9-5.1 4.2-10 2.2-12.1 3.6-.7.4-3 1.9-3 5.4l-.6.5c0-1.1 0-4.1 3.1-6.2 2.6-1.8 7.2.4 12.1-3.6 1.9-1.5 3.1-3.8 5.5-6.7V3c-.4-.2-.8-.5-.8-1.1 0-.6.5-1.2 1.2-1.2s1.2.5 1.2 1.2c0 .5-.4.9-.8 1.1v4.3c2.2-.6 3.9-.9 5.2-.9 6.7 0 19.6 4 19.6 37.5 0 26.7-10.8 30.7-20.8 36.2-2.8-9.4-11.8-15.8-16.2-15.8-5 0-7.2 2.7-7.2 5.4 0 2.6 2.2 5.2 5.5 5.2 2.3 0 4.9-1.4 4.9-4.1.5 1 .7 2.3.7 3.3 0 2.7-1.7 5-5.8 5-3.7 0-7.7-2.8-7.7-7.8 0-10.9 14.4-9.4 14.4-17.5V40.2h-2c-2.3 0-2.9 6.1-5.9 6.5.2-.5.3-.9.3-1.3 0-1.9-1.9-3.2-3.7-3.2-1.4 0-3.1.9-3.1 3.5 0 1.3.3 2.5 1 3.2-2.3-.6-3.3-2.8-3.3-5 0-3 2.1-5.7 4.9-5.7-.2-.5-.3-.9-.3-1.4 0-1.4.5-3 2.6-4-.5.9-.5 1.6-.5 2.3 0 1.4 1 2.3 2.2 2.3 1.1 0 2.3-.7 2.3-2.1 0-.4-.1-.7-.2-1.2 3.5 1.2.7 4.1 5 4.1h.8V37c0-9.5-.2-18-8.1-18-1.3 0-2.7.4-4.4 1.3 0 0 .4-4.6 4.2-4.6 7.7 0 10.8-2.9 13.1-5.7 0 2.3-.6 10.7-.6 29.2 0 15 .2 15.7.6 19.4.6 5.5 11.6 13.4 13.5 14.6 3.2-2.5 7.4-5.1 7.4-31 0-16.5-4-33.6-17.4-33.6H326zm2.5 72.2c-.1-.1-2.3-5.6-6.4-9.8-2.3-2.4-5.8-4.8-8.8-4.8-3 0-4 1.8-4 3.4 0 1.6 1 2.9 2.8 2.9 1.1 0 2.2-.5 2.2-1.6 0-1.4-1.1-1.3-1.6-1.3V69c.6 0 2.3 0 2.3 1.9 0 1.4-1.4 2.3-2.8 2.3-2.2 0-3.4-1.6-3.4-3.5 0-2 1.4-4.1 4.6-4.1.8 0 4.5.3 8.9 4.7 2.2 2.3 4.6 5.5 6.8 10.3l-.6.2zM404.5 35c0-4-.2-14.8-4.6-20.9l.5-.3c1.2 1.5 4.7 7.1 4.7 20.5 0 14.3-3.2 18.3-8.9 20.8.1 0 9.5 3.6 9.5 12.6 0 4.2-2.7 7.7-6.3 7.7-3 0-6.5-1.5-6.5-6.1 0-4 2.7-5.6 5-5.6 2.6 0 3.8 1.9 3.8 3.6 0 1.6-1 3.1-2.7 3.1-1.1 0-2.1-.8-2.1-2.7h.6c0 1.4.7 2.1 1.4 2.1 1.3 0 2.1-1.2 2.1-2.5s-.9-2.9-3.1-2.9c-2.1 0-4.4 1.1-4.4 4.9 0 4 3 5.5 5.9 5.5 3.1 0 5.6-3.1 5.6-7.1 0-6.5-5.3-10.5-9.5-12.2-1.6.9-2.9 1.2-3.9 1.2-1.5 0-2.3-.8-2.3-1.4 0-.8.7-1.4 2.1-1.4 1.1 0 2.5.4 4 1 4.4-2.2 9.1-4.1 9.1-19.9zm-12.8 19.4c-1.1 0-1.5.4-1.5.8 0 .5.5.8 1.6.8.8 0 1.9-.3 3.2-.9-1.4-.5-2.5-.7-3.3-.7zm19.7-49.9v56.2c0 6.3-1 11.1-4.1 14.6 0-.1.7-2.5.7-5.6 0-4.9-1.5-11.6-9.2-14.5 2.6-1.2 7.6-3.3 7.6-20.9 0-11.3-1.8-16.8-4.9-21.3 4.7-1.3 8.6-4.5 9.9-8.5zm38 41.8c0 1-.6 2.1-2.3 2.1-1.7 0-2.6-1.4-2.6-2.8s1-3 3.1-3c3 0 5.4 2.3 5.4 7.8 0 10.8-9.2 19-21 19-6.6 0-13.5-2.9-18.8-10v1.7c3.5 6.1 11.3 9.4 18.8 9.4 11.3 0 22.4-6.8 22.4-20.2 0-4.8-2.3-8.7-6.8-8.7-3.4 0-4.2 1.6-4.2 3.3 0 1.4.6 2.7.6 2.8-3.8 0-5.8-2.7-5.8-5.6 0-4.2 4.2-7 8.5-7 8.4 0 11.7 6.9 11.7 14.4 0 17.8-20.3 24.5-24.2 24.5-1.1 1.3-1.5 1.8-2.3 2.6-.8-.9-1.3-1.5-2.3-2.6-1.3-.2-12.1-3.5-16.5-8.5v12.4c.5.2.8.5.8 1.1 0 .6-.5 1.2-1.2 1.2s-1.2-.5-1.2-1.2c0-.5.4-.9.8-1.1V2.3c-.4-.2-.8-.5-.8-1.1S412.4 0 413 0s1.2.5 1.2 1.2c0 .6-.5.9-.8 1.1v2.3h36.8c-.1.1-9.2 7-10.9 8.3-.8-.9-2.3-3.3-6.2-3.3h-9.9c-3.3 0-5.7.1-9.8 6.5v2c4.8-6.4 6-7.2 8.8-7.2h11.6c2.3 0 3.9 2 5.5 3.8 4.2-3.2 9.4-7.2 11.8-9.1l.5.5c-2 1.5-7.2 5.6-12.3 9.5-2.8-3.2-3.9-4-5.5-4h-11.9c-2.3 0-3.6 1.4-8.4 7.7v10.3h5.2c4.1 0 6.5-.5 6.9-4.2 1.6.8 4.6 2.8 4.6 7.5 0 1-.1 2.1-.4 3.3-2.3-4.3-4.1-4.4-8.1-4.4h-8.2V37c1.2-2.9 2.9-4 4.4-4 2.4 0 3.6 1.7 3.6 3.3 0 1.6-1 3.1-3 3.1-1.5 0-2.4-1.1-2.4-2.2 0-.7.5-1.5 1.5-2l.3.5c-1 .4-1.2 1-1.2 1.5 0 .8.7 1.5 1.8 1.5 1.5 0 2.3-1.3 2.3-2.5 0-1.3-.9-2.7-2.9-2.7-1 0-2.9.4-4.5 5v19.9c5.5 7.8 12.7 10.4 18.7 10.4 11.2 0 20.4-7.6 20.4-18.5 0-5-2.2-7-4.8-7-1.8 0-2.5 1.2-2.5 2.3 0 1.1.6 2.2 2 2.2 1.3 0 1.7-.7 1.7-1.4s-.5-1.4-1.3-1.4v-.5c1.1-.1 1.8.8 1.8 1.8zM514.8 17.4c3.2 2.9 4.3 11.4 4.3 19.1 0 9-1.5 14-4.1 17-1.6 1.9-3.2 2.8-5.4 4.2 1.4.7 3.4 1.5 5.5 3.3 2.4 2.2 4.7 5.6 4.7 9.2 0 3.9-2.7 7.2-7.4 7.2-4.2 0-6.1-3.3-6.1-6.2 0-3.4 2.3-5 4.5-5s3.2 1.5 3.2 3c0 1.8-1.4 2.7-2.6 2.7-1.2 0-2.3-.7-2.3-2.1h.6c0 .9.8 1.4 1.6 1.4 1 0 2.1-.7 2.1-2.1 0-1.1-.7-2.3-2.5-2.3-1.9 0-3.9 1.4-3.9 4.3 0 2.6 1.6 5.7 5.5 5.7 4.5 0 6.8-3.1 6.8-6.7 0-3.1-1.9-6.4-4.4-8.6-1.9-1.7-4.3-2.7-5.8-3.4-1.5.9-2.9 1.3-3.9 1.3-1.6 0-2.5-.9-2.5-1.7 0-.7.7-1.5 2.3-1.5 1 0 2.4.4 4.1 1.3 1-.6 4-2.3 5.6-4.2 2.5-3 4-7.8 4-16.6 0-8.5-1.4-16.6-4.2-18.8l.3-.5zm-10 39.3c-1.1 0-1.6.4-1.6.9s.6 1.1 1.9 1.1c.8 0 2-.3 3.3-1-1.5-.7-2.8-1-3.6-1zm27.4-50.6c3.3 0 3.3-2.5 3.4-2.7 3 2.7 6.4 5.4 11 5.4 3.5 0 7.2-1.5 11.3-6.2 0 .2-.4 12.1-15.6 12.1-4.7 0-9.3-.7-17-3.1v50c0 9.8-4.7 14.3-4.8 14.4.5-1.9.8-3.9.8-5.4 0-7.7-5.3-11.7-9.1-13 .9-.4 3.1-1.4 5-4.5 2-3.1 3.2-10 3.2-17 0-17.5-4.7-19.6-4.7-19.8 1.1-.8 6.8-5.2 6.8-5.3-3.4-1.1-5.3-2.3-8.3-2.3-6 0-7.9 6.6-8.3 7.4V16c0-5 .3-11.7 13.4-11.7 4.6 0 10.4 1.8 12.9 1.8zM534 45c.7 0 1.6-.6 1.6-1.8 0-.9-.6-1.8-2.1-1.8-1.1 0-2.7.8-4.8 2.9V78c.4.2.8.5.8 1.1 0 .6-.5 1.2-1.2 1.2s-1.2-.5-1.2-1.2c0-.5.4-.9.8-1.1V19.5c-.4-.2-.8-.5-.8-1.1 0-.7.5-1.2 1.2-1.2s1.2.4 1.2 1.2c0 .5-.4.9-.8 1.1V37h7.5c3.1 0 3.2-1.7 3.2-2.5.3 0 2.1.7 3.2 2.5.7 1.2.9 2.5.9 3.3 0 .9-.3 1.6-.5 1.9-.4-.9-1.5-3.2-4-3.2h-10.3v4.5c2-1.9 3.6-2.7 4.8-2.7 1.9 0 2.7 1.3 2.7 2.4 0 1.6-1.2 2.4-2.3 2.4-.9 0-1.8-.5-1.8-1.5 0-.3.1-.6.4-1.1l.5.3c-.6 1.1.2 1.7 1 1.7zm3.3-42.6c3 3.3 6.2 4.9 9.8 4.9 4.1 0 5.5-2.3 5.5-4.2 0-1.7-1.2-2.3-2.3-2.3-1.8 0-2.5 1.4-2.5 2.2 0 1.1.6 1.9 1.5 1.9.5 0 .9-.1 1.4-.9l.4.5c-.5.8-1.3 1.1-1.9 1.1-1.1 0-2.2-.9-2.2-2.5 0-1.3 1.1-2.8 3.2-2.8 1.4 0 3 .9 3 3 0 2.3-1.7 4.9-6.1 4.9-4 0-7.3-1.8-10.3-5l.5-.8zM657.2 69.8c0-1.5 1.2-2.4 2.3-2.4 1.3 0 2.7 1.1 2.7 3.1 0 1.7-1.1 3.4-3.5 3.4-3 0-6.6-3.2-6.6-10.9 0-3.4 1.3-10.1 7.4-21.1h-22.6v1.4h20.2s-6.5 9.4-6.5 20.6c0 4 .9 7.5 4.1 10-.1.2-8.1 6.5-17.4 6.5-22.8 0-26.2-16.6-26.9-22-1.9-12.7-2.6-12.5-6-15.1 3.8-1.1 5.5-7.7 7.3-17.1 1.1-5.6 6.7-18.8 24.4-18.8V6c-12.5 0-19.4 5.9-22.9 11.9s-3.2 10.6-5.5 17.7c-1.1 3.6-3.7 5.2-6.2 5.2-2.9 0-5.1-2.3-5.1-4.7 0-3.1 2.2-4.5 4-4.5s3.1 1.4 3.1 3c0 1.3-1.2 2.2-2.3 2.2-1.1 0-2.2-.5-2.2-2.3h.6c0 1.4.7 1.7 1.4 1.7.8 0 1.7-.5 1.7-1.6 0-1.2-1.1-2.3-2.5-2.3s-3.3 1-3.3 4c0 2 2.1 4 4.4 4 2.4 0 4.7-1.4 5.8-4.8 2.1-6.6 1.8-11.3 5.6-17.9 3.5-6.1 10.6-12.1 23.4-12.1v-3c-.5-.2-.8-.5-.8-1.1 0-.7.5-1.2 1.2-1.2s1.2.5 1.2 1.2c0 .5-.4.9-.8 1.1v4.9c13.7 0 15.2.1 17.4.1-.9.7-2.8 4-2.8 8.5 0 .9 0 2.3.3 3.3-2.2-.5-4.8-3.3-4.8-5 0-2.9-.9-5.3-10.1-5.3v22.1c2.4 0 4 1.9 4 3.7 0 1.7-1.2 3.3-4 3.3v3.1h23.7c-5.3 9.4-7.8 16.8-7.8 21.8 0 7.4 3.3 10.3 5.9 10.3 2.1 0 2.9-1.4 2.9-2.8 0-1.8-1.1-2.5-2.1-2.5-.9 0-1.7.7-1.7 1.8 0 .5.2 1 .4 1.4l-.5.5c-.5-1-.5-1.3-.5-1.9zm-21-60.9c-2.7 0-17.5 5.8-17.5 35.7 0 16.6 3.7 33.4 18.8 33.4 5.8 0 11.8-3.7 11.9-4.1-2.7-4-4.9-10.9-4.9-15.6 0-3.6 1.4-6.8 1.4-12.1H637v23.1c.5.2.8.5.8 1.1 0 .6-.5 1.2-1.2 1.2s-1.2-.5-1.2-1.2c0-.5.4-.9.8-1.1V41.9c-4 0-5.7-2.7-5.7-5.5 0-2.7 1.8-5.3 5.7-5.3V8.9zm0 22.8c-3.4 0-5 2.3-5 4.6 0 2.5 1.4 4.9 5 4.9v-9.5zm.7 5.7c2.5 0 3.4-1.3 3.4-2.7 0-1.5-1.3-3.1-3.4-3.1v5.8zM703.2 61.8c0-1.3-.5-2.3-2.2-2.3-1.7 0-4 1.4-4 5.4 0 2.7 1.1 5.9 3.2 7.6 2.3 1.8 4.9 1.9 7.2 1.9 7.8 0 14.8-8.6 14.8-18.4 0-10.2-4.7-13.2-4.9-13.7 3-3.4 4.3-6.4 4.3-10.3 0-23.1-7.2-29.7-13.9-29.7-6.8 0-10.2 4.9-10.2 7.7 0 1.3.8 2.2 1.7 2.2.7 0 1.6-.6 1.6-2.2 0-.2.1-.5 0-.7 1.3.7 1.7 1.8 1.7 3.1 0 2.6-1.8 4-3.9 4-1.9 0-4.8-1.3-4.8-5.6C693.8 6 698.5.5 707.7.5c8.1 0 13.9 4.2 21.3 7.7-2.8 2.5-2.8 7.4-2.8 14.8v28.3c0 18.5-10.3 26-19.3 26-7.2 0-13.9-4.9-13.9-13 0-6.5 4-8.9 7.6-8.9 3.2 0 5.9 2 5.9 5.6 0 2.5-1.8 4.7-4.1 4.7-.6 0-1.2-.3-1.8-.7 2-.4 2.6-1.8 2.6-3.2zm17.6-5.8c0 11.8-7.8 17-14.1 17-4.9 0-8.5-3-8.5-8 0-3.3 1.4-4.7 2.5-4.7.8 0 1.5.6 1.7 1.7l-.5.1c-.1-.7-.5-1.3-1.2-1.3-.8 0-1.9 1.2-1.9 4.1 0 4.8 3.4 7.4 7.9 7.4 5.8 0 13.4-4.9 13.4-16.5 0-9.9-4.5-12.6-5.8-13.6 1.7-1.1 5.5-4.6 5.5-12.5 0-4.7-.3-10-2.2-15.7-2.1-6.1-6-9.9-10.3-9.9-1.5 0-2.9.4-4.4 1.5l-.3-.5c1.3-1.1 3-1.6 4.7-1.6 3.9 0 8.2 2.7 10.9 10.2 1.3 3.7 2.3 8.9 2.3 15.8 0 9.3-4.9 12.5-5.1 12.7.3.4 5.4 3.3 5.4 13.8zm25.3 19.3c0-6.1 2.8-9.8 7.3-9.8 2.9 0 4.2 1.9 4.2 3.9 0 1.8-1.2 3.6-3.1 3.6-1.5 0-3-1-3-2.7 0-1.1.7-2.2 2-2.2.7 0 1.4.5 1.7 1.5l-.5.3c-.3-.9-.7-1.2-1.2-1.2-.9 0-1.3.7-1.3 1.6 0 1.2 1.1 2 2.3 2 1.6 0 2.5-1.5 2.5-3 0-1.6-1.1-3.2-3.6-3.2-4.4 0-6.7 3.9-6.7 9.2 0 1.9.3 3.5.5 5.2-4.7-2.6-6.7-5.9-7.3-11.4-.4-3.1-.5-6.7-.5-11.1V40h-9.9v20.2c.4.2.8.5.8 1.1 0 .6-.5 1.2-1.2 1.2s-1.2-.5-1.2-1.2c0-.5.4-.9.8-1.1V21.7c-.4-.2-.8-.5-.8-1.1 0-.6.5-1.2 1.2-1.2s1.2.5 1.2 1.2c0 .5-.4.9-.8 1.1v13.2h9.9V13.1h.6v22.5h-10.5v1.3h11.9V12.1c.5.7.8 7.6 12.4 7.6-7 5.4-7.3 9.7-7.3 20.3v8.3c0 10.5 2.6 13.2 7.3 14.8-3 .9-9.2 2.4-9.2 13.1-2.2-3.1-3.2-8.4-3.2-16.6V38.1h-11.9v1.3H740v13.5c0 7.2.1 12.2.5 16.3.6 5.5 2.7 8.1 5.8 10.3 0-1.3-.2-2.5-.2-4.2zM810.2 19.8c0-3.5 4.1-5.8 7.2-6.7 4-1.2 7.3-2.3 10.3-4.9 2.5-2.1 3.4-4.7 3.7-5V57.5c0 5.6-1.1 19.7-13.9 19.7v1.1c.5.2.8.5.8 1.1 0 .6-.5 1.2-1.2 1.2s-1.2-.5-1.2-1.2c0-.5.4-.9.8-1.1v-1.1c-5.3 0-8.2-4.7-8.2-9.2 0-4.3 3.1-8.7 8.2-8.7V22c-.5-.2-.8-.5-.8-1.1 0-.6.5-1.2 1.2-1.2s1.2.5 1.2 1.2c0 .5-.4.9-.8 1.1v37.3c3.8 0 6 3.1 6 5.8 0 2.4-1.9 4.7-6 4.7V74c3 0 6.2-1.4 8-5.1l.5.2c-.6 1.6-3.2 5.6-8.5 5.6v.9c6.1 0 10.2-4.9 10.2-9.9 0-3.1-1.4-6.2-4.9-8.5 0-.1 3.2-3.4 3.2-14.4V36c0-17.9-5.2-19.3-9.2-19.3-3 0-4.9 2.5-4.9 5.4 0 .7.1 1.6.4 2.3-1.3-1.7-2.1-3.2-2.1-4.6zm6.7 42.9c-4.2 0-6.2 3.1-6.2 6.3 0 3.3 2.2 6.7 6.2 6.7v-.9c-2.8 0-5.2-2.1-5.2-5.3 0-.8.2-1.9.5-2.6l.5.2c-.3.7-.4 1.7-.4 2.4 0 2.6 2 4.7 4.7 4.7V62.7zm.7 6.2c1.8 0 2.7-1.5 2.7-3.1s-.9-3.1-2.7-3.1v6.2zm18.1-66.7c-.3.4-.5.6-.5.8 0 .4.3.5.5.5.5 0 1-.5 1-1.3 0-.5-.4-1.1-1.1-1.1-.9 0-1.9.6-1.9 2.3v39.4h-.6V3.5c0-2.1 1.3-3 2.5-3 1.1 0 1.7.9 1.7 1.7 0 1.3-.9 1.9-1.6 1.9-.5 0-1.2-.4-1.2-1 0-.4.2-.7.5-1.2l.7.3zM17.1 181c3 0 9.1-.5 13.5-4.7 1.5-1.4 3-3.1 4-5.6 2.1-4.4 2.5-10.1 2.5-17.5v-36.5c0-1.8.4-2.7 1.3-3.4.6-.4 2.8-1.3 5.8-2.3 2.3-.7 3.8-1.3 4.6-2.3.5-.6.9-1.7.9-2.8 0-2.5-2-3.8-3.7-3.8-2 0-3 1.3-3 2.3 0 .9.5 1.8 1.7 1.8.7 0 1.3-.4 1.3-1.5h.5c0 1.5-.8 2.1-1.7 2.1-1.6 0-2.4-1.1-2.4-2.3 0-1.4 1.3-3.1 3.6-3.1 2.1 0 4.3 1.5 4.3 4.4 0 1.3-.4 2.4-1.1 3.2-1 1.2-2.8 1.8-4.9 2.5-2.9 1-4.9 1.7-5.7 2.3-.8.6-1 1.4-1 3v36.4c0 7.5-.5 13.1-2.6 17.5-.7 1.6-2.1 3.8-4.2 5.8-2.9 2.6-7.4 4.9-13.9 4.9-6.8 0-14-2.4-17.1-8.4l.5-.3C2 176 6.8 181 17.1 181zM30 112.5c2.5-.8 3.6-1.2 16.5-5.6l.6 2c-7.5 2.5-8.3 3-9.5 3.8-1.3.8-1.7 1.9-1.7 3.1v40.6c0 18.4-9.4 23.2-19.3 23.2-8.7 0-16.5-5.7-16.5-14.4 0-5.7 4-8.1 7.6-8.1 3.1 0 5.8 2.1 5.8 4.9 0 4-2.8 4.6-4.4 4.6-.5 0-1.1-.1-1.1-.1 1.6-1.1 2-2.3 2-3.1 0-1.3-1.3-2.3-2.7-2.3-1.6 0-3.3 1.5-3.3 5.8 0 4.6 3.8 10.4 12.6 10.4 6.6 0 13.5-4 13.5-15.6v-49.2zm-2.6-3.9c.7 0 1.2.5 1.2 1.2 0 .5-.4.9-.8 1.1v52.6c.5.2.8.5.8 1.1 0 .6-.5 1.2-1.2 1.2-.6 0-1.2-.5-1.2-1.2 0-.5.4-.9.8-1.1v-48.1c-4.8 1.5-12 3.9-12 9.3 0 .4.1 2.5 1.7 2.5.8 0 1.5-.8 1.5-2.2 1.4.4 2.3 1.8 2.3 3.2 0 2.2-1.6 3.1-3.5 3.1-2.3 0-5-1.8-5-5 0-8.1 9.4-11.2 15-13v-2.5c-.5-.2-.8-.5-.8-1.1 0-.6.4-1.1 1.2-1.1zM114.6 131.2c-1.4 0-1.9.7-1.9 1.3s.7 1.4 1.3 1.4c.4 0 1-.3 1.5-.8-.4 3.1-2.1 4.5-3.7 4.5-2.3 0-3-2-3-3.2 0-.8.5-2 .5-2.9 0-2.2-.8-2.3-1.4-2.3-.5 0-.8.2-1.2.4 1.4-1.8 2.5-2.5 4-2.5.9 0 1.9.3 3.1.9 2.1 1 4.2 2.6 6.6 3.1v-6.3c0-4.6-2.2-9.6-6-12.8 1.4-.3 6.2-1.8 9.1-4 .7-.5 7.7-6.5 12.8-6.5 7.2 0 10.6 5.6 10.6 10 0 4.3-2.3 5.8-4.5 5.8-2 0-3.8-1.4-3.8-3.7 0-1 .7-2.2 1.7-3.1 0 1.4 1.1 2.3 2.1 2.3.8 0 1.8-.7 1.8-2.3 0-2.8-2.9-7-7.4-7-10.3 0-11.9 17.7-11.9 27.1V157c0 17.5-10.3 24.5-20.2 24.5-9.1 0-13.5-7.1-13.5-13.6 0-7.3 4.6-10.3 8.4-10.3 3.9 0 6.5 3.3 6.5 6.2 0 2.4-1.7 4.6-6.3 4.6 1.9-1.1 2.6-2.5 2.6-3.6 0-2-1.4-3.1-3.1-3.1-2 0-4.9 2-4.9 6.7 0 7.5 4.3 10.7 9.1 10.7 7.7 0 16.3-7.6 16.3-20.6 0-4.1-1.2-8.8-4-13.7 1.7-1.5 4.6-2.3 4.6-12.3 0 0-3.7-1.3-5.8-1.3zm-13.4 33.6c0 .5-.2 1.1-.6 1.6l-.6-.4c.5-.5.6-.9.6-1.3 0-1-.6-1.3-1.2-1.3-1.9 0-3.1 2.3-3.1 4.9 0 6.2 3.2 8.8 7 8.8 6.7 0 14.8-7.6 14.8-19.1 0-3.4-1.1-8.1-4.3-13.2-.6.5-1.4.6-2 .6-1 0-1.9-.5-1.9-1.4 0-.8.7-1.4 1.7-1.4.7 0 1.6.4 2.3 1.2 1.9-1.2 2.9-2.5 3.6-4 .9-2 1.2-4.3 1.2-6.8h.6c0 2.8-.4 5.1-1.3 7.1-.7 1.7-1.9 3.1-3.8 4.3 3.3 5.4 4.4 9.9 4.4 14 0 11.3-8.5 19.3-15.4 19.3-4 0-7.6-2.8-7.6-9.4 0-2.9 1.4-5.6 3.8-5.6.9.1 1.8.8 1.8 2.1zm10.4-21.3c-.6 0-1.1.3-1.1.7 0 .4.5.7 1.2.7.5 0 1.2-.2 1.7-.5-.6-.6-1.3-.9-1.8-.9zm44.8 26.9c0-3.8-2.4-5.6-4.8-5.6-2.2 0-4.1 1.4-4.1 4.4 0 2 1.2 3.9 3.4 3.9 1.7 0 3-1 3-3 0-1.3-.7-2.5-1.9-2.5-.7 0-1.4.5-1.4 1.8h-.6c0-1.6 1.1-2.4 2.1-2.4 1.6 0 2.5 1.5 2.5 3.1 0 2.4-1.7 3.6-3.5 3.6-2.8 0-4.1-2.2-4.1-4.5 0-3.3 2.3-5 4.8-5 2.6 0 5.4 2 5.4 6.3 0 4-2.8 8.6-8.5 8.6-4 0-6.6-1.7-8.5-5-.5-.9-3-5.6-3-13v-2.9c0-3.9-1.1-8.9-4.4-8.9-1.4 0-3 1.5-5.2 3.1V173c.4.2.8.5.8 1.1 0 .6-.5 1.2-1.2 1.2-.6 0-1.2-.5-1.2-1.2 0-.5.4-.9.8-1.1v-42.5c-.4-.2-.8-.5-.8-1.1 0-.6.5-1.2 1.2-1.2.6 0 1.2.5 1.2 1.2 0 .5-.4.9-.8 1.1v15c5.8-2.7 7.8-7.6 7.8-11.2 0-2.8-1.4-3.8-2.4-3.8-1.3 0-2.1.8-2.1 2.3h-.6c0-1.8 1.3-2.9 2.7-2.9 1.5 0 3.1 1.4 3.1 4.5 0 3.4-1.9 9-8.5 12v1.4c6.7-2.7 9.9-8.9 9.9-13.4 0-3.3-1.5-6-4.9-6.5 4.7-1.5 7.5-4.5 8-8.3 3.9 2.4 5.3 6.7 5.3 10.9 0 6.3-4.3 12.2-9 14.3 5.5 1.7 6.8 5.3 7.4 8 .5 2.3 1.4 4.6 4.5 5.4-2.6 1.3-4.1 5-4.1 8.4 0 5.1 2.5 8.9 5.9 8.9.4 0 1-.2 1.4-.4-.8 1.3-2.2 2.1-3.8 2.1-4 0-9.1-5-9.1-18.8 0-4.5-1.1-11.1-5.8-11.1-2.7 0-5.8 2.6-5.8 2.9v1.3c1.6-1.1 3.6-2.9 5.2-2.9 2.3 0 5 2.3 5 9.5v3.6c0 .3 0 6.8 2.9 12 1.6 2.8 3.8 4.8 8 4.8 5.3 0 7.8-4.2 7.8-8.1zm-14.1-60c-.4-1.3-.8-2.2-1.6-3.2-1.1-1.3-2.2-2.1-3.9-2.1-1 0-4 .4-7.2 7.1-1.5 3.3-2.3 8.5-2.3 14 7-1.3 9.7-4.7 9.7-7.4 0-2.3-1.4-3.4-3-3.4-1.5 0-2.3 1.1-2.3 2.3 0 1.4.9 2.2 1.6 2.2.6 0 1.2-.5 1.2-1.4v-.4l.6-.1v.5c0 1.3-.9 1.9-1.7 1.9-1.1 0-2.3-.9-2.3-2.8 0-1.5 1-3 2.9-3 1.8 0 3.6 1.3 3.6 4 0 3.1-3 6.8-11 8.1 0-6.8.8-11.9 2.4-15.3 2.4-5.3 5.4-7.2 7.6-7.2 1.6 0 3.1.8 4.3 2.3.8 1 1.4 2.2 1.8 3.6l-.4.3zM208.6 167.3c0 3.8-.4 7.9-2.6 13l-.4-.7c1.4-3.4 2.3-5.8 2.3-12.7 0-6.7-5-14.2-8.4-17.1 1-.8 3.6-3.3 4.5-5.3.8-1.8.9-3.7.9-6.2v-9.1c0-7.8-.6-10.9-5-13.9l.4-.5c5 3.3 5.3 7 5.3 15.8v8.5c0 1.6-.1 3.6-1 5.5-1.1 2.2-2.8 3.7-4.1 5 1.2 1.3 8.1 8.7 8.1 17.7zm5.2-46.5v34.6c0 12.5 0 18.1-5.8 23.5 1.4-3.8 2-7.5 2-10.6 0-9.3-4.9-15.7-7.6-18.4 4.1-4.1 4.7-5.1 4.7-15.9v-4.1c0-10.1-.5-12.1-6.3-16.4 3.2-.7 5.7-2 7.2-3.3 7.6-6.3 9.1-8.2 14.3-8.2 2.7 0 6 .7 7.5 4.1-.7-.4-2.1-1.8-5.7-1.8-8.6-.2-10.3 9.6-10.3 16.5zm27.8 46.7c0 3 2.3 4.5 4.9 4.5 5 0 7.6-3.5 7.6-6.9 0-3.1-2.1-6-6.3-6-6.8 0-16.7 6.6-20.2 19.4-6.1-1.4-10-5.9-10.7-6.7v7.8c.5.2.8.5.8 1.1 0 .7-.5 1.2-1.2 1.2s-1.2-.4-1.2-1.2c0-.5.4-.9.8-1.1v-58c-.5-.2-.8-.5-.8-1.1 0-.7.5-1.2 1.2-1.2s1.2.5 1.2 1.2c0 .5-.4.9-.8 1.1v5c.5-1.1 1.2-2.3 1.5-3 1.9-3.6 5.2-4.7 7.7-6.1 2.4-1.3 3.5-3.4 3.5-5.4 0-3.1-2.3-5.8-5.8-5.8-3.8 0-5.6 3.1-5.6 5.6 0 3.3 2.3 4.2 4.1 4.2 1.9 0 3.7-1.4 3.7-3.3 0-1.2-1-2-1.8-2-.5 0-.8.1-1.3.8l-.6-.3c.6-1 1.2-1.2 1.9-1.2 1.2 0 2.4 1.1 2.4 2.7 0 2.3-2.2 3.9-4.3 3.9-2.3 0-4.8-1.4-4.8-4.9 0-2.9 2.1-6.2 6.2-6.2 3.9 0 6.4 3.1 6.4 6.3 0 2.2-1 4.3-3.5 5.8s-5.8 2.4-7.6 5.8c-.6 1.1-1.4 2.7-2.3 4.4v37.8c.8.5 1.7 1.3 2.5 1.7 5.9-5.9 15-14.8 24.5-14.8 10.2 0 14.8 6.5 14.8 13s-4.5 13-12.2 13c-1.1 0-3.8 0-5.9-1.6-1.8-1.4-2.7-3.6-2.7-5.9 0-2 .6-4 1.8-5.6l.4.3c-.9 1.3-1.6 3.3-1.6 5.2 0 2.1.8 4.1 2.4 5.5 1.2 1 3 1.5 5.6 1.5 7.3 0 11.6-6.1 11.6-12.3 0-6.2-4.3-12.4-14.1-12.4-9.5 0-19.1 9.6-24.4 14.9-1.3-.7-2.4-1.6-2.6-1.7v1.4c.5.3 2.3 1.5 2.7 1.5 0 0 13.9-15.1 24.3-15.1 8.8 0 12.7 5.8 12.7 11.4s-3.8 11.2-10.4 11.2c-3.4 0-6.5-2.3-6.5-6.2 0-1.9.9-3.8 2.1-4.9 0 .8-.1 1.2-.1 1.7zM320.6 111.1c-3.8 0-8.3 4.2-8.3 12.2V153c0 7.5-.2 13.1-6.2 20.2-3.7 4.3-7.9 6.3-12.3 6.3-8.5 0-12.8-7.3-12.8-13.4 0-1.1.3-8.6 7.3-8.6 4 0 6.2 3.1 6.2 5.9 0 .4-.3 4.7-6.2 4.7 1.8-1.3 2.4-2.6 2.4-3.7 0-1.5-1.4-2.8-2.9-2.8-1.6 0-3.3 1.5-3.3 5.8 0 6.9 4.3 10 9.1 10 3.9 0 7.5-1.7 10.1-5.5 4-5.8 4.1-6.1 4.1-21.3v-21.3c0-4.9-3.5-10.2-6-11.8 11.1-3.4 19.2-16 19.3-16 .4.5 11.5 15.5 11.5 16.5v55.3c-.1-.1-4.5-6.6-4.5-6.7v-44.2c0-7.8-3.7-11.3-7.5-11.3zM286.3 179c2.5 1.4 5.3 1.8 7.8 1.8 11.2 0 19.7-12.1 19.7-21.9v-35.5c0-7.8 3.2-10.8 6.6-10.8 4 0 5.8 3.2 5.8 6.4 0 3-1.8 5.8-5.6 5.8-1.9 0-3.9-1.3-3.9-4.5 0-3.1 2-4.3 3.8-4.3 1.9 0 2.9 1.4 2.9 2.8 0 1.5-1.2 2.5-2.2 2.5-.4 0-1.3-.1-1.8-1.5l.5-.3c.3.7.6 1.2 1.2 1.2.9 0 1.7-.7 1.7-1.9 0-1.1-.7-2.2-2.3-2.2-1.5 0-3.1 1-3.1 3.8 0 1.1.3 3.8 3.4 3.8s4.8-2.4 4.8-5c0-3-1.6-5.9-5.2-5.9-3.2 0-5.9 3.2-5.9 9.5v35.5c0 11.7-9.4 23.1-20.3 23.1-2.7 0-5.5-.4-8.1-1.9-1.9-1.1-3.3-2.8-5-4.9l.5-.4c1.4 2.1 2.9 3.7 4.7 4.8zm64.3-29.3v-36.9c0-1.2-1.1-2.3-2.7-2.3-.9 0-2.1.3-3.9 3-1.8 2.8-3.4 6.1-5 10.3-1 2.5-2.3 5.4-3.9 9.2v40.7c.5.2.8.5.8 1.1 0 .6-.5 1.2-1.2 1.2s-1.2-.5-1.2-1.2c0-.5.4-.9.8-1.1V111c-.5-.2-.8-.4-.8-1s.5-1.2 1.2-1.2 1.2.5 1.2 1.2c0 .5-.4.8-.8 1v3.6c.1 0 1.8-3.1 5.5-6.3 3.6-3.1 8.8-6.8 15.6-6.8 9.2 0 13 4.8 13 10 0 4-2.3 5.6-4.6 5.6-3.1 0-3.9-2-3.9-3.7 0-1.3.4-2.6.5-2.7 0 0 .7 1.3 2.7 1.3 1.2 0 2.1-.8 2.1-2.5 0-2.4-2.1-5.1-8.5-5.1h-.5v28.1c0 12 .5 13.7 2.6 13.7 1 0 2.5-.4 4-.4s3.2.2 4 1.9c-.2 0-1.1-.3-1.6-.3-1.6 0-3.7.7-6.1 3.3-3.1 3.4-5.7 8.2-10.6 8.2-1.2 0-2-.3-2-.3 3.4-1.8 5.2-3.8 5.2-8.7V114c0-3.6-1.3-5.2-3.9-5.2-5.7 0-8.1 6.1-13.5 19.8v2.7c1.4-3.1 2.4-5.8 3.3-7.9 2.8-6.5 4-8.5 5-10.2 1.2-1.8 2.6-3.2 4.4-3.2.9 0 3.3.2 3.3 3.2v34.2c0 5.5 0 6.7-4.5 9.6-2.5 1.6-2.7 1.9-2.7 4.5v.9h-.5v-.9c0-2.2.1-3.5 2.9-4.9-.4.2-1.2.4-2 .4-2.4 0-5.7-1.2-5.7-5.1 0-2.6 1.7-5.1 4.8-5.1 2.7 0 3.9 1.9 3.9 3.7 0 2.3-1.8 3.4-3.3 3.4-1.3 0-2.4-.8-2.4-2.3 0-1 .6-1.8 1.3-1.8.6 0 1.2.2 1.6 1.1l-.5.4c-.3-.6-.7-.8-1-.8-.5 0-.8.5-.8 1.2 0 1 .8 1.6 1.8 1.6 1.3 0 2.7-1 2.7-2.8 0-1.4-.8-3.1-3.2-3.1-2.7 0-4.1 2.2-4.1 4.6 0 3 2.3 4.4 5 4.4 2.1 0 4.9-1.2 5.8-3.6.2-.8.4-1.8.4-3.1zM408.3 117.1c0 1.9-1.1 3.4-3.5 3.4-2.3 0-4.9-1.7-4.9-5.1 0-3 3.2-6.9 7.8-8.2 5.4-1.5 9.3-5.4 9.4-5.7v8.9c0 1.8.1 2.7.5 2.7.6 0 2.4-1.2 2.4-1.2v3.5l-3 2v41.3c0 5.4 3.4 8.1 5.6 8.1 0 0-1.3 1-3.2 1-1.7 0-3.9-.8-5.8-3.9-1.5-2.5-5.6-6.9-8.6-6.9-.9 0-1.5.3-2.4.6.7-2.5 2.4-2.7 5.4-2.7 1.9 0 4.2-.2 4.2-5.2v-10.4c0-4-1.3-4.8-1.8-5.1 1.4-1.4 1.8-2.3 1.8-4.2v-21.2c-6.4 0-8.6 2.8-8.6 4.9 0 1.3.6 2.4 1.8 2.4.7 0 1.6-.4 2.2-1.4.5.7.7 1.6.7 2.4zm2.9 1.8v10.2c0 2.2-1.1 3.9-2.5 5.2.9.7 2.5 1.8 2.5 4.4v10.7c0 1.7-.1 2.8-.6 3.4-.7.8-1.6.8-3.6.8-1.3 0-2.7 0-4.2 1.9l-.5-.4c1.8-2.1 3.1-2.2 4.9-2.2 1.4 0 2.3 0 2.8-.5.4-.4.6-.7.6-2.6v-11.2c0-2.3-1.5-3.4-3-4.4 1.8-1.2 3-3.1 3-5.1v-17.9l-1.4 1.4c.4.7.9 2.6.9 4.2 0 4-2.9 5.4-5.3 5.4-1.6 0-3.6-.6-4.8-2.1v-.8c1.3 1.4 2.6 2.3 4.9 2.3 2.2 0 4.6-1.2 4.6-4.8 0-1.3-.3-2.7-.7-3.8-.5.4-1.1.5-1.5.5-1.1 0-1.6-.7-1.6-1.4 0-.6.6-1.3 1.6-1.3.6 0 1.3.4 1.7 1.2 1.4-1.3 2.3-2.2 2.3-2.2v9.1zm-4-7.3c-.6 0-1 .4-1 .7 0 .4.2.7 1.1.7.5 0 .8-.2 1.2-.5-.4-.7-.8-.9-1.3-.9zm14.5 44.4c.4.2.8.5.8 1.1 0 .7-.5 1.2-1.2 1.2-.6 0-1.2-.4-1.2-1.2 0-.5.4-.9.8-1.1v-48.1c-.4-.2-.8-.5-.8-1.1 0-.6.5-1.2 1.2-1.2.6 0 1.2.5 1.2 1.2 0 .5-.4.9-.8 1.1v3.1c3.4-2.3 8.6-5.4 10.3-6.1 7.1 1.4 11.2 8.6 11.2 10.1v49.9c0 7.2 5.9 12 11.6 12 6.8 0 10.8-5.5 10.8-10.3 0-5.6-4-8.1-7.6-8.1-2.8 0-5.3 1.7-5.3 4.8 0 2.4 1.9 4.9 4.5 4.9.7 0 1.5-.6 2.3-1.4 0 2.6-2.2 4-4.5 4-4.5 0-6.8-3.2-6.8-6.7 0-3.9 3-8 9.3-8 5 0 10.3 3.2 10.3 10.4 0 6.3-4.6 13.4-13.4 13.4-7.5 0-14.9-5.8-14.9-16.7 0-6-3-6.7-3.3-7.2v-41.7c0-4.3-.4-6.4-2.5-6.4s-5.1 2.6-11.8 7.4v1.6c4.5-3.2 9.4-7.2 11.2-7.2.6 0 1.3.3 1.6 1.1.2.4.2 1.2.2 2.1v44.6c0 .1 3.1.4 3.1 4.5 0 3.5.4 9.2 4 13.7 4.2 5.2 9.3 5.8 14.1 5.8v.6c-5.3 0-10.4-.7-14.7-6-2.5-3.2-4.1-7.4-4.1-14 0-4-3.1-4-3.1-4v-46c0-1.3-.5-1.6-1.2-1.6-1.3 0-3.9 1.9-11.2 7.3V156zM522.5 103.3c8.5 0 18.1 4.9 23.7 19.3 5 12.6 2 19.7 6.8 22-2.3 1.4-2.9 9-5.7 16.8-3.5 9.9-13.9 14.3-22 14.3v3.8c.5.2.8.5.8 1.1 0 .6-.5 1.2-1.2 1.2-.6 0-1.2-.5-1.2-1.2 0-.5.4-.9.8-1.1v-3.8c-5.8 0-23.9 0-23.9-29.7 0-8.5 2.3-29.9 23.9-29.9V115c-2.8 0-4-1.4-4-3.1 0-1.8 1.4-3.4 3.7-3.4.6 0 2.1 0 3.9.6 2.1.7 4.2 2.5 5.8 4.8 1.9 2.5 3.6 5.3 4.8 9.4.6 2.2 1.1 4.7 1.4 7.4.5 3.4.6 7.1.6 11.1 0 6.5-.5 12-1.6 16.4-.7 3-1.6 5.4-2.8 7.5-1.4 2.5-3.2 4.4-5.2 5.6-1.8 1-3.8 1.4-5.9 1.4v1.3c13.7 0 17-16.1 17-29.9 0-32.8-11.2-37.6-20.2-37.6-7.8 0-14 4.9-14 8.1 0 1 .5 1.8 1.8 2.3-.4.5-1.2.8-1.9.8-1.4 0-2.8-1-2.8-2.9.1-5.9 8.3-11.5 17.4-11.5zm30.6 44.7c-.4 1.2-.8 2.6-1.3 4.9-.6 2.6-1 5-1.8 7.1-3.1 8.5-6.4 11.7-11.6 14.2l-.2-.5c4.2-2.2 8-4.7 11.2-14 .6-1.8 1.1-4.1 1.7-6.8.5-2.4 1.1-4 1.4-5.1.6-2.1 1.3-2.9 2.6-3.3-1.6-.7-2.8-1.9-3.4-3.3-.6-1.5-.7-3.6-1.4-8.1-.4-3.3-1.4-7.6-3.6-12.6-1.2-2.6-3.5-7.9-8.3-12.1-1.6-1.4-3.4-2.8-5.6-3.8-2.9-1.3-6.2-2.3-10.3-2.3-5 0-9.5 1.6-12.3 3.3-1.9 1.2-3.4 2.6-4.5 4.1-1.2 1.7-1.7 3.1-1.7 5 0 2.4 1.3 3.9 4.1 3.9v.6c-3.2 0-4.8-1.7-4.8-4.5 0-1.7.5-3.5 1.7-5.3 1.1-1.5 2.8-3.1 4.8-4.3 3.1-1.9 7.6-3.5 12.7-3.5 3.5 0 7.1.7 10.5 2.3 2 .9 3.8 2.2 5.6 3.8 3.2 2.8 6.1 6.8 8.5 12.2 2.3 5.2 3.3 9.7 3.8 13.2.5 4 .5 6.2 1.3 7.7.7 1.6 2.1 2.6 4.3 3.6-2.2.8-2.7 1.2-3.4 3.6zm-28.6-12.8c-4.5 0-7.1-3.8-7.1-7.4 0-3.4 2.4-6.7 7.1-6.7v-3.5c-5.7 0-16.1.1-16.1 26.9 0 29.2 9.7 29.3 16.1 29.3v-1.3c-3.3 0-5.2-2.9-5.2-5.5 0-2.5 2.1-5.1 5.2-5.1v-26.7zm0-13.5c-4.3 0-6.5 3-6.5 6.1 0 3.3 2.3 6.8 6.5 6.8v-12.9zm0 48.3c-1.4 0-2.4-1.3-2.4-2.4 0-1.3.8-2.6 2.4-2.6v-2.3c-2.8 0-4.6 2.3-4.6 4.5s1.6 4.9 4.6 4.9V170zm-3.3-58.2c0 1.4.9 2.5 3.3 2.5v-1.2c-.5-.2-.8-.5-.8-1.1 0-.6.5-1.2 1.2-1.2.6 0 1.2.4 1.2 1.2 0 .5-.4.9-.8 1.1v7.9c2.5 0 4 2.2 4 4.2s-1.6 4.1-4 4.1v5.1c6.3 0 8.7-4.9 8.7-10.3 0-4.1-1.5-7.9-3.3-10.7-1.6-2.5-4.3-4.6-6.4-4.6-1.9.2-3.1 1.6-3.1 3zm1.5 55.7c0 .9.7 1.8 1.8 1.8v-3.8c-1.1.1-1.8 1-1.8 2zm6.3-1.5c0 1.8-1.5 4-3.8 4v2c2.1 0 4-.4 5.8-1.4 2.2-1.3 3.8-3.3 5.1-5.8 1.1-1.9 1.9-4.1 2.5-6.8 1.1-4.3 1.5-9.7 1.5-16.4 0-2.8-.1-6.6-.6-11-.3-2.3-.7-4.8-1.3-7.2-1-3.7-2.9-6.9-4.8-9.4-.8-1.1-2.9-3.8-6.4-4.8 1.3.7 2.9 2.1 4 3.8 2.1 3.1 3.6 7.2 3.6 11.1 0 6.7-3.3 11.1-9.4 11.1V162c2.1 0 3.8 2 3.8 4zm-3.8-37.2c2 0 3.4-1.6 3.4-3.5 0-1.7-1.2-3.6-3.4-3.6v7.1zm3.2 37.3c0-1.7-1.3-3.5-3.1-3.5v6.8c1.8-.1 3.1-1.9 3.1-3.3zM624 116.2v45.9c0 12.9-2.7 17.5-5.1 19.5.5-2.2 1-4.5 1-6.3 0-8.1-4.3-12.7-10.7-14.4 8.1-2.8 8.7-9.1 8.7-19.2h-3.5c-1.2 0-1.6.8-1.6 1.7s.5 1.9 1.5 1.9c.6 0 1.4-.1 2.3-1.1 0 3-1.4 5.3-3.3 5.3-1.1 0-2.3-1-3.2-3.4-1.2-3.1-1.8-3.9-3.3-3.9-.5 0-1.2.2-1.9.5 0-2.7 2.9-3.6 6.3-3.6 3.1 0 4 .7 6.8.7V133c0-10.6-3.2-16.2-8.4-16.2-1 0-1.9.1-3.1.4 1.3-3.2 2.7-3.6 5.5-3.6 3.9 0 5.2-1.4 6.6-3.1 3.8-4.8 7.7-9.2 16.6-9.2 4.6 0 13.8 3.8 13.8 20.1 0 18.2-9.1 20.2-17.2 20.2H627v25.7c.5.2.8.5.8 1.1 0 .6-.5 1.2-1.2 1.2s-1.2-.5-1.2-1.2c0-.5.4-.9.8-1.1v-52c-.5-.2-.8-.5-.8-1.1 0-.6.5-1.2 1.2-1.2s1.2.5 1.2 1.2c0 .5-.4.9-.8 1.1V138c6.6 0 10.2-1.1 11.7-5.9.8-2.5 1.6-7.1 1.6-10.9 0-1.5-.1-6.1-1.4-10-1.3-3.9-3.7-5.5-6-5.5s-3.4 1.5-3.4 2.9c0 1.1.6 2 1.9 2 .8 0 1.5-.6 1.5-2.2h.6c0 2-1.1 2.8-2.2 2.8-1.6 0-2.5-1.3-2.5-2.6 0-1.6 1.3-3.5 4-3.5 2.3 0 5.1 1.5 6.5 5.6 1.2 3.4 1.5 7.6 1.5 10.5 0 3.6-.8 8.6-1.7 11.2-1.6 4.8-5.2 6.1-12.2 6.1v1.4c10 0 15.2-1.4 15.2-19.8 0-2.4-.5-16.4-9.3-16.4-3.1.2-8.8 1.6-8.8 12.5zm-10.6 61.9c.6 0 1.7-.2 1.7-1.4 0-1.1-1-1.7-2-1.7-1.5 0-2.7 1.5-2.7 3.1 0 1.3.9 2.8 3.2 2.8s4.5-2.3 4.5-6.7c0-5-2.5-8-5.5-10-2.5-1.6-5.1-2.5-7.3-3.3 3.8-1.3 6.8-2.7 8.5-5.4.6-.9 1.5-2.8 2-5.3-.4.3-1.6 1-3.1 1-1.3 0-2.9-.7-4-3.2l.5-.4c.5 1.2 1.5 3 3.4 3 1 0 2.1-.3 3.9-1.7-.3 2.1-.9 4.9-2.3 7-1.4 2-3.5 3.8-7.3 5 1.5.5 3.8 1.4 5.9 2.8 3 2 5.8 5 5.8 10.5 0 5-2.6 7.4-5.1 7.4-2.8 0-3.9-1.8-3.9-3.5 0-1.8 1.4-3.7 3.4-3.7 1.3 0 2.5.9 2.5 2.3 0 1.7-1.7 2-2.3 2v-.6zM725.7 176.6c0 .6-.5 1.2-1.2 1.2s-1.2-.5-1.2-1.2c0-.4.2-.8.8-1.1v-3.7c-.4 0-8.6 5.9-18.4 5.9-12 0-16.4-5.2-16.4-10.7 0-5 4-9.2 10.3-11.6-.4-1.3-1.2-3.5-1.2-9 0-2.5-.9-7-4.5-8.6 2.8-1.6 4.5-3.7 4.5-7.3 0-2.8.7-22.4 21.2-26.6.5-.4 2.3-2.3 8.8-2.3 2.5 0 5.2.7 7.9 1.8 2.9 1.3 5.8 3.2 8.3 6 1.8 2.1 3.3 4.5 4.6 7.4 1.3 3.2 2.3 7 2.3 11.5 0 2.5.5 4.5 1.7 6.2 1.1 1.5 2.5 2.5 4.9 3.3-1.8.4-4.7 1.6-5.3 4-.8 3.1-.4 5.9-.8 9.2-.4 2.3-1.3 7.6-5 12.9 2.9 2.6 8.3 8 13 8 2.8 0 3.9-1.4 3.9-3 0-2-1.3-3.1-3-3.1-1.4 0-2.8.9-2.8 2.2 0 1.4.8 2 1.6 2s1.5-.5 1.5-1.7h.6c0 1.5-1.1 2.3-2.2 2.3s-2.3-.9-2.3-2.6c0-1.6 1.7-2.8 3.4-2.8 2.3 0 3.6 1.6 3.6 3.9 0 1.8-1.4 3.5-4.5 3.5-4.2 0-8.9-3.9-14-8.5 3.8-5 4.9-9.9 5.3-13 .4-3.2 0-6.1.9-9.4.4-1.4 1.8-3 4.1-3.8-1.5-.6-2.8-1.7-3.6-2.8-1.3-1.8-1.9-4-1.9-6.6 0-4.4-.8-8.1-2.1-11.2-1.2-2.9-2.8-5.2-4.5-7.3-2.4-2.9-5.5-4.9-8.3-6-2.7-1.1-5.2-1.7-7.4-1.7-5.5 0-7.7 1.4-7.7 1.5.4-.1 2.4-.6 5.1-.6 12.1 0 23.5 9.9 23.5 25.4 0 4.1 1.4 7.6 4.5 9.4-3.6 1.7-3.7 5.8-3.7 10.3 0 3.1-1.7 8.4-3.5 11.7-.7 1.4-2.4 3.7-2.9 4.4 6.8 6.4 12.1 9.7 17 9.7 3.2 0 5.4-2 5.4-7 1.5 1.5 2.7 4.8 2.7 7.7 0 3.6-1.8 7-6.8 7-9.5 0-14.5-9.3-20.2-14.8-.5.4-3.5 5-17.3 5v3.7c1.1 0 1.3.5 1.3.9zm-30.8-10.2c0 4.3 3.8 8.4 12.1 8.4 4.2 0 8-1 11.8-2.6-10.6-1.5-14.9-7.6-17.4-12.4-2 1-4.3 3.7-4.3 6.8 0 2.2 1.4 5 5.1 5.7l-.2.6c-4.4-.9-5.6-4-5.6-6.3 0-3 2.1-6 4.7-7.3-.3-.6-.4-1-.5-1.3-3.9 1.6-5.7 5.1-5.7 8.4zm11.5-30.6v1.4c0 4.9 1.1 15.6 1.4 16.1 1.2-.2 2.8-.4 4.9-.4 2.9 0 6.7.2 11.5 1.5V116c-4.7 0-6.4-3.4-6.4-6 0-1.4.6-3 .9-3.5-11.5 3.5-12.3 21.7-12.3 29.3zm17.8 21c-1.6-.5-6.5-1.7-11.2-1.7-1.7 0-3.3.2-4.9.6.1.4.3 1 .4 1.3 1.1-.2 2-.3 3.1-.3 3.9 0 8.3.3 12.6 2.3v-2.2zm-12.3.6c-.7 0-1.9 0-3.2.3 3.6 11.4 8.1 12.1 15.5 12.1v-10c-2-1.1-5.6-2.4-12.3-2.4zm13-42.1c3.1 0 5.5-3.1 5.5-6.1h.6c0 3.4-2.8 6.7-6.1 6.7v38.9c6.7 1.7 10.9 4.1 14.8 6.8.4-.6 3.2-5.8 3.2-24.9v-4c0-10-1.2-27.4-17.4-27.4-1.9 0-3.8.4-6 1 0 0-1.1 1.7-1.1 3.7 0 1.5.8 5.4 5.8 5.4v-4.8c-.5-.2-.8-.6-.8-1.1 0-.6.5-1.2 1.2-1.2s1.2.5 1.2 1.2c0 .4-.2.8-.8 1.1v4.7zm0 41.7v12.7c9.4 0 12.9-4.3 13.6-5.8-4.7-3.2-9.1-5.4-13.6-6.9zM804.3 181.6c-2.2 0-4.3-1.8-4.3-4.1 0-1.8 1.4-3.5 3.4-3.5 1.6 0 2.5 1.3 2.5 2.2 0 1.1-.7 2.1-2.3 2.1h-.2v-.6h.3c1.2 0 1.6-.6 1.6-1.4 0-.6-.6-1.6-2-1.6-1.6 0-2.7 1.4-2.7 2.9 0 1.8 1.7 3.5 3.7 3.5 2.1 0 4.3-1.7 4.3-6.8 0-8.9-8.1-12.7-12.9-13.8 5-2 6.8-2.9 8.5-4.5 1.5-1.4 2.4-3 3-5.2-.7.5-2 1.2-3.3 1.2-1.8 0-3.6-.9-4.4-3.1l.4-.5c.5 1.9 2.2 3 4 3 1.4 0 3.1-.8 4.2-2.1-.4 3.1-1.4 5.3-3.3 7.1-1.7 1.6-4 2.8-7.2 4 2.6.7 11.6 4.2 11.6 13.9 0 5.4-2.5 7.3-4.9 7.3zm14.5-41.7c16 0 16.3-9.4 16.3-19.3 0-6.8-1-16.8-9.6-16.8-5.1 0-9.6 2.3-9.6 13.2v47.5c0 7-2.3 13.3-5.4 16.6.4-1.4.9-3.1.9-4.9 0-5.5-1.4-12.1-10.1-15.8 7.1-3.5 8.7-4.6 8.7-18.7h-3.5c-.8 0-1.5.7-1.5 1.4 0 .8.3 2.4 1.7 2.4.5 0 1.2-.3 2-1 0 3.1-2.3 5.5-4.4 5.5-1.3 0-2.4-.9-3-3.1-.5-1.7-.9-3.9-2.8-3.9-.5 0-.8.1-1.4.3.6-2.2 1.4-4 7.6-4 2.1 0 2.4.4 5.4.4V133c0-11.6-2.1-16-7.6-16-1.4 0-2.5.1-4.2.7 1.5-3.1 3.9-3.6 7.4-3.6 9.8 0 5.8-12.1 21.1-12.1 12.9 0 15.1 10.3 15.1 20.2 0 11.8-4.7 17.1-13.2 18.6 10.8 3.3 12.4 4.7 12.4 18.6 0 7.8.9 9.4 5 11.7-5.3 3.9-5 10.2-5.1 11-5.2-4-6.2-12.6-6.2-18.2v-12.5c0-4.7-4-9.6-13.4-9.6h-2.3v1.4h2.6c.9 0 3 .1 4.9.6 3.1.9 6.2 2.8 6.2 6.8 0 2.3-1.3 4.3-3.6 4.3-1.9 0-3.9-1.4-3.9-3.2 0-1.5 1.1-3 2.7-3 1.2 0 2.3.8 2.3 2.5h-.6c0-1.3-.7-1.9-1.6-1.9-1.3 0-2.1 1.2-2.1 2.3 0 1.3 1.5 2.6 3.2 2.6 2 0 3-1.7 3-3.7 0-3.3-2.5-5.2-5.6-6.1-1.6-.5-3.2-.6-5-.6h-2.5v24.4c.5.2.8.5.8 1.1 0 .6-.5 1.2-1.2 1.2s-1.2-.5-1.2-1.2c0-.5.4-.9.8-1.1v-52.5c-.5-.2-.8-.5-.8-1.1 0-.6.5-1.2 1.2-1.2s1.2.5 1.2 1.2c0 .5-.4.9-.8 1.1v22c4.2 0 8.8-.2 11.5-4 1.7-2.4 2.8-6.1 2.8-11.9s-.9-16.2-7.6-16.2c-2.2 0-3 1.2-3 2.3s.7 2.1 1.9 2.1c.7 0 1.3-.4 1.3-1.6h.6c0 1.6-1 2.3-2 2.3-1.6 0-2.5-1.4-2.5-2.7 0-1.4 1.1-2.9 3.6-2.9 3.4 0 8.3 2.5 8.3 16.8 0 5.8-1.1 9.8-3 12.3-2.7 3.5-6.3 4.1-12 4.1v1.6zM24.7 238.7c-4.1-2.5-8-4.8-11.8-7.6-1.7-1.3-4.6-3.9-4.6-7.6 0-3.1 2.3-5.6 6.6-8.5 9.3-6.3 13.3-9.9 14.2-10.4 3.6 4.9 7.5 5.9 10.5 5.9 2.4 0 3.9-.6 4.4-.8-1.6 4-4.5 8.4-9.1 8.4-3.1 0-6.6-2-11.1-7.3-3.2 2.3-7.3 4.2-7.3 9.2 0 4.3 5.7 6.8 8.1 8.1v-7.7c-.5-.2-.8-.5-.8-1.1 0-.6.5-1.2 1.2-1.2s1.2.5 1.2 1.2c0 .5-.4.9-.8 1.1v6c2.2 1.3 6.8 4.3 11.2 8.5 5.3 4.9 10.3 11.7 10.3 20.1 0 10.2-8.6 20.2-17.8 22.5-1.2.3-2.4.5-3.7.5v2.1c.5.2.8.5.8 1.1 0 .6-.5 1.2-1.2 1.2s-1.2-.5-1.2-1.2c0-.5.4-.9.8-1.1V278c-2.1 0-3.2 1.4-3.2 3.1 0 2.2 1.7 3.1 3.5 3.1 1.9 0 3.5-1.2 3.5-3.9h.6c0 3.1-2 4.5-4.1 4.5-2.2 0-4.1-1.3-4.1-3.8 0-1.8 1.4-3.7 3.9-3.7V276c-4.4 0-18.9-.4-18.9-16.4 0-1.9.4-4.9 1.4-6.1 3.3-3 6.7-3.9 9.6-3.9 4.4 0 7.8 2 7.9 2.1v-1.4c-2.3-.9-4.5-1.8-8.3-1.8-2 0-4 .4-4.8.6-1.7.5-3.5 1.9-4.2 2.6l-.4-.3c1.4-1.2 2.7-2 3.2-2.3-1-.2-5.8-1.3-5.8-5.8 0-3.5 2.6-5.3 5.1-5.3 3.1 0 4.8 2.4 4.8 4.6 0 2.6-2 3.8-3.8 3.8-1.6 0-3.2-1-3.2-2.9 0-1.2.9-2.3 2.3-2.3.7 0 1.3.3 1.7 1.1l-.5.4c-.4-.6-.7-.8-1.3-.8-1 0-1.6.9-1.6 1.7 0 1.5 1.2 2.2 2.6 2.2 1.4 0 3.1-1 3.1-3.1 0-1.8-1.3-4-4.1-4-2.3 0-4.5 1.5-4.5 4.8 0 3.9 4.4 5.1 5.8 5.1 1.4 0 2.3-.6 6-.6.5 0 4 .1 7.8 1.8v-11.1zm0 23.9c-1.3-1.8-4-4.9-7.9-4.9-2.4 0-5.2 1.2-8.5 4.4 0 1.6.9 11.6 16.4 11.6v-11.1zm20.2-8.5c0 11.8-10.9 22-19.5 22v1.2c1.3 0 2.5-.2 3.7-.4 9-2.3 17.2-12.1 17.2-21.8 0-8.2-5-14.8-10.1-19.6-4.6-4.3-9.3-7.3-10.8-8.2v1.3c3.6 2.4 19.5 13.2 19.5 25.5zm-6.3 4.7c0-9.4-12.5-19.3-13.2-19.3v34.3c.2 0 13.2-.8 13.2-15zM129.1 284c0 .6-.5 1.1-1.1 1.1s-1.2-.5-1.2-1.1c0-.5.3-.9.8-1.1v-6.2c-7.8 0-27.8-2.5-27.8-29.8 0-8 5.8-20.1 17.4-23.3-9.4 9.4-10.1 18.2-10.1 23 0 15.6 10.6 23.9 20.5 23.9v-1.3c-1.6 0-6.7-.4-11.2-4-2.7-2.2-5.1-5.4-6.7-10.3-.8-2.8-1.3-5.8-1.3-9.1 0-4.9 1.2-8.5 2.8-11.9 2-4 4.9-7.6 8.1-11.2-.3-.3-1-.8-1.4-1.2 1.1-.4 5-1.9 5-3.7-3.8-1.2-7.2-2.7-9.7-3.2-3.7-.7-6.7-.9-7.5-.9-6.2 0-7.9 5.4-8.1 5.6 0-2 1.4-9.2 13.9-9.2 3.1 0 10.2 1.8 10.9 1.8 3.7 0 4.3-2.3 4.5-2.9 3.6 2.7 7.6 4.7 12.1 4.7 3.5 0 7.4-1.2 11.4-5.2 0 .8-3.2 11.4-14.9 11.4-4.2 0-5.8-.4-10.1-1.2v28.6c0 6.3-.7 10.9-2.8 13.9 0-10.2-3.8-14.8-7.9-15.7 3.9-.9 7.9-1.8 7.9-11.5 0-4.2-.9-8.5-2.9-10.9-2.4 2.8-5.7 6.3-8 11.1-1.6 3.2-2.7 6.8-2.7 11.1 0 3.4.5 6.4 1.3 9.2 1.4 4.8 3.8 8 6.4 10.1 4 3.3 8.7 4 11 4v-3c-2.2 0-3.1-1.8-3.1-3 0-1.5 1.6-3.2 3.1-3.2v-34c-.5-.2-.8-.6-.8-1.1 0-.5.5-1.1 1.2-1.1s1.1.4 1.1 1.1c0 .4-.3.9-.8 1.1v34c2.9 0 4.7 2.5 4.7 4.9 0 2.3-1.3 4.4-4.7 4.9v1.3c22 0 22.2-20.7 22.9-22 0 11-4 28.2-22.9 28.2v6.2c.4.2.7.6.7 1.1zm-1.4-23.9c-1.3 0-2.5 1.5-2.5 2.5s.6 2.4 2.5 2.4v-4.9zm16.7-51.7c-.4 1.4-1.3 1.9-2.2 1.9-1.6 0-2.7-1.2-2.7-2.7 0-1.3 1.2-2.9 3.2-2.9 1.6 0 3.4 1.3 3.4 3.7 0 2.2-2.1 4.6-7 4.6-3.7 0-7.5-1.4-11.2-4.3l.4-.5c3.2 2.7 6.9 4.2 10.8 4.2 4.6 0 6.4-2.1 6.4-4s-1.4-3-2.8-3c-1.7 0-2.6 1.2-2.6 2.3 0 1.3.8 2.1 2.1 2.1.7 0 1.3-.4 1.5-1.3l.7-.1zm-12 56c0-2.2-1.5-4.3-4-4.3v8.5c2.7-.3 4-2.2 4-4.2zM196.7 264.9c1-1.3 6.4-8.6 8.8-16.1 1.4-4.1 2.5-9.1 2.5-17.1 0-3-.4-7-1.4-10.8-1.7-6.2-4.5-8.2-6.1-8.2-2.3 0-3.1 1.4-3.1 2.9 0 1.7 1.1 2.4 2.2 2.4s2-.6 2-1.7c0-.8-.4-1.3-1.1-1.3-.3 0-.5.1-.9.4l-.4-.4c.4-.4.9-.6 1.3-.6.9 0 1.8.6 1.8 1.9 0 1.5-1.3 2.3-2.5 2.3-1.4 0-2.9-.9-2.9-3.1 0-1.7 1.2-3.5 3.7-3.5 2.1 0 4.9 2.1 6.8 8.5.8 2.8 1.5 6.7 1.5 11.8 0 3.4 0 9.1-2.4 16.3-1.2 3.4-3.8 9.7-8.9 16.5-1.2 1.5-2.3 3.1-3.7 4.7 2.5 0 5.4.9 7.2 2 1.4.8 2.4 1.7 5.4 4.1 1 .8 2.4 1.9 4 3 2.5 1.8 5 3.4 8.9 4.7v.6c-3.4-.9-6.5-2.9-9.4-4.9-1.4-1-2.8-1.9-4-3-2.9-2.3-3.8-3.1-5.1-3.9-1.9-1.2-4.7-2-7.1-2h-1.3c1.5-1.9 2.8-3.6 4.2-5.5zm61.8-42.7-.4.5c-3.8 0-8.1-2.1-12.1-9.1v67c.4.2.8.5.8 1.1 0 .7-.5 1.2-1.2 1.2s-1.2-.5-1.2-1.2c0-.5.4-.9.8-1.1v-6.8c-3 4.7-9.6 9.1-19.2 9.1-14.5 0-21.1-14.1-29.4-14.1.8-1.1 5.7-6.3 8.8-13.5s4.7-15.1 4.7-22c0-2.1-.3-22.6-10.1-22.6-1.9 0-3.1 1.4-3.4 2.1-.2-.2-.5-.5-.5-.9 0-1 .7-2.3 2.4-3.1 3.5-2 5.3-.4 9.4-4.6 2.3.8 8.5 4.7 8.5 19.3 0 15.9-7.6 33-7.6 39.1 0 8.2 5.8 17.9 17.5 17.9 17.2 0 18.9-13.7 18.9-13.9v-3.8c-3 12.2-10.6 16.1-17.5 16.1-7.3 0-10.2-3.4-10.2-6.6 0-2.6 2.1-5 5.2-5 2.5 0 4 2.2 4 4.2 0 1.4-1.3 3.1-3.3 3.1-2 0-2.9-1-2.9-2.5 0-.9.4-1.8 2.2-2.4l.2.5c-1.4.4-1.7 1.2-1.7 1.9 0 1.2.6 1.9 2.1 1.9 1.9 0 2.9-1.3 2.9-2.4 0-1.9-1.4-3.6-3.3-3.6-2.8 0-4.6 2.2-4.6 4.4 0 2.8 2.7 5.9 9.6 5.9 6.5 0 14.9-3.8 17.5-18.4v-47.4c-.4-.2-.8-.5-.8-1.1 0-.6.5-1.2 1.2-1.2.6 0 1.2.5 1.2 1.2 0 .5-.4.9-.7 1.1 1.4 2.9 5.2 9.7 12.2 9.7zm-11 24.6v-28.4c3.6 4.6 6.2 5.5 10.1 5.5-3.6 6.9-4.7 14.9-4.7 22.3 0 10.1.2 16.6 4.7 22.3-3 1.4-4 3.8-4 5.8 0 2.3 1.7 4.1 3.9 4.1 1.7 0 3.1-.9 5-3.5 0 4.7-4 8-7.7 8-2.2 0-4.4-1.5-5.3-4-1.5-4.2-2-12.9-2-32.1zM303.2 226.3c1.1 0 2.3-.9 2.3-2.2 0-.5-.2-1.1-.5-1.7 2.3.3 3.3 2 3.3 3.8 0 2.1-1.5 4.2-4.1 4.2-3.2 0-5.6-2.7-5.6-6.3 0-11.9 15.9-11.2 20-17.7v52.4c0 5.9 2.7 12 11.5 16.6 9.7-4.6 11.4-14 11.4-15.9v-49.9c.5.4 3.3 4.3 9.4 6.5-.5 3.7-2.1 18.4-2.1 31.6 0 8 .9 14 2.4 17.5-.4.2-8 2.2-21.1 13-10.5-9.4-21.1-11.9-21.4-12.1 4.4-14 4.9-30.1 4.9-30.3 0-19.3-1.9-21.3-4.4-21.3-2.4 0-8.2 3.9-8.2 8.5 0 2.3 1.1 3.3 2.2 3.3zm47.3 30.3c-.4-3.8-.5-8.2-.5-12.4 0-11.1 1.4-22.5 2.1-27.9l.6.3c-1.1 9-2.1 18.7-2.1 28.3 0 4.2.1 8.5.5 11.7.5 3.3 1 5.9 2.3 9.2-3 1.2-5.1 2.2-6.9 3.1-1.3.6-3.8 1.9-6.5 3.8-1.4.9-3.1 2.3-5 3.8-1.4 1.1-2.9 2.3-4.5 3.6.7.8 1.1 1.6 1.1 2.3 0 1-.6 1.6-1.5 1.6s-1.4-.7-1.4-1.7c0-.7.3-1.5 1-2.2-1-1-2.5-2.3-4.1-3.6-.7-.5-1-.7-1.9-1.4-1.5-1.1-3.2-2.2-5.5-3.4-1.3-.6-2.7-1.3-4.2-2-1.8-.7-3.6-1.4-5.8-2.2l.2-.6c2.1.7 4 1.5 5.7 2.2 1.6.6 3.1 1.4 4.6 2.2 2 1 3.7 2.2 5.5 3.4.7.5 1.5 1.1 2.3 1.7 1.3 1 2.5 2.1 3.8 3.2 1.7-1.4 2.3-1.8 4.5-3.6 2.3-1.7 4.5-3.4 4.9-3.7 2.7-1.8 4.3-2.7 6.8-4 2-1 3.3-1.6 6.4-2.9-1.5-3.2-2.1-5.9-2.4-8.8zM321 203.8c.6 0 1.2.5 1.2 1.2 0 .5-.4.9-.8 1.1v53.5c.5.2.8.5.8 1.1 0 .6-.5 1.2-1.2 1.2s-1.2-.5-1.2-1.2c0-.5.4-.9.8-1.1V206c-.5-.2-.8-.5-.8-1.1 0-.6.5-1.1 1.2-1.1zm8.2 78.4c0 .6.3 1.1.8 1.1s.9-.4.9-1c0-.5-.3-1.2-.9-1.9-.5.5-.8 1.2-.8 1.8zM448 262.6c0 2.2 1.1 3.4 3.7 4.3-8.5 4.5-16.4 11.5-20.8 18.3v-25.4h-1.4v13.9c.5.2.8.6.8 1.1 0 .6-.5 1.2-1.2 1.2s-1.2-.5-1.2-1.2c0-.4.4-.9.8-1.1v-13.9h-1.4v25.4c-4.3-6.7-12.4-13.8-20.9-18.3 2.6-.9 3.8-2.3 3.8-4.3v-40.9c0-2.3-1.3-3.5-4.1-3.5-4.1 0-8.5 2.6-8.5 5.6 0 2 2 3.7 4.5 3.7 2.1 0 3.8-1.2 4.7-3.4.8 1.1 1.3 2.3 1.3 3.4 0 2.7-2.5 4.5-6 4.5-4.6 0-8.3-3.1-8.3-7.2 0-4.9 5.2-8.4 12.8-8.4 6.6 0 9.6 2.5 9.6 7.7v44.7c0 2.9 3.3 4.9 9.8 11.5v-1.8c-.1-.1-7.1-7.3-7.5-7.6-.8-.8-1.3-2-1.3-3.2 0-1.9 1.2-3.2 2.9-3.2 1.4 0 2.5 1 2.5 2.4 0 1.2-.7 2-1.8 2-1 0-1.5-.6-1.5-1.7v-.2h.6v.2c0 .7.3 1.1.8 1.1.7 0 1.3-.6 1.3-1.4 0-1-.8-1.7-1.9-1.7-1.4 0-2.3 1-2.3 2.5 0 1.2.5 2.3 1.8 3.6.6.7 2.3 2.4 6.3 6.5V260H423v-1.6h3.1v-11.8l1.4-2v13.8h1.4V231c-.5-.2-.8-.6-.8-1.1 0-.6.5-1.2 1.2-1.2s1.2.5 1.2 1.2c0 .4-.3.9-.8 1.1v27.4h1.4v-13.8l1.3 2v11.8h3.1v1.6h-3.1v17.8c.2-.2 6.5-6.6 6.8-6.8.8-.8 1.4-2.1 1.4-3.2 0-1.5-.9-2.5-2.3-2.5-1.1 0-1.9.7-1.9 1.7 0 .8.6 1.4 1.4 1.4.5 0 .8-.4.8-1.1v-.2h.6v.2c0 1.1-.5 1.7-1.5 1.7-1.1 0-1.9-.9-1.9-2.1 0-1.3 1-2.3 2.5-2.3 1.7 0 2.9 1.3 2.9 3.3 0 1.3-.4 2.2-1.6 3.7l-7.1 7.1v1.8c6.5-6.7 9.8-8.6 9.8-11.5v-48.8c0-7.2 2.2-11 4.8-13s4.5-2.2 10.3-2.2c-3.8 2.1-4.5 4.5-5 5.2-4 0-4 1.4-4 8.5V262.6zm-46.3-29.3c2.8 0 5.7-1.3 7.5-3.2V260.2c0 4-.2 4.2-3.3 6l-.5-.4c1.9-1.1 2.6-1.7 2.9-2.3.2-.4.3-1.2.3-4.1v-27.7c-2 1.6-4.4 2.4-6.8 2.4-2.2 0-4.3-.7-6.1-2l.4-.5c1.7 1 3.6 1.7 5.6 1.7zm48.1 27.4v.6c0 2.2.5 2.7 3.1 4.3l-.5.4c-3.1-2.1-3.2-2.3-3.2-5.4v-44.2c0-4 0-5.1 2.5-5.1h1.2c.5-1.2 1.3-2.3 2.2-3.4 1.1-1.3 2.3-2.4 4-2.9l.2.5c-1.1.4-2.3 1.2-3.6 2.6-.8 1-1.6 2.3-2.3 3.8H452c-2.2 0-2.2.2-2.2 4.4v44.4zM516.3 273.7c0-1.5.1-2.9.9-4l4.2-6.1 6.4-9.1c.7-.9 1.7-1.4 2.7-1.4 2.1 0 3.1 1.5 3.1 3s-.9 2.9-2.5 2.9c-1 0-2.1-.7-2.1-1.9 0-.5.2-1 .5-1.5l.5.4c-.3.4-.4.8-.4 1.2 0 .7.7 1.3 1.4 1.3 1.3 0 1.9-1.2 1.9-2.2 0-1.2-.9-2.3-2.5-2.3-1 0-1.8.5-2.6 1.6l-5.8 8.5-4.2 6c-.6.9-.9 1.6-.9 3.6v4c1.8 0 2.8.8 2.8 1.9 0 1-.6 1.5-1.3 1.5-1.1 0-2.1-.9-2.1-2.8h-.3c-2.7 0-5.6.1-9.5 1.5-1.2.5-1.6.5-3.2 2.8l-.5-.3c.7-1 1-1.3 1.3-1.6-1.8.9-5.1 1.6-8.2 1.6-6.5 0-13.7-3.8-13.7-17.2h.6c0 13.2 7.2 16.6 13 16.6 3.3 0 6-.7 8.3-1.6 4.4-1.8 7-2.4 11.9-2.4h.4v-4zm-6.5-53c1 0 1.4 1.1 1 1.7 1.2 1.4 41 50.8 42.5 52.6.8-.3 1.6.2 1.6 1.1 0 .6-.5 1.3-1.3 1.3s-1.4-.7-1-1.8c-3.9-4.9-21.8-27-22.1-27.4l-14.2 20.1c-1 1.4-1.4 3.1-1.4 5.9v2.2c-10.7 0-10.7 3.8-18.4 3.8-8.5 0-12.1-7.2-12.1-13.8 0-7.8 4.4-11.9 8.3-11.9 2.9 0 5.5 2 5.5 5.7 0 2.5-1.5 5-4.5 5-.7 0-1.6-.4-2.4-.9 2.4-.4 3.4-1.6 3.4-2.9 0-1.7-1.5-2.9-3.1-2.9-2 0-4.2 1.7-4.2 6.7 0 6.5 3.6 10.4 8.9 10.4 5 0 11.5-3.2 18.5-13.2l12.7-18c-.8-1-6-7.4-17.3-21.3-.7.3-1.5-.2-1.5-1.1 0-.8.5-1.3 1.1-1.3zm54.4 51.2c.1.3.1 1.2.1 2.6 0 3.8-.3 8.5-.9 10.1-.8-1.2-1.8-6.9-6.8-11.4-2.6-2.4-4.3-3.2-6.3-4-3.9-5.1-29.8-38.1-41.6-52-1-1.2-1.5-1.8-3.7-1.8v-10.8c.4.5 2.2 6 6.8 10.3 2.5 2.3 5.9 3.5 7 4 6.1 7.5 9.4 11.5 14.2 17.5l15.5-21.3c.5-.7.9-1.4.9-2.4 0-.4 0-.9-.1-1.4 2-.4 7.8-.5 8.5-.5 7.7 0 12.2 6.3 12.2 11.2 0 3.4-2.3 5-4.5 5-2.1 0-4-1.1-4-3.7 0-1.1.5-2.4 1.3-2.9 0 1.5.8 2.9 1.7 2.9 1.3 0 2-1.4 2-3.1 0-2.8-1.8-6.7-6.7-6.7-1.7 0-3.7.6-5.7 2.6-.7.7-15.9 21.8-17.9 24.5l1.2 1.3c2.1-2.9 7.3-10.2 14.8-20.6l.5.4-14.8 20.7 22.6 28.5c.6.6 2.5 1 3.7 1zm-45.8 8.5c.4 0 .7-.4.7-.9 0-.9-.7-1.4-2.2-1.4.1 1.6.8 2.3 1.5 2.3zM611.2 215.2c0 4.8-3.6 7.2-7.2 7.2-3.4 0-6.9-2.4-6.9-7.4s4.2-10.3 14.1-10.3c10.4 0 12.6 8.6 12.6 8.8v26.3c0 5.9 2.1 9.1 6.3 9.1h6.5v-1.4h-3.7c-5.2 0-7.7-.2-7.7-9.6v-23.3h.6v23.3c0 3.3.3 5.3.9 6.7 1 2.3 2.8 2.3 6.3 2.3h3.6V209c-.5-.2-.8-.5-.8-1.1 0-.6.5-1.2 1.2-1.2s1.2.5 1.2 1.2c0 .5-.4.9-.8 1.1v51.7c.5.2.8.5.8 1.1 0 .6-.5 1.2-1.2 1.2s-1.2-.5-1.2-1.2c0-.5.4-.9.8-1.1v-8.2h-10.8c-1.6-1.8-2.8-2.8-4-3.4s-3.6-1.4-4.2-1.6l-.4-.8c1 .3 3.5 1.2 4.8 1.8s2.4 1.6 4 3.4h10.5v-1.4h-10c-2.4-2.8-6.7-4.6-9.4-4.9v-36.7c0-1.5-3.1-3.1-6.4-3.1-6.6 0-9.3 3.5-9.3 6.5 0 2.9 2 4.9 4.2 4.9 2 0 4.1-1.3 5-4.4.4.8.6 1.7.6 2.4zm35.9 4.5c0-2.6 0-5.7 3.1-7.7-1.8 2.8-2.4 3-2.4 7.6v38.2c0 8.9-2.1 15.2-5.1 19.5-4 5.4-9.5 7.6-15 7.6-13 0-16.2-8.1-18.3-14.7-.5-1.3-.9-2.7-3-2.7-1.7 0-2.5 1.2-2.5 2.3 0 1.1.8 2 2 2 1.1 0 1.4-.9 1.4-1.4 0-.4-.2-.9-.9-.9v-.5c1.1 0 1.5.8 1.5 1.5 0 .9-.7 2-2.1 2-1.5 0-2.6-1.2-2.6-2.6s1-3 3.1-3c2.3 0 3 1.4 3.5 3.2 2 6.1 5 14.1 17.6 14.1 5.3 0 10.9-2.1 14.7-7.3 3.1-4.1 5-10.3 5-18.7v-38.5zm-27.5 39.4c3.2 0 6.4 1.9 6.4 5.9 0 2.3-1.4 4.5-4.9 4.5.9-.9 1.3-2.1 1.3-2.9 0-1.7-1.3-3.1-3.2-3.1-2.4 0-3.6 3.1-3.6 6.5 0 4.7 2.9 10.7 10.5 10.7 8.1 0 13-3.5 13-24.9V215c3.1-.6 4.8-1.1 8.7-3.3l1-.5c-.5.6-3.1 1.8-3.1 7.2V258c0 17.8-8.8 24.8-18.4 24.8-8.6 0-15.6-5.9-15.6-14.9.1-4.9 2.6-8.8 7.9-8.8zM701.8 282.7c-4 0-6.5-3.1-6.5-6.8 0-4 1.3-6.9 13.3-23.6l20.8-29.1v-9.5c-.5.2-9.9 6.1-12.8 12.9-2.7-1.9-4.2-2-8.6-3.1-2.3-.6-6.5-2.7-6.5-8.6 0-1.4.2-3 .7-4.9.8 4.1 2.2 8.1 8.5 8.1 6.5 0 16.1-5.4 18.6-6.7v-3.3c-.5-.2-.8-.5-.8-1.1 0-.6.5-1.2 1.2-1.2s1.2.5 1.2 1.2c0 .5-.4.9-.8 1.1v3c.7-.4 6.2-3.1 12.8-6.4h5.4c0 .4-17.7 25.8-18.2 26.5v3.4l14.2-21c2.3-3.4 4-4.2 5.6-4.2 2.8 0 4 1.9 4 3.8 0 2.4-1.7 3.5-3.3 3.5-2 0-2.9-1.3-2.9-2.4 0-1.1.8-2.2 2.1-2.2.4 0 .9.2 1.2.6l-.5.5c-.3-.3-.4-.5-.7-.5-.8 0-1.4.6-1.4 1.5s.7 1.8 2.3 1.8c1.3 0 2.7-.9 2.7-2.9 0-1.6-1.1-3.1-3.4-3.1-1.3 0-2.7.5-5.2 4.3l-14.6 21.5v27.8c0 10.1 8.5 15.1 15.8 15.1 5.5 0 7.6-3.6 7.6-7.1 0-4.2-3.3-6.4-6.4-6.4-3.4 0-4.9 2.3-4.9 4.3 0 2.3 1.7 3.3 3.2 3.3 1.5 0 2.5-1.2 2.5-2.1 0-.7-.5-1.3-1.5-1.3v-.6c1.4 0 2.2.9 2.2 1.9 0 1.3-1.2 2.7-3.2 2.7-1.9 0-3.9-1.3-3.9-4 0-2.3 1.7-4.9 5.6-4.9 3.3 0 7 2.3 7 7 0 3.8-2.4 7.7-8.3 7.7-6.8 0-13.5-3.7-15.8-11.3v3.6c.5.2.8.5.8 1.1 0 .6-.5 1.3-1.2 1.3s-1.2-.6-1.2-1.3c0-.5.4-.9.8-1.1V232l-16 23-7 9.8c-1 1.3-1.5 2.3-1.5 3.1 0 .7.5 1.2 1.4 1.2.3 0 5-.6 5.2-.6l14.3-2.2c0 16.3 19.2 16.5 19.4 16.5 6.6 0 12.2-3.3 12.2-10.7 0-5.2-3.4-10.3-8.7-10.3-1.1 0-2.3.3-3.7.7.9-3.1 4.2-4.9 7.8-4.9 6.8 0 10.3 5.4 10.3 11.3 0 7.5-5.4 15.8-16.8 15.8-18 0-22.2-13-32.8-13-7.3 0-12.6 3.5-12.6 6.5 0 1.6 1.7 3.1 5.7 3.6-1.5.7-3.2.9-4.7.9zm28.4-60.5c.4-.5 6.3-9 6.8-9.6h-2.5c-1.4 0-3.2.2-4.2.7v8.9z"/></svg>